<svg width="396" height="251" viewBox="0 0 396 251" fill="none" xmlns="http://www.w3.org/2000/svg">
<mask id="path-1-inside-1_5070_37144" fill="white">
<path d="M427.73 238.193C423.514 232.581 417.585 228.86 412.358 225.827C383.825 209.254 354.78 192.491 326.687 176.271C317.127 170.747 307.567 165.237 298.022 159.713C297.539 159.435 297.041 159.142 296.441 158.79L295.782 158.409L315.487 153.515C315.678 153.471 315.868 153.442 316.058 153.412C316.234 153.383 316.41 153.354 316.6 153.31C316.673 153.31 316.732 153.281 316.776 153.295C316.834 153.295 316.907 153.369 316.981 153.442L320.055 156.255V156.665C320.099 158.131 320.143 159.523 321.314 160.739C322.397 161.867 324.008 162.263 325.516 161.75C327.741 161.003 329.366 157.911 329.293 154.555C329.234 152.328 328.121 150.995 326.043 150.687L332.382 145.852C333.553 146.408 334.753 146.995 335.983 147.595C338.852 148.987 341.81 150.438 344.855 151.727C347.68 152.929 350.505 154.248 353.243 155.522C360.578 158.922 368.146 162.439 376.257 164.197C380.737 165.164 385.377 165.442 389.725 165.604C390.984 165.633 391.936 165.223 392.463 164.417C393.005 163.582 392.975 162.424 392.39 161.266C391.087 158.673 389.74 156.783 388.261 155.464C379.902 148.079 369.83 141.808 357.474 136.313C355.058 135.228 352.614 134.217 350.257 133.221C349.247 132.796 348.251 132.371 347.285 131.961C347.9 130.012 348.514 128.078 349.115 126.158C350.535 121.601 351.882 117.308 353.389 112.956C355.703 106.216 358.221 97.2191 357.093 87.4164C356.683 83.7972 355.527 81.4674 353.682 80.4856C351.896 79.5332 349.466 79.8702 346.48 81.4527C345.484 81.9802 344.533 82.5077 343.757 83.2403C343.112 83.8411 342.468 84.4272 341.81 85.0133C339.789 86.8449 337.71 88.7351 335.998 90.8744C333.714 93.761 331.518 96.7942 329.395 99.7247C327.477 102.377 325.501 105.117 323.451 107.74C322.046 109.542 320.377 111.139 318.781 112.678C318.108 113.322 317.478 113.923 316.863 114.539C315.824 113.997 314.829 113.484 313.848 112.971C311.754 111.872 309.778 110.846 307.772 109.864C306.411 109.205 305.035 108.531 303.673 107.857C298.842 105.483 293.835 103.022 288.814 100.838C284.964 99.1679 280.762 97.7466 275.96 96.4865C274.335 96.0615 271.671 96.6037 270.704 97.9517C270.309 98.4939 270.075 99.1825 270.031 99.8859C269.973 100.926 270.309 101.967 270.983 102.816C271.232 103.139 271.466 103.49 271.7 103.827C272.022 104.296 272.359 104.795 272.754 105.249C279.005 112.429 285.271 117.909 291.917 121.997C292.854 122.568 293.777 123.184 294.67 123.785C294.933 123.96 295.211 124.136 295.475 124.327C294.187 124.429 292.971 124.283 291.8 124.122C291.566 124.092 291.332 124.063 291.083 124.034C286.325 123.462 281.567 122.891 276.824 122.319C263.575 120.722 249.872 119.081 236.374 117.557C225.38 116.326 215.893 112.473 207.373 105.762C205.895 104.604 204.211 103.476 202.205 102.318C198.575 100.208 194.885 98.0983 191.299 96.0615C187.639 93.9662 183.847 91.8122 180.143 89.6583L174.712 86.5079C159.809 77.8628 144.393 68.9099 129.27 60.0303C120.911 55.1217 112.42 50.1104 104.222 45.2457C91.7048 37.846 78.7633 30.1973 65.9829 22.7683C61.0054 19.8817 55.413 17.1563 49.3229 14.68C41.3882 11.4417 32.7654 8.20345 21.3611 4.15929C20.351 3.80762 19.3262 3.41199 18.3307 3.03102C13.646 1.24338 8.80021 -0.602877 3.39816 0.188373C1.80243 0.422818 0.675201 1.05289 0.22137 1.97601C-0.144622 2.72331 -0.0567948 3.63178 0.484874 4.61352C1.91957 7.19241 3.51529 9.19984 5.24278 10.5625C7.51193 12.3648 9.81034 14.2258 12.0356 16.028C19.2822 21.8892 26.7924 27.9554 34.6686 33.1571C61.2982 50.7698 88.6744 68.2066 115.158 85.0719L118.861 87.431C124 90.6986 129.344 93.8343 134.511 96.8528C138.859 99.3877 143.354 102.025 147.687 104.721L148.185 105.029C151.947 107.359 155.856 109.762 155.065 115.33C154.787 117.308 152.138 121.25 150.893 121.528C149.956 121.733 149.019 121.953 148.068 122.158C141.948 123.521 135.624 124.913 129.636 127.096C128.992 127.331 128.333 127.58 127.689 127.858C118.159 131.902 111.044 139.522 108.175 148.768C107.618 150.541 107.369 152.358 107.091 154.277C106.974 155.098 106.857 155.933 106.711 156.768C106.564 156.797 106.432 156.827 106.286 156.841C105.861 156.915 105.408 157.002 104.968 157.105C102.904 157.633 100.825 158.189 98.7612 158.731C94.706 159.801 90.5044 160.9 86.3467 161.911C83.7848 162.527 81.6767 164.241 80.403 166.732C78.9537 169.604 78.7634 173.106 79.9199 175.905C80.403 177.062 81.662 178.278 82.9796 178.864C86.2882 180.315 89.055 178.703 91.7341 177.15L92.3637 176.784C96.1407 174.615 99.9909 172.461 103.724 170.366C105.305 169.472 106.886 168.593 108.467 167.699L112.069 174.322C110.019 175.861 108.057 177.326 106.052 178.85C105.129 176.579 103.285 174.996 100.957 174.527C98.3513 173.985 95.5844 174.879 93.7105 176.842C88.9526 181.839 87.4593 187.993 89.1722 195.627C89.7285 198.074 91.0461 200.052 92.9053 201.195C94.6035 202.236 96.6824 202.529 98.7466 202.001C101.718 201.239 106.491 195.481 106.725 192.374L106.784 191.583C106.93 189.576 107.077 187.495 107.369 185.487C107.486 184.711 107.926 183.846 108.482 183.333C110.312 181.634 112.303 180.066 114.162 178.586C114.718 178.146 115.465 177.853 115.626 177.956C116.592 178.571 117.573 179.231 118.613 179.934C122.448 182.542 126.796 185.487 131.349 186.059C133.179 186.279 135.024 186.616 136.81 186.923C137.864 187.114 138.933 187.29 139.987 187.466C139.987 187.832 139.987 188.14 139.987 188.433C139.987 188.989 139.987 189.414 139.987 189.839C140.118 194.909 141.26 196.287 146.077 197.21C147.101 197.4 150.044 197.679 150.483 196.799C151.288 195.217 150.117 194.47 149.092 193.81C148.697 193.561 148.302 193.297 148.009 193.004C147.658 192.653 147.453 192.023 147.394 191.598C147.321 191.041 147.541 190.425 147.965 190.044C148.273 189.766 148.58 189.795 149.005 189.839H149.136C150.337 189.957 151.537 190.088 152.723 190.22C153.177 190.264 153.645 190.323 154.099 190.367C156.661 190.645 159.208 190.924 161.77 191.217L164.098 191.48C167.187 191.832 170.832 192.228 174.507 192.609C178.416 193.019 178.928 193.224 179.206 197.224C179.646 203.408 180.026 209.708 180.378 215.804C180.641 220.244 180.919 224.83 181.212 229.343C181.212 229.519 181.227 229.71 181.212 229.915C179.236 231.189 177.23 232.918 175.107 235.16C170.218 240.347 168.988 244.89 171.564 248.289C173.058 250.253 175.195 251 177.42 251C179.309 251 181.271 250.458 182.954 249.681C183.057 249.652 183.144 249.608 183.218 249.549C183.686 249.33 184.111 249.095 184.506 248.861C186.394 247.703 188.268 246.091 190.215 243.937C191.738 242.252 193.436 240.274 194.432 237.959C195.486 235.512 195.515 232.918 194.505 230.852C193.436 228.684 191.152 227.409 188.327 227.409C188.18 227.409 188.034 227.409 187.902 227.409C187.346 227.453 186.76 227.556 186.146 227.717V193.004C186.38 192.96 186.804 192.887 187.229 192.858C197.623 192.345 209.862 191.158 221.779 186.205C228.689 183.333 235.76 180.549 242.611 177.868C247.676 175.875 252.903 173.824 258.027 171.758C259.534 171.142 260.559 171.186 261.935 171.948C275.506 179.304 289.077 186.63 302.648 193.971C318.957 202.792 335.837 211.906 352.409 220.903C365.555 228.039 381.22 236.069 397.777 241.622C405.726 244.289 415.037 246.956 424.729 244.743C425.358 244.597 427.51 244.025 428.506 242.692C429.618 241.212 428.638 239.542 427.671 238.237L427.73 238.193ZM182.983 228.889C182.354 224.024 182.266 219.042 182.178 214.222C182.061 207.203 181.929 199.964 180.114 192.96C181.959 192.741 182.954 192.667 183.423 193.063C183.906 193.488 183.95 194.528 183.979 196.506C184.111 203.73 184.228 210.939 184.36 218.251L184.535 228.186C183.979 228.391 183.467 228.625 182.969 228.874L182.983 228.889ZM181.505 247.22C181.183 246.663 181.505 245.857 181.739 245.271V245.227C182.266 243.981 183.042 242.78 184.037 241.769C185.048 240.728 186.189 239.923 187.449 239.366C187.946 239.146 188.576 238.911 189.176 238.911C189.337 238.911 189.498 238.926 189.644 238.97C190.128 239.087 190.581 239.483 190.537 240.069C190.523 240.23 190.537 240.391 190.625 240.538C190.172 241.124 189.674 241.71 189.147 242.296C187.58 244.069 186.204 245.359 184.784 246.384C184.067 246.897 183.262 247.381 182.456 247.791C182.193 247.776 181.754 247.674 181.505 247.249V247.22ZM181.344 241.959C180.568 243.044 179.616 244.699 179.455 246.355C179.367 247.19 179.646 248.025 180.202 248.67C178.226 249.256 175.561 249.476 173.599 247.542C170.452 244.45 173.409 239.908 176.439 236.655C178.621 234.311 181.973 231.043 185.794 229.812L186.058 229.739C186.058 229.739 186.116 229.71 186.131 229.695C186.834 229.49 187.419 229.373 187.99 229.329C189.381 229.255 191.811 229.504 192.865 231.761C193.612 233.343 193.524 235.365 192.646 237.314C192.485 237.681 192.28 238.047 192.045 238.443C191.474 237.563 190.391 236.977 189.235 236.948C187.888 236.948 186.365 237.505 184.652 238.677C183.364 239.571 182.237 240.67 181.329 241.959H181.344ZM1.91958 3.14824C2.53445 2.47421 3.60313 1.96138 4.51079 1.90277C4.71575 1.90277 4.92068 1.8881 5.12563 1.8881C6.25289 1.8881 7.468 2.07859 8.56597 2.44491C14.4219 4.33512 20.3363 6.35721 26.0604 8.30603L27.7001 8.86284C28.1685 9.02402 28.6224 9.25844 29.208 9.5515C29.369 9.63942 29.5593 9.72734 29.7496 9.82991C29.1201 9.91782 28.5053 10.0057 27.8904 10.079C22.6787 10.7677 17.7451 11.4271 13.5581 15.4126C12.6944 14.6067 11.8453 13.8008 10.9815 13.0096C8.27317 10.4893 5.49165 7.86645 2.81258 5.2436C2.22699 4.67214 1.80243 3.35339 1.93419 3.16291L1.91958 3.14824ZM327.375 157.779C326.745 159.552 325.164 160.519 323.51 160.123C321.812 159.728 321.534 158.585 321.68 156.768C322.295 156.812 322.895 157.164 323.481 157.486C324.622 158.131 325.808 158.805 326.906 157.09C327.36 156.387 327.507 155.786 327.36 155.259C327.141 154.453 326.321 153.969 325.516 153.5C325.12 153.266 324.725 153.032 324.418 152.768C325.955 152.416 326.892 152.592 327.272 153.31C327.916 154.482 327.96 156.153 327.389 157.779H327.375ZM325.794 155.625C325.882 155.874 325.808 156.343 325.662 156.49C325.472 156.665 324.945 156.739 324.798 156.636C323.422 155.698 322.075 154.717 320.509 153.588C320.113 153.31 319.718 153.002 319.294 152.709C321.665 152.782 325.442 154.673 325.794 155.625ZM182.134 190.675C181.022 190.601 179.924 190.543 178.826 190.469C175.4 190.25 171.974 190.001 168.783 189.766C167.114 189.649 165.43 189.517 163.761 189.4C163.322 189.37 162.883 189.326 162.429 189.297L161.683 189.239C161.229 189.209 160.775 189.077 160.336 188.96C160.321 188.96 160.292 188.96 160.277 188.945C161.419 188.638 162.59 188.359 163.718 188.096C164.362 187.949 165.006 187.803 165.65 187.641C167.919 187.085 169.837 186.63 171.784 186.308C173.687 185.986 175.649 185.781 177.552 185.59C179.763 185.356 182.061 185.121 184.272 184.696C187.756 184.022 191.123 182.777 193.656 181.766C194.549 181.414 195.295 180.403 195.442 179.377C195.559 178.601 195.31 177.927 194.754 177.487C193.89 176.798 192.646 176.798 191.562 176.784C191.269 176.784 190.991 176.784 190.728 176.769C188.019 176.608 185.531 176.608 183.115 176.74C169.53 177.516 155.739 176.3 140.953 173.018C139.05 172.593 137.249 171.831 135.346 171.01C134.541 170.673 133.721 170.307 132.886 169.985L136.341 161.618C141.992 164.168 148.141 164.68 154.085 165.164C156.383 165.355 158.755 165.545 161.068 165.853C172.897 167.435 183.569 167.772 193.67 166.893C201.766 166.19 210.418 165.34 221.705 164.168C225.805 163.743 229.948 163.245 233.973 162.776C236.521 162.483 239.053 162.175 241.601 161.882C242.172 161.823 242.948 161.735 243.431 161.984C247.12 163.919 250.794 165.882 254.674 167.977L257.836 169.677C256.46 170.205 255.142 170.717 253.869 171.201C251.146 172.241 248.584 173.238 246.037 174.234C242.889 175.465 239.698 176.784 236.609 178.044C229.801 180.843 222.759 183.744 215.659 186.015C204.065 189.737 192.792 191.29 182.149 190.66L182.134 190.675ZM127.367 149.72C129.007 148.65 130.632 147.566 132.271 146.496C138.142 142.628 144.217 138.613 150.278 134.818C152.123 133.661 153.967 133.089 155.739 133.089C157.745 133.089 159.633 133.836 161.243 135.316C164.201 138.027 165.913 143.493 163.747 147.332C162.839 148.943 160.731 150.511 158.74 151.053C153.66 152.475 148.331 153.442 143.354 154.277C139.064 154.995 134.687 155.581 130.441 156.153C128.582 156.402 126.738 156.651 124.878 156.915C124.835 156.871 124.776 156.812 124.761 156.724C123.883 153.774 124.752 151.434 127.367 149.705V149.72ZM113.738 165.735C116.343 166.688 118.935 166.541 121.014 165.325C122.097 164.695 123.019 163.787 123.619 162.746C123.927 162.204 124.117 161.618 124.264 161.12L124.322 161.003C124.395 160.841 124.469 160.68 124.556 160.519C124.908 159.83 125.42 159.2 126.093 158.658C126.562 160.695 126.445 162.263 125.713 163.288C125.142 164.094 124.205 164.578 122.917 164.71C122.844 164.71 122.785 164.768 122.756 164.827C122.726 164.9 122.756 164.974 122.785 165.018C123.649 165.97 124.512 166.41 125.303 166.263C126.02 166.131 126.606 165.53 127.016 164.519C127.645 162.937 128.216 161.222 128.714 159.435C128.86 158.937 129.153 158.556 129.592 158.321C130.383 157.896 131.642 157.896 133.267 158.321L130.441 158.937C130.368 158.951 130.31 159.01 130.295 159.098L130.222 159.655C130.222 159.742 130.266 159.83 130.354 159.86L133.033 160.578C133.618 167.025 130.28 171.538 124.117 172.666C118.613 173.677 115.568 171.67 113.664 165.735H113.708H113.738ZM111.6 155.552C111.893 154.468 112.347 153.471 112.947 152.592C113.928 151.141 114.982 150.248 116.065 149.969C117.193 149.676 118.715 149.969 119.945 150.687C120.677 151.127 121.233 151.727 121.614 152.46L121.775 152.87C122.478 154.687 123.195 156.578 123.239 158.438C122.961 158.981 122.77 159.552 122.595 160.109C122.463 160.504 122.331 160.929 122.17 161.325C121.804 162.19 121.131 162.966 120.296 163.494C118.832 164.446 116.958 164.68 115.07 164.153C112.186 162.746 111.088 160.021 111.6 155.566V155.552ZM156.866 110.084C156.544 106.245 157.627 104.897 161.331 104.545C164.64 104.238 168.036 104.135 171.316 104.033C172.589 103.989 173.848 103.945 175.122 103.901C175.59 103.871 175.971 103.945 176.191 104.091C178.167 105.425 180.158 106.817 182.076 108.15L183.364 109.044C182.837 109.044 182.295 109.059 181.768 109.044C178.826 109.044 175.751 109.029 173.146 111.139C171.374 112.575 169.705 112.663 167.7 111.403C166.294 110.524 164.757 109.777 163.293 109.059L162.883 108.853C161.888 108.37 160.848 107.916 159.853 107.476C159.413 107.286 158.96 107.08 158.52 106.89C158.418 106.846 158.316 106.89 158.272 106.978L157.891 107.769C157.847 107.857 157.891 107.974 157.964 108.018C158.96 108.546 159.955 109.088 160.951 109.615C163.586 111.037 166.309 112.517 169.061 113.821C169.442 113.997 169.925 114.084 170.423 114.084C171.198 114.084 172.018 113.879 172.516 113.513C175.18 111.55 178.24 110.626 182.12 110.626C182.222 110.626 182.31 110.626 182.412 110.626C182.822 110.626 183.174 110.201 183.54 109.762C183.642 109.63 183.759 109.513 183.862 109.396H183.935C183.935 109.396 183.95 109.396 183.964 109.396L189.293 112.209L186.38 113.22C184.081 114.011 181.9 114.758 179.733 115.52C174.375 117.381 169.325 120.253 164.713 124.048C164.288 124.4 163.366 124.561 162.81 124.371C160.555 123.623 158.374 122.818 156.061 121.953C155.358 121.689 154.656 121.425 153.953 121.176C157.042 117.777 157.115 113.469 156.837 110.084H156.866ZM169.471 125.66C170.95 124.766 172.355 123.931 173.834 123.374C180.026 121.03 186.394 118.847 192.543 116.737L193.348 116.458C195.003 115.887 196.642 116.268 198.194 117.586C197.462 117.865 196.715 118.143 195.969 118.436C193.905 119.213 191.782 120.019 189.703 120.883C188.986 121.176 188.532 121.689 188.488 122.261C188.429 122.803 188.737 123.33 189.322 123.711C193.187 126.29 197.184 128.81 201.034 131.257C202.044 131.888 203.04 132.532 204.05 133.162C204.182 133.236 204.328 133.192 204.548 133.089C204.65 133.045 204.797 132.987 204.972 132.928C205.045 132.899 205.089 132.84 205.104 132.767C205.104 132.693 205.075 132.62 205.016 132.591L190.537 123.301C190.464 123.257 190.362 123.198 190.274 123.14C189.981 122.979 189.644 122.788 189.571 122.524C189.542 122.437 189.557 122.363 189.571 122.29C189.659 122.129 189.981 122.041 190.23 121.968C190.318 121.938 190.406 121.924 190.479 121.894L191.401 121.572C192.602 121.162 193.861 120.722 195.105 120.356C196.569 119.916 198.165 119.506 200.273 119.037C200.551 118.964 200.961 119.125 201.254 119.286C205.69 121.763 210.096 124.239 214.883 126.92L218.002 128.664C217.709 128.84 217.445 129.016 217.211 129.162C216.625 129.543 216.172 129.836 215.688 130.012C214.517 130.466 213.317 130.877 212.146 131.287C210.418 131.902 208.618 132.518 206.905 133.25C203.464 134.701 201.883 137.778 202.659 141.485C203.172 143.888 205.602 145.28 208.735 144.943C209.32 144.885 209.92 144.987 210.55 145.09C210.77 145.119 210.989 145.163 211.209 145.192C211.136 145.515 211.106 145.852 211.062 146.174C211.018 146.57 210.975 146.936 210.887 147.302C210.726 147.903 210.301 148.518 209.92 149.075C209.833 149.207 209.745 149.339 209.657 149.456C208.676 150.936 207.549 152.284 206.275 153.5C205.836 153.911 204.928 154.775 204.094 154.892C203.464 154.98 202.674 154.731 201.971 154.526C201.737 154.453 201.517 154.38 201.298 154.336C200.683 154.174 200.068 153.984 199.468 153.793C198.78 153.574 198.062 153.354 197.345 153.193C194.3 152.445 191.489 150.614 189.835 148.269C189.396 147.639 188.956 147.009 188.517 146.394C185.955 142.716 183.525 139.243 180.246 136.093C178.357 134.276 176.293 132.547 174.112 130.979C173.028 130.188 171.887 129.426 170.715 128.693C170.642 128.649 170.481 128.532 170.262 128.386C168.871 127.433 168.109 126.95 167.656 126.744C168.3 126.378 168.929 125.997 169.515 125.645L169.471 125.66ZM173.541 120.18C177.508 118.099 181.534 116.517 185.487 115.462C186.936 115.081 188.664 114.671 190.435 114.583C191.313 114.539 192.28 114.524 193.012 114.876C183.554 116.971 175.254 120.312 167.641 125.103C167.319 125.308 166.938 125.47 166.572 125.631C166.367 125.719 166.162 125.807 165.972 125.909C165.87 125.821 165.752 125.733 165.635 125.631C167.553 123.711 169.998 122.012 173.541 120.165V120.18ZM221.515 156.226C219.056 157.046 215.059 157.31 211.838 155.376L216.347 147.185L221.632 148.973L224.765 153.881C224.355 154.819 223.169 155.669 221.515 156.226ZM183.876 144.181C184.447 144.958 184.96 145.822 185.472 146.643C186.482 148.299 187.522 149.998 188.971 151.185C191.65 153.369 194.988 155.2 198.37 156.343L198.516 156.387C201.503 157.398 205.221 158.644 207.768 154.365C208.354 153.383 209.13 152.533 209.95 151.625C211.487 149.94 213.083 148.181 213.331 145.456C213.434 145.5 213.536 145.544 213.624 145.573C213.902 145.691 214.093 145.764 214.268 145.866C214.444 145.969 214.605 146.086 214.81 146.218C214.854 146.247 214.913 146.291 214.957 146.321C214.561 146.995 214.166 147.669 213.785 148.328C212.819 149.954 211.911 151.478 211.106 153.105L211.077 153.163C210.682 153.94 210.096 155.127 210.491 156.065C210.813 156.827 211.633 157.12 212.365 157.369C212.512 157.413 212.643 157.471 212.775 157.515C215.674 158.629 219.187 158.775 222.423 157.911C223.667 157.589 224.575 157.076 225.263 156.328C225.439 156.138 226.771 154.013 226.917 153.09L228.132 153.676C227.634 155.391 227.473 156.372 227.927 156.929C228.396 157.501 229.435 157.53 231.177 157.354C234.193 157.09 236.711 157.823 239.244 159.772C238.16 159.948 237.092 160.138 236.052 160.314C233.564 160.754 231.207 161.164 228.82 161.398C225.277 161.721 221.691 162.087 218.207 162.439C201.444 164.124 184.096 165.853 166.924 164.519C160.072 163.977 153.133 162.995 146.428 162.028C144.027 161.691 141.626 161.34 139.225 161.017C138.259 160.885 137.073 160.46 136.576 159.801C136.253 159.376 136.18 158.893 136.371 158.438C136.663 157.72 137.512 157.134 138.537 156.958C139.723 156.753 140.894 156.548 142.08 156.358C147.38 155.449 152.855 154.511 158.213 153.427C162.093 152.636 164.874 150.248 166.045 146.716C167.392 142.613 166.265 137.734 163.176 134.291C161.404 132.327 158.696 131.301 155.812 131.301C153.938 131.301 151.977 131.741 150.147 132.635C145.506 134.921 141.304 137.954 137.22 140.899C136.429 141.471 135.639 142.042 134.833 142.613C134.423 142.906 134.014 143.185 133.589 143.463L133.091 143.8L132.491 143.39C128.421 140.577 124.205 137.675 118.744 140.328C115.084 142.086 112.332 146.071 112.039 149.998C112.039 150.086 112.098 150.174 112.186 150.189C112.274 150.218 112.361 150.16 112.405 150.086C114.499 145.075 116.914 141.661 121.892 141.295C125.142 141.06 128.055 142.262 131.056 145.119C130.676 145.705 130.295 146.013 129.9 146.101C129.475 146.203 128.963 146.042 128.246 145.588C126.738 144.621 125.098 144.357 123.605 144.841C121.907 145.397 120.779 147.039 120.369 147.727C120.325 147.801 120.34 147.903 120.413 147.962C120.486 148.02 120.589 148.02 120.662 147.962C121.38 147.332 122.17 146.789 123.019 146.379C122.712 146.921 122.492 147.507 122.346 148.123C122.331 148.211 122.375 148.299 122.448 148.328C122.521 148.372 122.624 148.328 122.682 148.269C123.737 146.745 125.786 146.013 127.572 146.54C127.967 146.658 128.612 146.98 128.729 147.302C128.758 147.39 128.743 147.478 128.685 147.566C128.597 147.698 128.202 147.83 127.953 147.932C127.836 147.976 127.719 148.02 127.631 148.05L126.298 148.65C126.211 148.694 125.903 148.826 125.479 149.002C124.659 149.354 123.4 149.91 122.463 150.321C120.867 148.533 118.349 147.61 116.021 147.991C114.499 148.225 113.05 149.236 111.717 150.98C110.634 152.401 109.873 154.101 109.521 155.874C108.994 152.548 109.565 149.163 111.19 146.057C113.738 141.177 116.944 137.236 120.706 134.349C126.05 130.261 132.125 128.591 138.552 126.832C139.665 126.525 140.777 126.217 141.89 125.909C144.51 125.162 147.482 124.312 150.395 123.594C151.859 123.242 153.719 123.301 155.373 123.77C166.836 127.052 176.425 133.91 183.876 144.152V144.181ZM111.498 165.794C113.006 170.146 115.333 172.886 118.408 173.956C122.068 175.23 126.621 174.102 131.935 170.6C136.649 174.82 142.622 175.641 148.39 176.447C149.166 176.549 149.942 176.666 150.717 176.784C164.757 178.879 176.205 179.377 186.731 178.352L187.214 178.308C188.634 178.161 190.391 177.971 191.635 178.615C191.958 178.776 192.133 178.938 192.133 179.084C192.133 179.348 191.606 179.714 191.167 179.993L190.991 180.11C190.157 180.667 189.264 181.092 188.312 181.385C184.652 182.513 180.744 183.011 176.966 183.509C174.814 183.788 172.589 184.066 170.423 184.476C167.817 184.96 165.255 185.824 162.781 186.66C161.507 187.085 160.189 187.524 158.901 187.905C158.755 187.949 158.594 187.993 158.447 188.037C157.525 188.315 156.573 188.608 155.739 188.477C154.348 188.242 152.972 188.008 151.596 187.773C149.327 187.378 147.058 186.967 144.803 186.557C141.802 186.015 138.698 185.458 135.653 184.945C129.402 183.89 124.029 181.531 119.696 177.927C116.168 174.996 112.874 172.007 111.22 167.611C111.059 167.186 111.161 166.6 111.512 165.809L111.498 165.794ZM221.896 148.636C219.685 146.423 216.977 144.811 214.605 143.537C214.078 143.258 213.551 142.965 213.024 142.657C211.209 141.646 209.335 140.591 207.388 139.917C207.315 139.888 207.241 139.873 207.168 139.844C207.007 139.8 206.861 139.741 206.714 139.683C206.422 139.551 206.143 139.346 205.909 139.155C205.836 139.097 205.719 139.111 205.66 139.185C205.602 139.258 205.602 139.375 205.66 139.434C206.041 139.815 206.407 140.181 206.773 140.562C207.593 141.397 208.369 142.188 209.232 142.965C207.388 143.463 205.982 143.361 205.163 142.643C204.313 141.895 204.05 140.518 204.372 138.54C204.753 136.225 206.363 134.51 208.764 133.836C211.311 133.118 214.078 132.225 217.46 130.994C218.485 130.627 219.129 129.953 219.261 129.133C219.378 128.327 218.968 127.492 218.119 126.847C216.743 125.777 215.205 124.898 213.712 124.034C213.361 123.829 213.009 123.623 212.658 123.418C206.114 119.565 199.57 115.711 193.012 111.872C189.176 109.615 185.355 107.373 181.519 105.117C181.168 104.912 180.831 104.677 180.348 104.37C180.275 104.311 180.187 104.267 180.099 104.208L195.105 106.831C195.193 106.831 195.295 106.787 195.325 106.685L195.53 105.688C195.544 105.586 195.486 105.498 195.383 105.469C194.373 105.234 193.363 104.985 192.367 104.736C190.186 104.194 187.932 103.637 185.692 103.256C175.517 101.512 167.304 101.527 159.838 103.285C158.477 103.608 157.291 104.516 156.017 105.483C155.446 105.908 154.875 106.348 154.26 106.758C147.467 102.392 140.616 97.981 133.721 93.5705C117.603 83.211 100.928 72.5145 84.4582 61.8766C77.7239 57.5247 70.7847 53.2021 64.0944 49.0114C47.5661 38.6959 30.4816 28.0287 14.3048 15.7643C15.0367 15.4712 15.7102 15.1782 16.3543 14.8851C17.8768 14.2258 19.1944 13.6396 20.5852 13.3173C24.3183 12.4528 27.1731 12.0132 29.8228 11.9253C32.0774 11.852 34.654 12.1744 37.4648 12.8924C51.1675 16.3944 63.2014 23.7794 74.8253 30.9299C78.573 33.2304 82.4379 35.6041 86.3175 37.8314C108.131 50.3009 130.178 63.1953 151.523 75.6502C162.107 81.8337 173.058 88.2369 183.847 94.4937C188.693 97.307 193.656 100.091 198.458 102.787C200.888 104.15 203.318 105.513 205.748 106.89C205.997 107.036 206.246 107.198 206.612 107.447C206.656 107.476 206.7 107.505 206.744 107.535L203.259 106.934C203.157 106.919 203.084 106.978 203.054 107.066C203.025 107.154 203.054 107.256 203.142 107.286L234.823 123.257C234.896 123.301 234.998 123.272 235.042 123.213L235.247 122.979C235.247 122.979 235.291 122.891 235.291 122.847C235.291 122.803 235.262 122.759 235.218 122.715C233.695 121.469 232.187 120.239 230.665 118.993L230.753 118.759C231.734 118.935 232.729 119.125 233.695 119.33C235.95 119.784 238.292 120.268 240.605 120.356C245.349 120.546 250.311 122.099 255.757 125.118L256.079 125.294C258.173 126.451 260.325 127.638 262.082 129.265C265.083 132.063 268.055 135.565 267.308 140.401C267.264 140.665 267.132 140.928 266.942 141.251C266.869 141.368 266.81 141.5 266.737 141.646C265.991 141.221 265.244 140.782 264.512 140.357C262.448 139.155 260.501 138.012 258.451 136.943C257.807 136.606 257.06 136.489 256.328 136.386C256.006 136.342 255.67 136.283 255.362 136.225C255.289 136.21 255.201 136.239 255.157 136.313C255.113 136.386 255.128 136.474 255.172 136.533C255.377 136.782 255.582 137.06 255.772 137.324C256.197 137.925 256.636 138.54 257.251 138.892C281.406 152.9 305.986 167.098 329.746 180.828L350.857 193.019C370.474 204.36 390.106 215.687 409.708 227.028C410.47 227.468 411.216 227.951 412.139 228.552C412.505 228.786 412.9 229.036 413.324 229.314C412.241 229.431 411.202 229.548 410.221 229.651C407.835 229.915 405.595 230.164 403.428 230.457C400.851 230.457 397.894 231.746 396.357 232.508C394.527 233.417 392.595 234.838 390.618 236.699C390.589 236.728 390.53 236.772 390.516 236.787C390.501 236.787 390.443 236.787 390.399 236.772C389.916 236.64 389.535 236.464 389.096 236.245L388.891 236.157C386.256 234.911 383.577 233.666 380.971 232.464C374.749 229.592 368.307 226.618 362.173 223.35C338.457 210.676 314.404 197.664 291.156 185.077C282.182 180.227 273.208 175.362 264.234 170.512C261.262 168.915 258.29 167.303 255.318 165.692C246.198 160.754 236.755 155.654 227.444 150.687C226.229 150.042 224.868 149.603 223.55 149.193C222.979 149.017 222.393 148.826 221.823 148.636H221.896ZM290.746 126.671C290.131 126.979 289.824 127.433 289.926 127.873C290.029 128.312 290.468 128.517 290.849 128.649C294.026 129.763 297.305 130.246 301.492 130.173H301.55C302.502 130.173 303.175 130.466 303.6 131.067C305.064 133.074 303.395 137.998 302.604 140.357C302.517 140.635 302.429 140.884 302.355 141.104L302.209 141.544C301.711 143.097 301.199 144.694 300.408 146.115C298.564 149.368 295.314 150.291 292.152 150.951C291.229 151.141 290.278 151.302 289.355 151.449C288.214 151.639 287.042 151.83 285.9 152.094C285.491 152.196 284.876 152.079 284.407 151.815C279.898 149.266 275.345 146.628 270.924 144.079L269.607 143.317C269.299 143.141 268.992 142.936 268.626 142.672C268.45 142.555 268.274 142.423 268.055 142.291C270.485 138.701 268.992 135.565 267.25 132.679C264.629 128.327 261.042 125.279 256.255 123.316C255.611 123.052 254.981 122.715 254.249 122.334C254.147 122.29 254.059 122.231 253.957 122.173C253.986 122.173 254.015 122.173 254.044 122.173C254.22 122.173 254.396 122.173 254.528 122.187L290.629 126.026C290.849 126.056 291.083 126.056 291.317 126.07C291.581 126.085 291.859 126.1 292.122 126.129C291.654 126.261 291.2 126.437 290.761 126.657L290.746 126.671ZM320.787 112.971C324.169 109.615 327.463 105.762 331.459 100.487C332.704 98.8455 333.919 97.1898 334.841 95.9296C335.412 95.1531 335.968 94.3765 336.539 93.5999C336.598 93.5266 336.656 93.4387 336.715 93.3508C336.949 93.0137 337.227 92.6035 337.52 92.457C337.564 92.4423 337.623 92.413 337.681 92.413C337.798 92.413 337.959 92.4863 338.15 92.7354C338.355 93.0138 338.384 93.4093 338.252 93.9808C338.003 95.0212 337.388 95.9443 336.803 96.8381C336.583 97.1751 336.364 97.4975 336.159 97.8345C335.295 99.2558 334.446 100.692 333.567 102.113C332.279 104.238 330.976 106.348 329.673 108.458L327.389 112.165C327.053 112.722 326.657 113.264 326.277 113.791C325.721 114.553 325.164 115.345 324.725 116.209C323.949 117.718 323.159 118.949 322.236 120.077C320.728 121.924 318.913 122.656 316.146 122.48C314.258 122.378 312.34 122.51 310.32 122.671C309.631 122.715 308.929 122.774 308.197 122.818C312.574 120.239 316.805 116.942 320.802 112.971H320.787ZM305.225 124.561C307.948 124.21 310.773 124.151 313.496 124.092C315.473 124.048 317.522 124.004 319.528 123.843C320.611 123.755 322.046 122.891 322.705 121.894C327.302 115.052 331.869 108.033 336.29 101.234L338.852 97.307C339.657 96.0615 340.58 94.6695 340.258 93.3215C340.067 92.5449 339.496 91.8562 338.501 91.2408C342.161 86.801 345.44 84.0023 349.129 82.1853C350.476 81.526 351.457 81.3648 352.218 81.6725C352.994 81.9949 353.609 82.8594 354.136 84.3833C356.23 90.3909 355.351 96.4425 354.107 102.098C353.463 105.014 352.789 107.93 352.145 110.773C351.852 112.033 351.574 113.264 351.296 114.495C349.642 114.451 348.002 114.407 346.377 114.377C341.941 114.275 337.74 114.172 333.48 113.997C331.693 113.938 330.566 114.568 329.776 116.136C328.912 117.85 327.99 119.521 326.936 121.44C326.467 122.275 325.984 123.169 325.472 124.107C325.442 124.166 325.442 124.239 325.472 124.297C325.501 124.356 325.559 124.385 325.633 124.385H347.783L346.465 129.338L316.922 130.32C316.834 130.32 316.761 130.393 316.746 130.481C316.746 130.569 316.79 130.657 316.878 130.686C324.945 133.045 332.865 132.019 340.521 131.023C342.322 130.789 344.181 130.554 346.011 130.349C346.187 130.92 346.187 131.316 346.011 131.565C345.821 131.814 345.396 131.946 344.694 131.946C344.65 131.946 344.606 131.946 344.562 131.946C341.692 131.888 338.706 131.902 335.412 131.975C333.948 132.019 332.162 132.635 331.049 133.221C330.962 133.265 330.918 133.382 330.976 133.47C331.02 133.558 331.137 133.602 331.225 133.543C331.694 133.294 332.674 133.338 333.465 133.367C333.772 133.367 334.05 133.397 334.27 133.382C335.353 133.353 336.393 133.411 337.183 133.455C337.871 133.499 338.545 133.514 339.218 133.529C340.492 133.558 341.81 133.602 343.098 133.807C346.655 134.349 350.344 135.521 354.692 137.47C357.24 138.613 359.758 139.8 362.144 141.002C366.346 143.126 370.357 145.368 374.046 147.683C375.979 148.899 377.896 150.174 379.726 151.478C380.707 152.182 381.615 152.841 382.493 153.5C382.625 153.603 383.957 154.775 384.47 155.259C381.673 156.109 378.848 157.046 376.096 158.043C374.617 158.57 373.3 159.083 372.099 159.948C371.923 160.065 371.762 160.182 371.587 160.211C371.455 160.226 371.294 160.211 371.133 160.167C368.776 159.625 366.463 158.673 364.325 157.706C356.786 154.321 349.071 150.98 341.605 147.757C337.476 145.969 333.201 144.137 329.014 142.291C327.507 141.632 326.013 140.928 324.901 140.386C324.564 140.225 324.213 140.078 323.817 139.917C322.807 139.507 321.768 139.082 321.109 138.393C320.831 138.1 320.67 137.749 320.699 137.426C320.758 136.576 322.119 135.712 323.071 135.36C324.842 134.701 326.745 134.012 328.722 133.397C328.809 133.368 328.853 133.294 328.853 133.206C328.853 133.118 328.78 133.045 328.692 133.045C328.356 133.001 328.019 132.987 327.668 132.987C326.862 132.987 325.969 133.089 324.915 133.294C323.451 133.587 322.309 133.954 321.358 134.437C320.933 134.657 318.781 135.829 318.445 137.089C318.108 138.379 319.879 139.595 320.597 139.947C322.778 141.046 324.945 142.159 327.228 143.331C328.165 143.815 329.102 144.298 330.083 144.811C328.268 146.936 325.94 148.401 323.188 149.163C313.775 151.742 304.054 154.262 294.289 156.68C293.63 156.841 292.796 156.548 291.991 156.255C291.654 156.138 291.303 156.006 290.966 155.918V155.493C291.244 155.435 291.522 155.376 291.786 155.317C292.503 155.171 293.235 155.01 293.952 154.834C296.485 154.204 299.032 153.574 301.565 152.958C306.059 151.845 310.539 150.731 315.034 149.632C315.912 149.412 316.82 149.236 317.683 149.061C318.869 148.826 320.099 148.577 321.285 148.24C323.144 147.727 324.125 146.833 324.139 145.661C324.139 145.603 324.11 145.544 324.066 145.515C324.022 145.485 323.964 145.471 323.905 145.485L318.928 146.702C308.987 149.134 298.725 151.654 288.609 154.087C288.418 154.116 288.126 153.94 287.73 153.706C287.569 153.618 287.394 153.5 287.203 153.383C288.126 153.178 289.004 152.988 289.853 152.812C292.02 152.343 294.069 151.889 296.09 151.493C297.363 151.244 299.076 150.555 300.057 149.573C300.73 148.899 301.214 148.079 301.653 147.288C303.205 144.504 304.493 141.544 305.518 138.511C306.015 137.016 306.22 135.902 306.235 134.525C306.235 133.236 306.089 131.888 305.708 130.29C306.894 130.422 310.466 130.085 310.685 130.027C310.773 130.012 310.832 129.924 310.817 129.836C310.817 129.748 310.759 129.675 310.671 129.66C308.636 129.191 306.499 128.972 304.449 128.737C303.746 128.664 303.044 128.591 302.355 128.503L293.762 127.462L293.689 127.331C294.816 127.037 295.958 126.715 297.071 126.407C299.735 125.66 302.502 124.869 305.269 124.517L305.225 124.561ZM331.723 122.554H328.063C328.297 122.099 328.531 121.631 328.766 121.162C329.498 119.726 330.244 118.231 331.108 116.839C331.445 116.312 332.426 115.901 333.07 115.887C337.505 115.828 341.956 115.828 346.67 115.843C348.061 115.843 349.466 115.843 350.901 115.843C350.696 116.414 350.505 116.956 350.315 117.484C349.715 119.184 349.188 120.649 348.558 122.085C348.456 122.305 347.724 122.524 347.036 122.524C341.941 122.554 336.759 122.554 331.723 122.554ZM313.496 117.074C311.857 118.143 310.305 119.154 308.636 119.931C305.898 121.191 302.97 122.187 300.145 123.154L298.71 123.653C298.051 123.887 297.041 123.916 296.675 123.609C290.38 118.466 284.041 113.161 277.907 108.033L275.594 106.099C275.375 105.908 275.17 105.688 274.877 105.351C274.745 105.19 274.584 105.014 274.394 104.809H274.423C280.133 103.153 285.535 101.6 290.6 103.696C296.47 106.128 302.107 108.985 308.065 112.004C310.495 113.235 313.013 114.509 315.575 115.77C314.872 116.209 314.184 116.663 313.511 117.088L313.496 117.074ZM111.307 163.64L94.7645 173.12C94.2522 173.414 93.7105 173.707 93.1835 174C92.0709 174.6 90.929 175.231 89.8895 175.934C88.7037 176.725 87.6058 176.857 86.1857 177.033L85.7319 177.091C84.7071 177.223 83.8287 177.326 82.8625 176.798C81.823 176.227 81.6767 174.879 81.5449 173.707C81.5156 173.501 81.501 173.311 81.4717 173.12C81.2082 171.216 81.3107 169.589 81.7791 168.109C83.0674 164.05 87.3861 163.098 91.1925 162.248C91.8659 162.102 92.5247 161.955 93.1396 161.794C96.5945 160.915 100.123 160.065 103.519 159.244C105.481 158.761 107.443 158.292 109.404 157.808L111.263 163.64H111.307ZM396.606 234.472C399.373 232.904 402.564 232.362 405.038 232.069C408.903 231.614 412.109 231.395 415.125 231.38C417.043 231.38 419.166 232.919 419.986 233.578C421.83 235.058 423.499 236.758 424.743 238.076L424.934 238.281C425.666 239.058 426.427 239.849 426.398 240.684C426.398 241.124 426.163 241.549 425.695 241.989C425.534 242.135 425.344 242.282 425.139 242.399C424.729 242.633 424.231 242.809 423.631 242.912C419.927 243.615 415.476 243.439 410.03 242.37C405.726 241.52 401.51 240.26 397.967 239.131C397.294 238.911 396.606 238.736 395.933 238.545C394.996 238.296 394.044 238.032 393.136 237.71C393.912 236.421 395.098 235.307 396.577 234.472H396.606ZM390.179 163.303C390.091 163.435 389.96 163.552 389.798 163.655C389.228 163.963 388.408 163.875 387.676 163.801C387.398 163.772 387.134 163.743 386.9 163.728L386.182 163.699C385.187 163.669 384.162 163.64 383.181 163.508C380.327 163.127 377.662 162.307 374.763 161.354C378.833 159.83 383.05 158.585 387.28 157.618C387.544 157.633 388.481 158.922 389.389 160.461L389.491 160.636C389.916 161.369 390.633 162.585 390.194 163.288L390.179 163.303ZM272.71 98.3766C273.34 97.9517 274.203 97.9078 275.257 98.2301C275.682 98.362 276.107 98.4792 276.531 98.5965C277.175 98.7723 277.849 98.9628 278.493 99.1826C279.503 99.5196 280.586 99.9005 281.772 100.355C282.314 100.56 282.855 100.78 283.397 101C283.529 101.058 283.69 101.131 283.866 101.219C283.909 101.249 283.968 101.263 284.012 101.293C280.718 101.337 277.043 101.718 273.632 104.003C273.53 103.871 273.413 103.725 273.31 103.593C273.032 103.241 272.769 102.904 272.534 102.553C272.066 101.835 271.832 101.19 271.788 100.472C271.744 99.5929 272.095 98.7723 272.71 98.3766ZM102.904 180.989C102.568 181.297 102.143 181.517 101.733 181.736C101.206 182.015 100.664 182.308 100.254 182.777C99.5517 183.568 99.3028 184.667 99.1418 185.531C99.01 186.293 98.8197 187.055 98.6441 187.788C98.483 188.462 98.3074 189.165 98.1756 189.854C97.3412 194.396 97.7657 195.129 102.816 197.063C101.118 199.085 99.4786 200.931 96.5213 200.8C94.0765 200.697 92.4954 199.437 91.2364 196.624C88.1913 189.81 90.4605 181.414 96.4042 177.516C97.3558 176.886 98.7172 176.417 99.9616 176.417C100.445 176.417 100.899 176.491 101.308 176.652C102.626 177.165 103.504 177.795 103.827 178.454C104.236 179.275 103.651 180.315 102.89 180.989H102.904ZM99.4785 191.568C99.5956 190.704 99.7859 189.81 99.9616 188.96C100.079 188.374 100.211 187.788 100.313 187.202C100.723 184.931 101.25 182.996 103.607 182.293C103.665 182.322 103.739 182.308 103.797 182.278C104.559 181.722 105.32 181.165 106.081 180.608C107.984 179.216 109.961 177.765 111.864 176.315L112.083 176.154C112.523 175.817 112.932 175.48 113.269 175.582C113.503 175.641 113.723 175.919 113.928 176.403C113.723 176.579 113.518 176.769 113.313 176.945C112.801 177.399 112.318 177.839 111.776 178.19C107.486 180.916 105.334 185.092 105.012 191.319C104.998 191.759 104.968 192.154 104.895 192.535C104.866 192.682 104.851 192.828 104.822 192.975C104.676 193.883 104.544 194.748 103.973 195.158C103.592 195.422 103.036 195.495 102.275 195.349C100.049 194.938 99.1858 193.766 99.4932 191.583L99.4785 191.568ZM145.74 189.195C144.174 192.301 146.238 193.678 148.243 195.012C148.522 195.188 148.8 195.378 149.078 195.569C146.531 195.818 144.876 195.51 143.808 194.587C142.592 193.532 141.992 191.568 141.875 188.228L145.755 189.195H145.74Z"/>
</mask>
<path d="M427.73 238.193C423.514 232.581 417.585 228.86 412.358 225.827C383.825 209.254 354.78 192.491 326.687 176.271C317.127 170.747 307.567 165.237 298.022 159.713C297.539 159.435 297.041 159.142 296.441 158.79L295.782 158.409L315.487 153.515C315.678 153.471 315.868 153.442 316.058 153.412C316.234 153.383 316.41 153.354 316.6 153.31C316.673 153.31 316.732 153.281 316.776 153.295C316.834 153.295 316.907 153.369 316.981 153.442L320.055 156.255V156.665C320.099 158.131 320.143 159.523 321.314 160.739C322.397 161.867 324.008 162.263 325.516 161.75C327.741 161.003 329.366 157.911 329.293 154.555C329.234 152.328 328.121 150.995 326.043 150.687L332.382 145.852C333.553 146.408 334.753 146.995 335.983 147.595C338.852 148.987 341.81 150.438 344.855 151.727C347.68 152.929 350.505 154.248 353.243 155.522C360.578 158.922 368.146 162.439 376.257 164.197C380.737 165.164 385.377 165.442 389.725 165.604C390.984 165.633 391.936 165.223 392.463 164.417C393.005 163.582 392.975 162.424 392.39 161.266C391.087 158.673 389.74 156.783 388.261 155.464C379.902 148.079 369.83 141.808 357.474 136.313C355.058 135.228 352.614 134.217 350.257 133.221C349.247 132.796 348.251 132.371 347.285 131.961C347.9 130.012 348.514 128.078 349.115 126.158C350.535 121.601 351.882 117.308 353.389 112.956C355.703 106.216 358.221 97.2191 357.093 87.4164C356.683 83.7972 355.527 81.4674 353.682 80.4856C351.896 79.5332 349.466 79.8702 346.48 81.4527C345.484 81.9802 344.533 82.5077 343.757 83.2403C343.112 83.8411 342.468 84.4272 341.81 85.0133C339.789 86.8449 337.71 88.7351 335.998 90.8744C333.714 93.761 331.518 96.7942 329.395 99.7247C327.477 102.377 325.501 105.117 323.451 107.74C322.046 109.542 320.377 111.139 318.781 112.678C318.108 113.322 317.478 113.923 316.863 114.539C315.824 113.997 314.829 113.484 313.848 112.971C311.754 111.872 309.778 110.846 307.772 109.864C306.411 109.205 305.035 108.531 303.673 107.857C298.842 105.483 293.835 103.022 288.814 100.838C284.964 99.1679 280.762 97.7466 275.96 96.4865C274.335 96.0615 271.671 96.6037 270.704 97.9517C270.309 98.4939 270.075 99.1825 270.031 99.8859C269.973 100.926 270.309 101.967 270.983 102.816C271.232 103.139 271.466 103.49 271.7 103.827C272.022 104.296 272.359 104.795 272.754 105.249C279.005 112.429 285.271 117.909 291.917 121.997C292.854 122.568 293.777 123.184 294.67 123.785C294.933 123.96 295.211 124.136 295.475 124.327C294.187 124.429 292.971 124.283 291.8 124.122C291.566 124.092 291.332 124.063 291.083 124.034C286.325 123.462 281.567 122.891 276.824 122.319C263.575 120.722 249.872 119.081 236.374 117.557C225.38 116.326 215.893 112.473 207.373 105.762C205.895 104.604 204.211 103.476 202.205 102.318C198.575 100.208 194.885 98.0983 191.299 96.0615C187.639 93.9662 183.847 91.8122 180.143 89.6583L174.712 86.5079C159.809 77.8628 144.393 68.9099 129.27 60.0303C120.911 55.1217 112.42 50.1104 104.222 45.2457C91.7048 37.846 78.7633 30.1973 65.9829 22.7683C61.0054 19.8817 55.413 17.1563 49.3229 14.68C41.3882 11.4417 32.7654 8.20345 21.3611 4.15929C20.351 3.80762 19.3262 3.41199 18.3307 3.03102C13.646 1.24338 8.80021 -0.602877 3.39816 0.188373C1.80243 0.422818 0.675201 1.05289 0.22137 1.97601C-0.144622 2.72331 -0.0567948 3.63178 0.484874 4.61352C1.91957 7.19241 3.51529 9.19984 5.24278 10.5625C7.51193 12.3648 9.81034 14.2258 12.0356 16.028C19.2822 21.8892 26.7924 27.9554 34.6686 33.1571C61.2982 50.7698 88.6744 68.2066 115.158 85.0719L118.861 87.431C124 90.6986 129.344 93.8343 134.511 96.8528C138.859 99.3877 143.354 102.025 147.687 104.721L148.185 105.029C151.947 107.359 155.856 109.762 155.065 115.33C154.787 117.308 152.138 121.25 150.893 121.528C149.956 121.733 149.019 121.953 148.068 122.158C141.948 123.521 135.624 124.913 129.636 127.096C128.992 127.331 128.333 127.58 127.689 127.858C118.159 131.902 111.044 139.522 108.175 148.768C107.618 150.541 107.369 152.358 107.091 154.277C106.974 155.098 106.857 155.933 106.711 156.768C106.564 156.797 106.432 156.827 106.286 156.841C105.861 156.915 105.408 157.002 104.968 157.105C102.904 157.633 100.825 158.189 98.7612 158.731C94.706 159.801 90.5044 160.9 86.3467 161.911C83.7848 162.527 81.6767 164.241 80.403 166.732C78.9537 169.604 78.7634 173.106 79.9199 175.905C80.403 177.062 81.662 178.278 82.9796 178.864C86.2882 180.315 89.055 178.703 91.7341 177.15L92.3637 176.784C96.1407 174.615 99.9909 172.461 103.724 170.366C105.305 169.472 106.886 168.593 108.467 167.699L112.069 174.322C110.019 175.861 108.057 177.326 106.052 178.85C105.129 176.579 103.285 174.996 100.957 174.527C98.3513 173.985 95.5844 174.879 93.7105 176.842C88.9526 181.839 87.4593 187.993 89.1722 195.627C89.7285 198.074 91.0461 200.052 92.9053 201.195C94.6035 202.236 96.6824 202.529 98.7466 202.001C101.718 201.239 106.491 195.481 106.725 192.374L106.784 191.583C106.93 189.576 107.077 187.495 107.369 185.487C107.486 184.711 107.926 183.846 108.482 183.333C110.312 181.634 112.303 180.066 114.162 178.586C114.718 178.146 115.465 177.853 115.626 177.956C116.592 178.571 117.573 179.231 118.613 179.934C122.448 182.542 126.796 185.487 131.349 186.059C133.179 186.279 135.024 186.616 136.81 186.923C137.864 187.114 138.933 187.29 139.987 187.466C139.987 187.832 139.987 188.14 139.987 188.433C139.987 188.989 139.987 189.414 139.987 189.839C140.118 194.909 141.26 196.287 146.077 197.21C147.101 197.4 150.044 197.679 150.483 196.799C151.288 195.217 150.117 194.47 149.092 193.81C148.697 193.561 148.302 193.297 148.009 193.004C147.658 192.653 147.453 192.023 147.394 191.598C147.321 191.041 147.541 190.425 147.965 190.044C148.273 189.766 148.58 189.795 149.005 189.839H149.136C150.337 189.957 151.537 190.088 152.723 190.22C153.177 190.264 153.645 190.323 154.099 190.367C156.661 190.645 159.208 190.924 161.77 191.217L164.098 191.48C167.187 191.832 170.832 192.228 174.507 192.609C178.416 193.019 178.928 193.224 179.206 197.224C179.646 203.408 180.026 209.708 180.378 215.804C180.641 220.244 180.919 224.83 181.212 229.343C181.212 229.519 181.227 229.71 181.212 229.915C179.236 231.189 177.23 232.918 175.107 235.16C170.218 240.347 168.988 244.89 171.564 248.289C173.058 250.253 175.195 251 177.42 251C179.309 251 181.271 250.458 182.954 249.681C183.057 249.652 183.144 249.608 183.218 249.549C183.686 249.33 184.111 249.095 184.506 248.861C186.394 247.703 188.268 246.091 190.215 243.937C191.738 242.252 193.436 240.274 194.432 237.959C195.486 235.512 195.515 232.918 194.505 230.852C193.436 228.684 191.152 227.409 188.327 227.409C188.18 227.409 188.034 227.409 187.902 227.409C187.346 227.453 186.76 227.556 186.146 227.717V193.004C186.38 192.96 186.804 192.887 187.229 192.858C197.623 192.345 209.862 191.158 221.779 186.205C228.689 183.333 235.76 180.549 242.611 177.868C247.676 175.875 252.903 173.824 258.027 171.758C259.534 171.142 260.559 171.186 261.935 171.948C275.506 179.304 289.077 186.63 302.648 193.971C318.957 202.792 335.837 211.906 352.409 220.903C365.555 228.039 381.22 236.069 397.777 241.622C405.726 244.289 415.037 246.956 424.729 244.743C425.358 244.597 427.51 244.025 428.506 242.692C429.618 241.212 428.638 239.542 427.671 238.237L427.73 238.193ZM182.983 228.889C182.354 224.024 182.266 219.042 182.178 214.222C182.061 207.203 181.929 199.964 180.114 192.96C181.959 192.741 182.954 192.667 183.423 193.063C183.906 193.488 183.95 194.528 183.979 196.506C184.111 203.73 184.228 210.939 184.36 218.251L184.535 228.186C183.979 228.391 183.467 228.625 182.969 228.874L182.983 228.889ZM181.505 247.22C181.183 246.663 181.505 245.857 181.739 245.271V245.227C182.266 243.981 183.042 242.78 184.037 241.769C185.048 240.728 186.189 239.923 187.449 239.366C187.946 239.146 188.576 238.911 189.176 238.911C189.337 238.911 189.498 238.926 189.644 238.97C190.128 239.087 190.581 239.483 190.537 240.069C190.523 240.23 190.537 240.391 190.625 240.538C190.172 241.124 189.674 241.71 189.147 242.296C187.58 244.069 186.204 245.359 184.784 246.384C184.067 246.897 183.262 247.381 182.456 247.791C182.193 247.776 181.754 247.674 181.505 247.249V247.22ZM181.344 241.959C180.568 243.044 179.616 244.699 179.455 246.355C179.367 247.19 179.646 248.025 180.202 248.67C178.226 249.256 175.561 249.476 173.599 247.542C170.452 244.45 173.409 239.908 176.439 236.655C178.621 234.311 181.973 231.043 185.794 229.812L186.058 229.739C186.058 229.739 186.116 229.71 186.131 229.695C186.834 229.49 187.419 229.373 187.99 229.329C189.381 229.255 191.811 229.504 192.865 231.761C193.612 233.343 193.524 235.365 192.646 237.314C192.485 237.681 192.28 238.047 192.045 238.443C191.474 237.563 190.391 236.977 189.235 236.948C187.888 236.948 186.365 237.505 184.652 238.677C183.364 239.571 182.237 240.67 181.329 241.959H181.344ZM1.91958 3.14824C2.53445 2.47421 3.60313 1.96138 4.51079 1.90277C4.71575 1.90277 4.92068 1.8881 5.12563 1.8881C6.25289 1.8881 7.468 2.07859 8.56597 2.44491C14.4219 4.33512 20.3363 6.35721 26.0604 8.30603L27.7001 8.86284C28.1685 9.02402 28.6224 9.25844 29.208 9.5515C29.369 9.63942 29.5593 9.72734 29.7496 9.82991C29.1201 9.91782 28.5053 10.0057 27.8904 10.079C22.6787 10.7677 17.7451 11.4271 13.5581 15.4126C12.6944 14.6067 11.8453 13.8008 10.9815 13.0096C8.27317 10.4893 5.49165 7.86645 2.81258 5.2436C2.22699 4.67214 1.80243 3.35339 1.93419 3.16291L1.91958 3.14824ZM327.375 157.779C326.745 159.552 325.164 160.519 323.51 160.123C321.812 159.728 321.534 158.585 321.68 156.768C322.295 156.812 322.895 157.164 323.481 157.486C324.622 158.131 325.808 158.805 326.906 157.09C327.36 156.387 327.507 155.786 327.36 155.259C327.141 154.453 326.321 153.969 325.516 153.5C325.12 153.266 324.725 153.032 324.418 152.768C325.955 152.416 326.892 152.592 327.272 153.31C327.916 154.482 327.96 156.153 327.389 157.779H327.375ZM325.794 155.625C325.882 155.874 325.808 156.343 325.662 156.49C325.472 156.665 324.945 156.739 324.798 156.636C323.422 155.698 322.075 154.717 320.509 153.588C320.113 153.31 319.718 153.002 319.294 152.709C321.665 152.782 325.442 154.673 325.794 155.625ZM182.134 190.675C181.022 190.601 179.924 190.543 178.826 190.469C175.4 190.25 171.974 190.001 168.783 189.766C167.114 189.649 165.43 189.517 163.761 189.4C163.322 189.37 162.883 189.326 162.429 189.297L161.683 189.239C161.229 189.209 160.775 189.077 160.336 188.96C160.321 188.96 160.292 188.96 160.277 188.945C161.419 188.638 162.59 188.359 163.718 188.096C164.362 187.949 165.006 187.803 165.65 187.641C167.919 187.085 169.837 186.63 171.784 186.308C173.687 185.986 175.649 185.781 177.552 185.59C179.763 185.356 182.061 185.121 184.272 184.696C187.756 184.022 191.123 182.777 193.656 181.766C194.549 181.414 195.295 180.403 195.442 179.377C195.559 178.601 195.31 177.927 194.754 177.487C193.89 176.798 192.646 176.798 191.562 176.784C191.269 176.784 190.991 176.784 190.728 176.769C188.019 176.608 185.531 176.608 183.115 176.74C169.53 177.516 155.739 176.3 140.953 173.018C139.05 172.593 137.249 171.831 135.346 171.01C134.541 170.673 133.721 170.307 132.886 169.985L136.341 161.618C141.992 164.168 148.141 164.68 154.085 165.164C156.383 165.355 158.755 165.545 161.068 165.853C172.897 167.435 183.569 167.772 193.67 166.893C201.766 166.19 210.418 165.34 221.705 164.168C225.805 163.743 229.948 163.245 233.973 162.776C236.521 162.483 239.053 162.175 241.601 161.882C242.172 161.823 242.948 161.735 243.431 161.984C247.12 163.919 250.794 165.882 254.674 167.977L257.836 169.677C256.46 170.205 255.142 170.717 253.869 171.201C251.146 172.241 248.584 173.238 246.037 174.234C242.889 175.465 239.698 176.784 236.609 178.044C229.801 180.843 222.759 183.744 215.659 186.015C204.065 189.737 192.792 191.29 182.149 190.66L182.134 190.675ZM127.367 149.72C129.007 148.65 130.632 147.566 132.271 146.496C138.142 142.628 144.217 138.613 150.278 134.818C152.123 133.661 153.967 133.089 155.739 133.089C157.745 133.089 159.633 133.836 161.243 135.316C164.201 138.027 165.913 143.493 163.747 147.332C162.839 148.943 160.731 150.511 158.74 151.053C153.66 152.475 148.331 153.442 143.354 154.277C139.064 154.995 134.687 155.581 130.441 156.153C128.582 156.402 126.738 156.651 124.878 156.915C124.835 156.871 124.776 156.812 124.761 156.724C123.883 153.774 124.752 151.434 127.367 149.705V149.72ZM113.738 165.735C116.343 166.688 118.935 166.541 121.014 165.325C122.097 164.695 123.019 163.787 123.619 162.746C123.927 162.204 124.117 161.618 124.264 161.12L124.322 161.003C124.395 160.841 124.469 160.68 124.556 160.519C124.908 159.83 125.42 159.2 126.093 158.658C126.562 160.695 126.445 162.263 125.713 163.288C125.142 164.094 124.205 164.578 122.917 164.71C122.844 164.71 122.785 164.768 122.756 164.827C122.726 164.9 122.756 164.974 122.785 165.018C123.649 165.97 124.512 166.41 125.303 166.263C126.02 166.131 126.606 165.53 127.016 164.519C127.645 162.937 128.216 161.222 128.714 159.435C128.86 158.937 129.153 158.556 129.592 158.321C130.383 157.896 131.642 157.896 133.267 158.321L130.441 158.937C130.368 158.951 130.31 159.01 130.295 159.098L130.222 159.655C130.222 159.742 130.266 159.83 130.354 159.86L133.033 160.578C133.618 167.025 130.28 171.538 124.117 172.666C118.613 173.677 115.568 171.67 113.664 165.735H113.708H113.738ZM111.6 155.552C111.893 154.468 112.347 153.471 112.947 152.592C113.928 151.141 114.982 150.248 116.065 149.969C117.193 149.676 118.715 149.969 119.945 150.687C120.677 151.127 121.233 151.727 121.614 152.46L121.775 152.87C122.478 154.687 123.195 156.578 123.239 158.438C122.961 158.981 122.77 159.552 122.595 160.109C122.463 160.504 122.331 160.929 122.17 161.325C121.804 162.19 121.131 162.966 120.296 163.494C118.832 164.446 116.958 164.68 115.07 164.153C112.186 162.746 111.088 160.021 111.6 155.566V155.552ZM156.866 110.084C156.544 106.245 157.627 104.897 161.331 104.545C164.64 104.238 168.036 104.135 171.316 104.033C172.589 103.989 173.848 103.945 175.122 103.901C175.59 103.871 175.971 103.945 176.191 104.091C178.167 105.425 180.158 106.817 182.076 108.15L183.364 109.044C182.837 109.044 182.295 109.059 181.768 109.044C178.826 109.044 175.751 109.029 173.146 111.139C171.374 112.575 169.705 112.663 167.7 111.403C166.294 110.524 164.757 109.777 163.293 109.059L162.883 108.853C161.888 108.37 160.848 107.916 159.853 107.476C159.413 107.286 158.96 107.08 158.52 106.89C158.418 106.846 158.316 106.89 158.272 106.978L157.891 107.769C157.847 107.857 157.891 107.974 157.964 108.018C158.96 108.546 159.955 109.088 160.951 109.615C163.586 111.037 166.309 112.517 169.061 113.821C169.442 113.997 169.925 114.084 170.423 114.084C171.198 114.084 172.018 113.879 172.516 113.513C175.18 111.55 178.24 110.626 182.12 110.626C182.222 110.626 182.31 110.626 182.412 110.626C182.822 110.626 183.174 110.201 183.54 109.762C183.642 109.63 183.759 109.513 183.862 109.396H183.935C183.935 109.396 183.95 109.396 183.964 109.396L189.293 112.209L186.38 113.22C184.081 114.011 181.9 114.758 179.733 115.52C174.375 117.381 169.325 120.253 164.713 124.048C164.288 124.4 163.366 124.561 162.81 124.371C160.555 123.623 158.374 122.818 156.061 121.953C155.358 121.689 154.656 121.425 153.953 121.176C157.042 117.777 157.115 113.469 156.837 110.084H156.866ZM169.471 125.66C170.95 124.766 172.355 123.931 173.834 123.374C180.026 121.03 186.394 118.847 192.543 116.737L193.348 116.458C195.003 115.887 196.642 116.268 198.194 117.586C197.462 117.865 196.715 118.143 195.969 118.436C193.905 119.213 191.782 120.019 189.703 120.883C188.986 121.176 188.532 121.689 188.488 122.261C188.429 122.803 188.737 123.33 189.322 123.711C193.187 126.29 197.184 128.81 201.034 131.257C202.044 131.888 203.04 132.532 204.05 133.162C204.182 133.236 204.328 133.192 204.548 133.089C204.65 133.045 204.797 132.987 204.972 132.928C205.045 132.899 205.089 132.84 205.104 132.767C205.104 132.693 205.075 132.62 205.016 132.591L190.537 123.301C190.464 123.257 190.362 123.198 190.274 123.14C189.981 122.979 189.644 122.788 189.571 122.524C189.542 122.437 189.557 122.363 189.571 122.29C189.659 122.129 189.981 122.041 190.23 121.968C190.318 121.938 190.406 121.924 190.479 121.894L191.401 121.572C192.602 121.162 193.861 120.722 195.105 120.356C196.569 119.916 198.165 119.506 200.273 119.037C200.551 118.964 200.961 119.125 201.254 119.286C205.69 121.763 210.096 124.239 214.883 126.92L218.002 128.664C217.709 128.84 217.445 129.016 217.211 129.162C216.625 129.543 216.172 129.836 215.688 130.012C214.517 130.466 213.317 130.877 212.146 131.287C210.418 131.902 208.618 132.518 206.905 133.25C203.464 134.701 201.883 137.778 202.659 141.485C203.172 143.888 205.602 145.28 208.735 144.943C209.32 144.885 209.92 144.987 210.55 145.09C210.77 145.119 210.989 145.163 211.209 145.192C211.136 145.515 211.106 145.852 211.062 146.174C211.018 146.57 210.975 146.936 210.887 147.302C210.726 147.903 210.301 148.518 209.92 149.075C209.833 149.207 209.745 149.339 209.657 149.456C208.676 150.936 207.549 152.284 206.275 153.5C205.836 153.911 204.928 154.775 204.094 154.892C203.464 154.98 202.674 154.731 201.971 154.526C201.737 154.453 201.517 154.38 201.298 154.336C200.683 154.174 200.068 153.984 199.468 153.793C198.78 153.574 198.062 153.354 197.345 153.193C194.3 152.445 191.489 150.614 189.835 148.269C189.396 147.639 188.956 147.009 188.517 146.394C185.955 142.716 183.525 139.243 180.246 136.093C178.357 134.276 176.293 132.547 174.112 130.979C173.028 130.188 171.887 129.426 170.715 128.693C170.642 128.649 170.481 128.532 170.262 128.386C168.871 127.433 168.109 126.95 167.656 126.744C168.3 126.378 168.929 125.997 169.515 125.645L169.471 125.66ZM173.541 120.18C177.508 118.099 181.534 116.517 185.487 115.462C186.936 115.081 188.664 114.671 190.435 114.583C191.313 114.539 192.28 114.524 193.012 114.876C183.554 116.971 175.254 120.312 167.641 125.103C167.319 125.308 166.938 125.47 166.572 125.631C166.367 125.719 166.162 125.807 165.972 125.909C165.87 125.821 165.752 125.733 165.635 125.631C167.553 123.711 169.998 122.012 173.541 120.165V120.18ZM221.515 156.226C219.056 157.046 215.059 157.31 211.838 155.376L216.347 147.185L221.632 148.973L224.765 153.881C224.355 154.819 223.169 155.669 221.515 156.226ZM183.876 144.181C184.447 144.958 184.96 145.822 185.472 146.643C186.482 148.299 187.522 149.998 188.971 151.185C191.65 153.369 194.988 155.2 198.37 156.343L198.516 156.387C201.503 157.398 205.221 158.644 207.768 154.365C208.354 153.383 209.13 152.533 209.95 151.625C211.487 149.94 213.083 148.181 213.331 145.456C213.434 145.5 213.536 145.544 213.624 145.573C213.902 145.691 214.093 145.764 214.268 145.866C214.444 145.969 214.605 146.086 214.81 146.218C214.854 146.247 214.913 146.291 214.957 146.321C214.561 146.995 214.166 147.669 213.785 148.328C212.819 149.954 211.911 151.478 211.106 153.105L211.077 153.163C210.682 153.94 210.096 155.127 210.491 156.065C210.813 156.827 211.633 157.12 212.365 157.369C212.512 157.413 212.643 157.471 212.775 157.515C215.674 158.629 219.187 158.775 222.423 157.911C223.667 157.589 224.575 157.076 225.263 156.328C225.439 156.138 226.771 154.013 226.917 153.09L228.132 153.676C227.634 155.391 227.473 156.372 227.927 156.929C228.396 157.501 229.435 157.53 231.177 157.354C234.193 157.09 236.711 157.823 239.244 159.772C238.16 159.948 237.092 160.138 236.052 160.314C233.564 160.754 231.207 161.164 228.82 161.398C225.277 161.721 221.691 162.087 218.207 162.439C201.444 164.124 184.096 165.853 166.924 164.519C160.072 163.977 153.133 162.995 146.428 162.028C144.027 161.691 141.626 161.34 139.225 161.017C138.259 160.885 137.073 160.46 136.576 159.801C136.253 159.376 136.18 158.893 136.371 158.438C136.663 157.72 137.512 157.134 138.537 156.958C139.723 156.753 140.894 156.548 142.08 156.358C147.38 155.449 152.855 154.511 158.213 153.427C162.093 152.636 164.874 150.248 166.045 146.716C167.392 142.613 166.265 137.734 163.176 134.291C161.404 132.327 158.696 131.301 155.812 131.301C153.938 131.301 151.977 131.741 150.147 132.635C145.506 134.921 141.304 137.954 137.22 140.899C136.429 141.471 135.639 142.042 134.833 142.613C134.423 142.906 134.014 143.185 133.589 143.463L133.091 143.8L132.491 143.39C128.421 140.577 124.205 137.675 118.744 140.328C115.084 142.086 112.332 146.071 112.039 149.998C112.039 150.086 112.098 150.174 112.186 150.189C112.274 150.218 112.361 150.16 112.405 150.086C114.499 145.075 116.914 141.661 121.892 141.295C125.142 141.06 128.055 142.262 131.056 145.119C130.676 145.705 130.295 146.013 129.9 146.101C129.475 146.203 128.963 146.042 128.246 145.588C126.738 144.621 125.098 144.357 123.605 144.841C121.907 145.397 120.779 147.039 120.369 147.727C120.325 147.801 120.34 147.903 120.413 147.962C120.486 148.02 120.589 148.02 120.662 147.962C121.38 147.332 122.17 146.789 123.019 146.379C122.712 146.921 122.492 147.507 122.346 148.123C122.331 148.211 122.375 148.299 122.448 148.328C122.521 148.372 122.624 148.328 122.682 148.269C123.737 146.745 125.786 146.013 127.572 146.54C127.967 146.658 128.612 146.98 128.729 147.302C128.758 147.39 128.743 147.478 128.685 147.566C128.597 147.698 128.202 147.83 127.953 147.932C127.836 147.976 127.719 148.02 127.631 148.05L126.298 148.65C126.211 148.694 125.903 148.826 125.479 149.002C124.659 149.354 123.4 149.91 122.463 150.321C120.867 148.533 118.349 147.61 116.021 147.991C114.499 148.225 113.05 149.236 111.717 150.98C110.634 152.401 109.873 154.101 109.521 155.874C108.994 152.548 109.565 149.163 111.19 146.057C113.738 141.177 116.944 137.236 120.706 134.349C126.05 130.261 132.125 128.591 138.552 126.832C139.665 126.525 140.777 126.217 141.89 125.909C144.51 125.162 147.482 124.312 150.395 123.594C151.859 123.242 153.719 123.301 155.373 123.77C166.836 127.052 176.425 133.91 183.876 144.152V144.181ZM111.498 165.794C113.006 170.146 115.333 172.886 118.408 173.956C122.068 175.23 126.621 174.102 131.935 170.6C136.649 174.82 142.622 175.641 148.39 176.447C149.166 176.549 149.942 176.666 150.717 176.784C164.757 178.879 176.205 179.377 186.731 178.352L187.214 178.308C188.634 178.161 190.391 177.971 191.635 178.615C191.958 178.776 192.133 178.938 192.133 179.084C192.133 179.348 191.606 179.714 191.167 179.993L190.991 180.11C190.157 180.667 189.264 181.092 188.312 181.385C184.652 182.513 180.744 183.011 176.966 183.509C174.814 183.788 172.589 184.066 170.423 184.476C167.817 184.96 165.255 185.824 162.781 186.66C161.507 187.085 160.189 187.524 158.901 187.905C158.755 187.949 158.594 187.993 158.447 188.037C157.525 188.315 156.573 188.608 155.739 188.477C154.348 188.242 152.972 188.008 151.596 187.773C149.327 187.378 147.058 186.967 144.803 186.557C141.802 186.015 138.698 185.458 135.653 184.945C129.402 183.89 124.029 181.531 119.696 177.927C116.168 174.996 112.874 172.007 111.22 167.611C111.059 167.186 111.161 166.6 111.512 165.809L111.498 165.794ZM221.896 148.636C219.685 146.423 216.977 144.811 214.605 143.537C214.078 143.258 213.551 142.965 213.024 142.657C211.209 141.646 209.335 140.591 207.388 139.917C207.315 139.888 207.241 139.873 207.168 139.844C207.007 139.8 206.861 139.741 206.714 139.683C206.422 139.551 206.143 139.346 205.909 139.155C205.836 139.097 205.719 139.111 205.66 139.185C205.602 139.258 205.602 139.375 205.66 139.434C206.041 139.815 206.407 140.181 206.773 140.562C207.593 141.397 208.369 142.188 209.232 142.965C207.388 143.463 205.982 143.361 205.163 142.643C204.313 141.895 204.05 140.518 204.372 138.54C204.753 136.225 206.363 134.51 208.764 133.836C211.311 133.118 214.078 132.225 217.46 130.994C218.485 130.627 219.129 129.953 219.261 129.133C219.378 128.327 218.968 127.492 218.119 126.847C216.743 125.777 215.205 124.898 213.712 124.034C213.361 123.829 213.009 123.623 212.658 123.418C206.114 119.565 199.57 115.711 193.012 111.872C189.176 109.615 185.355 107.373 181.519 105.117C181.168 104.912 180.831 104.677 180.348 104.37C180.275 104.311 180.187 104.267 180.099 104.208L195.105 106.831C195.193 106.831 195.295 106.787 195.325 106.685L195.53 105.688C195.544 105.586 195.486 105.498 195.383 105.469C194.373 105.234 193.363 104.985 192.367 104.736C190.186 104.194 187.932 103.637 185.692 103.256C175.517 101.512 167.304 101.527 159.838 103.285C158.477 103.608 157.291 104.516 156.017 105.483C155.446 105.908 154.875 106.348 154.26 106.758C147.467 102.392 140.616 97.981 133.721 93.5705C117.603 83.211 100.928 72.5145 84.4582 61.8766C77.7239 57.5247 70.7847 53.2021 64.0944 49.0114C47.5661 38.6959 30.4816 28.0287 14.3048 15.7643C15.0367 15.4712 15.7102 15.1782 16.3543 14.8851C17.8768 14.2258 19.1944 13.6396 20.5852 13.3173C24.3183 12.4528 27.1731 12.0132 29.8228 11.9253C32.0774 11.852 34.654 12.1744 37.4648 12.8924C51.1675 16.3944 63.2014 23.7794 74.8253 30.9299C78.573 33.2304 82.4379 35.6041 86.3175 37.8314C108.131 50.3009 130.178 63.1953 151.523 75.6502C162.107 81.8337 173.058 88.2369 183.847 94.4937C188.693 97.307 193.656 100.091 198.458 102.787C200.888 104.15 203.318 105.513 205.748 106.89C205.997 107.036 206.246 107.198 206.612 107.447C206.656 107.476 206.7 107.505 206.744 107.535L203.259 106.934C203.157 106.919 203.084 106.978 203.054 107.066C203.025 107.154 203.054 107.256 203.142 107.286L234.823 123.257C234.896 123.301 234.998 123.272 235.042 123.213L235.247 122.979C235.247 122.979 235.291 122.891 235.291 122.847C235.291 122.803 235.262 122.759 235.218 122.715C233.695 121.469 232.187 120.239 230.665 118.993L230.753 118.759C231.734 118.935 232.729 119.125 233.695 119.33C235.95 119.784 238.292 120.268 240.605 120.356C245.349 120.546 250.311 122.099 255.757 125.118L256.079 125.294C258.173 126.451 260.325 127.638 262.082 129.265C265.083 132.063 268.055 135.565 267.308 140.401C267.264 140.665 267.132 140.928 266.942 141.251C266.869 141.368 266.81 141.5 266.737 141.646C265.991 141.221 265.244 140.782 264.512 140.357C262.448 139.155 260.501 138.012 258.451 136.943C257.807 136.606 257.06 136.489 256.328 136.386C256.006 136.342 255.67 136.283 255.362 136.225C255.289 136.21 255.201 136.239 255.157 136.313C255.113 136.386 255.128 136.474 255.172 136.533C255.377 136.782 255.582 137.06 255.772 137.324C256.197 137.925 256.636 138.54 257.251 138.892C281.406 152.9 305.986 167.098 329.746 180.828L350.857 193.019C370.474 204.36 390.106 215.687 409.708 227.028C410.47 227.468 411.216 227.951 412.139 228.552C412.505 228.786 412.9 229.036 413.324 229.314C412.241 229.431 411.202 229.548 410.221 229.651C407.835 229.915 405.595 230.164 403.428 230.457C400.851 230.457 397.894 231.746 396.357 232.508C394.527 233.417 392.595 234.838 390.618 236.699C390.589 236.728 390.53 236.772 390.516 236.787C390.501 236.787 390.443 236.787 390.399 236.772C389.916 236.64 389.535 236.464 389.096 236.245L388.891 236.157C386.256 234.911 383.577 233.666 380.971 232.464C374.749 229.592 368.307 226.618 362.173 223.35C338.457 210.676 314.404 197.664 291.156 185.077C282.182 180.227 273.208 175.362 264.234 170.512C261.262 168.915 258.29 167.303 255.318 165.692C246.198 160.754 236.755 155.654 227.444 150.687C226.229 150.042 224.868 149.603 223.55 149.193C222.979 149.017 222.393 148.826 221.823 148.636H221.896ZM290.746 126.671C290.131 126.979 289.824 127.433 289.926 127.873C290.029 128.312 290.468 128.517 290.849 128.649C294.026 129.763 297.305 130.246 301.492 130.173H301.55C302.502 130.173 303.175 130.466 303.6 131.067C305.064 133.074 303.395 137.998 302.604 140.357C302.517 140.635 302.429 140.884 302.355 141.104L302.209 141.544C301.711 143.097 301.199 144.694 300.408 146.115C298.564 149.368 295.314 150.291 292.152 150.951C291.229 151.141 290.278 151.302 289.355 151.449C288.214 151.639 287.042 151.83 285.9 152.094C285.491 152.196 284.876 152.079 284.407 151.815C279.898 149.266 275.345 146.628 270.924 144.079L269.607 143.317C269.299 143.141 268.992 142.936 268.626 142.672C268.45 142.555 268.274 142.423 268.055 142.291C270.485 138.701 268.992 135.565 267.25 132.679C264.629 128.327 261.042 125.279 256.255 123.316C255.611 123.052 254.981 122.715 254.249 122.334C254.147 122.29 254.059 122.231 253.957 122.173C253.986 122.173 254.015 122.173 254.044 122.173C254.22 122.173 254.396 122.173 254.528 122.187L290.629 126.026C290.849 126.056 291.083 126.056 291.317 126.07C291.581 126.085 291.859 126.1 292.122 126.129C291.654 126.261 291.2 126.437 290.761 126.657L290.746 126.671ZM320.787 112.971C324.169 109.615 327.463 105.762 331.459 100.487C332.704 98.8455 333.919 97.1898 334.841 95.9296C335.412 95.1531 335.968 94.3765 336.539 93.5999C336.598 93.5266 336.656 93.4387 336.715 93.3508C336.949 93.0137 337.227 92.6035 337.52 92.457C337.564 92.4423 337.623 92.413 337.681 92.413C337.798 92.413 337.959 92.4863 338.15 92.7354C338.355 93.0138 338.384 93.4093 338.252 93.9808C338.003 95.0212 337.388 95.9443 336.803 96.8381C336.583 97.1751 336.364 97.4975 336.159 97.8345C335.295 99.2558 334.446 100.692 333.567 102.113C332.279 104.238 330.976 106.348 329.673 108.458L327.389 112.165C327.053 112.722 326.657 113.264 326.277 113.791C325.721 114.553 325.164 115.345 324.725 116.209C323.949 117.718 323.159 118.949 322.236 120.077C320.728 121.924 318.913 122.656 316.146 122.48C314.258 122.378 312.34 122.51 310.32 122.671C309.631 122.715 308.929 122.774 308.197 122.818C312.574 120.239 316.805 116.942 320.802 112.971H320.787ZM305.225 124.561C307.948 124.21 310.773 124.151 313.496 124.092C315.473 124.048 317.522 124.004 319.528 123.843C320.611 123.755 322.046 122.891 322.705 121.894C327.302 115.052 331.869 108.033 336.29 101.234L338.852 97.307C339.657 96.0615 340.58 94.6695 340.258 93.3215C340.067 92.5449 339.496 91.8562 338.501 91.2408C342.161 86.801 345.44 84.0023 349.129 82.1853C350.476 81.526 351.457 81.3648 352.218 81.6725C352.994 81.9949 353.609 82.8594 354.136 84.3833C356.23 90.3909 355.351 96.4425 354.107 102.098C353.463 105.014 352.789 107.93 352.145 110.773C351.852 112.033 351.574 113.264 351.296 114.495C349.642 114.451 348.002 114.407 346.377 114.377C341.941 114.275 337.74 114.172 333.48 113.997C331.693 113.938 330.566 114.568 329.776 116.136C328.912 117.85 327.99 119.521 326.936 121.44C326.467 122.275 325.984 123.169 325.472 124.107C325.442 124.166 325.442 124.239 325.472 124.297C325.501 124.356 325.559 124.385 325.633 124.385H347.783L346.465 129.338L316.922 130.32C316.834 130.32 316.761 130.393 316.746 130.481C316.746 130.569 316.79 130.657 316.878 130.686C324.945 133.045 332.865 132.019 340.521 131.023C342.322 130.789 344.181 130.554 346.011 130.349C346.187 130.92 346.187 131.316 346.011 131.565C345.821 131.814 345.396 131.946 344.694 131.946C344.65 131.946 344.606 131.946 344.562 131.946C341.692 131.888 338.706 131.902 335.412 131.975C333.948 132.019 332.162 132.635 331.049 133.221C330.962 133.265 330.918 133.382 330.976 133.47C331.02 133.558 331.137 133.602 331.225 133.543C331.694 133.294 332.674 133.338 333.465 133.367C333.772 133.367 334.05 133.397 334.27 133.382C335.353 133.353 336.393 133.411 337.183 133.455C337.871 133.499 338.545 133.514 339.218 133.529C340.492 133.558 341.81 133.602 343.098 133.807C346.655 134.349 350.344 135.521 354.692 137.47C357.24 138.613 359.758 139.8 362.144 141.002C366.346 143.126 370.357 145.368 374.046 147.683C375.979 148.899 377.896 150.174 379.726 151.478C380.707 152.182 381.615 152.841 382.493 153.5C382.625 153.603 383.957 154.775 384.47 155.259C381.673 156.109 378.848 157.046 376.096 158.043C374.617 158.57 373.3 159.083 372.099 159.948C371.923 160.065 371.762 160.182 371.587 160.211C371.455 160.226 371.294 160.211 371.133 160.167C368.776 159.625 366.463 158.673 364.325 157.706C356.786 154.321 349.071 150.98 341.605 147.757C337.476 145.969 333.201 144.137 329.014 142.291C327.507 141.632 326.013 140.928 324.901 140.386C324.564 140.225 324.213 140.078 323.817 139.917C322.807 139.507 321.768 139.082 321.109 138.393C320.831 138.1 320.67 137.749 320.699 137.426C320.758 136.576 322.119 135.712 323.071 135.36C324.842 134.701 326.745 134.012 328.722 133.397C328.809 133.368 328.853 133.294 328.853 133.206C328.853 133.118 328.78 133.045 328.692 133.045C328.356 133.001 328.019 132.987 327.668 132.987C326.862 132.987 325.969 133.089 324.915 133.294C323.451 133.587 322.309 133.954 321.358 134.437C320.933 134.657 318.781 135.829 318.445 137.089C318.108 138.379 319.879 139.595 320.597 139.947C322.778 141.046 324.945 142.159 327.228 143.331C328.165 143.815 329.102 144.298 330.083 144.811C328.268 146.936 325.94 148.401 323.188 149.163C313.775 151.742 304.054 154.262 294.289 156.68C293.63 156.841 292.796 156.548 291.991 156.255C291.654 156.138 291.303 156.006 290.966 155.918V155.493C291.244 155.435 291.522 155.376 291.786 155.317C292.503 155.171 293.235 155.01 293.952 154.834C296.485 154.204 299.032 153.574 301.565 152.958C306.059 151.845 310.539 150.731 315.034 149.632C315.912 149.412 316.82 149.236 317.683 149.061C318.869 148.826 320.099 148.577 321.285 148.24C323.144 147.727 324.125 146.833 324.139 145.661C324.139 145.603 324.11 145.544 324.066 145.515C324.022 145.485 323.964 145.471 323.905 145.485L318.928 146.702C308.987 149.134 298.725 151.654 288.609 154.087C288.418 154.116 288.126 153.94 287.73 153.706C287.569 153.618 287.394 153.5 287.203 153.383C288.126 153.178 289.004 152.988 289.853 152.812C292.02 152.343 294.069 151.889 296.09 151.493C297.363 151.244 299.076 150.555 300.057 149.573C300.73 148.899 301.214 148.079 301.653 147.288C303.205 144.504 304.493 141.544 305.518 138.511C306.015 137.016 306.22 135.902 306.235 134.525C306.235 133.236 306.089 131.888 305.708 130.29C306.894 130.422 310.466 130.085 310.685 130.027C310.773 130.012 310.832 129.924 310.817 129.836C310.817 129.748 310.759 129.675 310.671 129.66C308.636 129.191 306.499 128.972 304.449 128.737C303.746 128.664 303.044 128.591 302.355 128.503L293.762 127.462L293.689 127.331C294.816 127.037 295.958 126.715 297.071 126.407C299.735 125.66 302.502 124.869 305.269 124.517L305.225 124.561ZM331.723 122.554H328.063C328.297 122.099 328.531 121.631 328.766 121.162C329.498 119.726 330.244 118.231 331.108 116.839C331.445 116.312 332.426 115.901 333.07 115.887C337.505 115.828 341.956 115.828 346.67 115.843C348.061 115.843 349.466 115.843 350.901 115.843C350.696 116.414 350.505 116.956 350.315 117.484C349.715 119.184 349.188 120.649 348.558 122.085C348.456 122.305 347.724 122.524 347.036 122.524C341.941 122.554 336.759 122.554 331.723 122.554ZM313.496 117.074C311.857 118.143 310.305 119.154 308.636 119.931C305.898 121.191 302.97 122.187 300.145 123.154L298.71 123.653C298.051 123.887 297.041 123.916 296.675 123.609C290.38 118.466 284.041 113.161 277.907 108.033L275.594 106.099C275.375 105.908 275.17 105.688 274.877 105.351C274.745 105.19 274.584 105.014 274.394 104.809H274.423C280.133 103.153 285.535 101.6 290.6 103.696C296.47 106.128 302.107 108.985 308.065 112.004C310.495 113.235 313.013 114.509 315.575 115.77C314.872 116.209 314.184 116.663 313.511 117.088L313.496 117.074ZM111.307 163.64L94.7645 173.12C94.2522 173.414 93.7105 173.707 93.1835 174C92.0709 174.6 90.929 175.231 89.8895 175.934C88.7037 176.725 87.6058 176.857 86.1857 177.033L85.7319 177.091C84.7071 177.223 83.8287 177.326 82.8625 176.798C81.823 176.227 81.6767 174.879 81.5449 173.707C81.5156 173.501 81.501 173.311 81.4717 173.12C81.2082 171.216 81.3107 169.589 81.7791 168.109C83.0674 164.05 87.3861 163.098 91.1925 162.248C91.8659 162.102 92.5247 161.955 93.1396 161.794C96.5945 160.915 100.123 160.065 103.519 159.244C105.481 158.761 107.443 158.292 109.404 157.808L111.263 163.64H111.307ZM396.606 234.472C399.373 232.904 402.564 232.362 405.038 232.069C408.903 231.614 412.109 231.395 415.125 231.38C417.043 231.38 419.166 232.919 419.986 233.578C421.83 235.058 423.499 236.758 424.743 238.076L424.934 238.281C425.666 239.058 426.427 239.849 426.398 240.684C426.398 241.124 426.163 241.549 425.695 241.989C425.534 242.135 425.344 242.282 425.139 242.399C424.729 242.633 424.231 242.809 423.631 242.912C419.927 243.615 415.476 243.439 410.03 242.37C405.726 241.52 401.51 240.26 397.967 239.131C397.294 238.911 396.606 238.736 395.933 238.545C394.996 238.296 394.044 238.032 393.136 237.71C393.912 236.421 395.098 235.307 396.577 234.472H396.606ZM390.179 163.303C390.091 163.435 389.96 163.552 389.798 163.655C389.228 163.963 388.408 163.875 387.676 163.801C387.398 163.772 387.134 163.743 386.9 163.728L386.182 163.699C385.187 163.669 384.162 163.64 383.181 163.508C380.327 163.127 377.662 162.307 374.763 161.354C378.833 159.83 383.05 158.585 387.28 157.618C387.544 157.633 388.481 158.922 389.389 160.461L389.491 160.636C389.916 161.369 390.633 162.585 390.194 163.288L390.179 163.303ZM272.71 98.3766C273.34 97.9517 274.203 97.9078 275.257 98.2301C275.682 98.362 276.107 98.4792 276.531 98.5965C277.175 98.7723 277.849 98.9628 278.493 99.1826C279.503 99.5196 280.586 99.9005 281.772 100.355C282.314 100.56 282.855 100.78 283.397 101C283.529 101.058 283.69 101.131 283.866 101.219C283.909 101.249 283.968 101.263 284.012 101.293C280.718 101.337 277.043 101.718 273.632 104.003C273.53 103.871 273.413 103.725 273.31 103.593C273.032 103.241 272.769 102.904 272.534 102.553C272.066 101.835 271.832 101.19 271.788 100.472C271.744 99.5929 272.095 98.7723 272.71 98.3766ZM102.904 180.989C102.568 181.297 102.143 181.517 101.733 181.736C101.206 182.015 100.664 182.308 100.254 182.777C99.5517 183.568 99.3028 184.667 99.1418 185.531C99.01 186.293 98.8197 187.055 98.6441 187.788C98.483 188.462 98.3074 189.165 98.1756 189.854C97.3412 194.396 97.7657 195.129 102.816 197.063C101.118 199.085 99.4786 200.931 96.5213 200.8C94.0765 200.697 92.4954 199.437 91.2364 196.624C88.1913 189.81 90.4605 181.414 96.4042 177.516C97.3558 176.886 98.7172 176.417 99.9616 176.417C100.445 176.417 100.899 176.491 101.308 176.652C102.626 177.165 103.504 177.795 103.827 178.454C104.236 179.275 103.651 180.315 102.89 180.989H102.904ZM99.4785 191.568C99.5956 190.704 99.7859 189.81 99.9616 188.96C100.079 188.374 100.211 187.788 100.313 187.202C100.723 184.931 101.25 182.996 103.607 182.293C103.665 182.322 103.739 182.308 103.797 182.278C104.559 181.722 105.32 181.165 106.081 180.608C107.984 179.216 109.961 177.765 111.864 176.315L112.083 176.154C112.523 175.817 112.932 175.48 113.269 175.582C113.503 175.641 113.723 175.919 113.928 176.403C113.723 176.579 113.518 176.769 113.313 176.945C112.801 177.399 112.318 177.839 111.776 178.19C107.486 180.916 105.334 185.092 105.012 191.319C104.998 191.759 104.968 192.154 104.895 192.535C104.866 192.682 104.851 192.828 104.822 192.975C104.676 193.883 104.544 194.748 103.973 195.158C103.592 195.422 103.036 195.495 102.275 195.349C100.049 194.938 99.1858 193.766 99.4932 191.583L99.4785 191.568ZM145.74 189.195C144.174 192.301 146.238 193.678 148.243 195.012C148.522 195.188 148.8 195.378 149.078 195.569C146.531 195.818 144.876 195.51 143.808 194.587C142.592 193.532 141.992 191.568 141.875 188.228L145.755 189.195H145.74Z" fill="#C2F2FF" stroke="#C2F2FF" stroke-width="2" mask="url(#path-1-inside-1_5070_37144)"/>
</svg>
