<svg width="1439" height="782" viewBox="0 0 1439 782" fill="none" xmlns="http://www.w3.org/2000/svg">
<path fill-rule="evenodd" clip-rule="evenodd" d="M1440 0H0V634H0.00195312V675.926C3.81795 676.3 7.68995 676.493 11.6036 676.493C19.1028 676.493 26.4356 675.78 33.5428 674.433V674.434C53.7764 709.358 91.9508 732.854 134.869 732.854C177.788 732.854 215.3 709.763 235.66 675.342C246.714 678.803 258.476 680.67 270.672 680.67C301.413 680.67 329.378 668.819 350.258 649.449C367.637 692.238 409.64 722.417 458.706 722.417C490.415 722.417 519.172 709.809 540.244 689.343C561.096 708.573 588.96 720.329 619.58 720.329C661.965 720.329 699.084 697.81 719.61 664.096C741.306 661.241 761.127 652.446 777.386 639.402C798.813 666.502 831.994 683.895 869.244 683.895C896.058 683.895 920.759 674.876 940.492 659.716C956.405 705.387 999.872 738.166 1051.01 738.166C1077.84 738.166 1102.55 729.139 1122.29 713.967C1140.8 754.123 1179.38 782 1228.6 782C1277.81 782 1319.92 751.637 1337.2 708.644C1345.33 708.073 1353.22 706.666 1360.81 704.523C1378.53 731.26 1406.97 750.294 1440 755.512V526.002H1440V0Z" fill="url(#paint0_linear_5142_1450)"/>
<defs>
<linearGradient id="paint0_linear_5142_1450" x1="720.001" y1="0" x2="720.001" y2="782" gradientUnits="userSpaceOnUse">
<stop stop-color="#F6FDFF"/>
<stop offset="0.5" stop-color="#A5EDFF"/>
<stop offset="1" stop-color="#43D7FF"/>
</linearGradient>
</defs>
</svg>
