<svg width="1438" height="1213" viewBox="0 0 1438 1213" fill="none" xmlns="http://www.w3.org/2000/svg">
<path fill-rule="evenodd" clip-rule="evenodd" d="M1428.4 1092.69C1420.9 1092.69 1413.57 1091.88 1406.46 1090.35V1090.35C1386.23 1129.96 1348.05 1156.61 1305.13 1156.61C1262.22 1156.61 1224.7 1130.42 1204.34 1091.38C1193.29 1095.31 1181.53 1097.42 1169.33 1097.42C1138.59 1097.42 1110.63 1083.98 1089.75 1062.01C1072.37 1110.54 1030.36 1144.77 981.298 1144.77C949.589 1144.77 920.832 1130.47 899.76 1107.26C878.908 1129.07 851.044 1142.4 820.424 1142.4C778.039 1142.4 740.92 1116.86 720.394 1078.63C698.698 1075.39 678.877 1065.41 662.618 1050.62C641.191 1081.36 608.01 1101.08 570.76 1101.08C543.946 1101.08 519.245 1090.85 499.512 1073.66C483.599 1125.46 440.132 1162.63 388.996 1162.63C362.168 1162.63 337.455 1152.39 317.719 1135.19C299.2 1180.73 260.62 1212.35 211.408 1212.35C162.197 1212.35 120.085 1177.91 102.804 1129.15C94.6755 1128.5 86.7811 1126.91 79.1971 1124.48C61.4707 1154.8 33.0372 1176.39 0.00198531 1182.31V1023.01H0V168.006H0.00195312V120.304C3.81795 119.88 7.68995 119.66 11.6036 119.66C19.1028 119.66 26.4356 120.469 33.5428 121.997V121.995C53.7764 82.3866 91.9508 55.7391 134.869 55.7391C177.788 55.7391 215.3 81.9279 235.66 120.965C246.714 117.04 258.476 114.923 270.672 114.923C301.413 114.923 329.378 128.364 350.258 150.333C367.637 101.804 409.64 67.5762 458.706 67.5762C490.415 67.5762 519.172 81.8754 540.244 105.087C561.096 83.2767 588.96 69.944 619.58 69.944C661.965 69.944 699.084 95.4838 719.61 133.72C741.306 136.958 761.127 146.933 777.386 161.727C798.813 130.991 831.994 111.266 869.244 111.266C896.058 111.266 920.759 121.495 940.492 138.688C956.405 86.8901 999.872 49.7145 1051.01 49.7145C1077.84 49.7145 1102.55 59.9525 1122.29 77.1597C1140.8 31.6171 1179.38 0.00012207 1228.6 0.00012207C1277.81 0.00012207 1319.92 34.4363 1337.2 83.197C1345.33 83.8442 1353.22 85.4397 1360.81 87.871C1378.53 57.5466 1406.97 35.9592 1440 30.0416V290.34H1440V922.007H1440V1092.04C1436.19 1092.47 1432.31 1092.69 1428.4 1092.69Z" fill="#EFFEFF"/>
</svg>
