<svg width="1440" height="1235" viewBox="0 0 1440 1235" fill="none" xmlns="http://www.w3.org/2000/svg">
<path fill-rule="evenodd" clip-rule="evenodd" d="M1440 180.274V648.86V858.448V1202.76C1406.97 1196.41 1378.53 1173.25 1360.81 1140.71C1353.22 1143.32 1345.33 1145.03 1337.2 1145.72C1319.92 1198.05 1277.81 1235 1228.6 1235C1179.38 1235 1140.8 1201.07 1122.29 1152.2C1102.55 1170.67 1077.84 1181.65 1051.01 1181.65C999.872 1181.65 956.405 1141.76 940.492 1086.18C920.759 1104.63 896.058 1115.61 869.244 1115.61C831.994 1115.61 798.813 1094.44 777.386 1061.46C761.127 1077.33 741.306 1088.04 719.61 1091.51C699.084 1132.54 661.965 1159.95 619.58 1159.95C588.96 1159.95 561.096 1145.64 540.244 1122.24C519.172 1147.14 490.415 1162.49 458.706 1162.49C409.64 1162.49 367.637 1125.76 350.258 1073.68C329.378 1097.26 301.413 1111.68 270.672 1111.68C258.476 1111.68 246.714 1109.41 235.66 1105.2C215.3 1147.09 177.788 1175.19 134.869 1175.19C91.9507 1175.19 53.7764 1146.59 33.5428 1104.09V1104.09C26.4356 1105.73 19.1028 1106.6 11.6036 1106.6C7.68995 1106.6 3.81795 1106.36 0.00195312 1105.91V858.448V648.86V311.552H0V32.2363C33.0353 38.5863 61.4688 61.7509 79.1952 94.2906C86.7792 91.6818 94.6736 89.9698 102.802 89.2753C120.083 36.9521 162.195 0 211.406 0C260.618 0 299.198 33.9269 317.717 82.7969C337.453 64.3325 362.166 53.3465 388.994 53.3465C440.13 53.3465 483.597 93.2382 499.51 148.82C519.243 130.371 543.944 119.395 570.758 119.395C608.008 119.395 641.189 140.562 662.616 173.543C678.875 157.668 698.696 146.964 720.392 143.489C740.918 102.46 778.037 75.054 820.422 75.054C851.042 75.054 878.906 89.3608 899.758 112.765C920.83 87.857 949.587 72.5132 981.296 72.5132C1030.36 72.5132 1072.36 109.242 1089.74 161.316C1110.62 137.743 1138.59 123.319 1169.33 123.319C1181.53 123.319 1193.29 125.591 1204.34 129.803C1224.7 87.9135 1262.21 59.8113 1305.13 59.8113C1348.05 59.8113 1386.23 88.4056 1406.46 130.908V130.91C1413.57 129.27 1420.9 128.402 1428.4 128.402C1432.31 128.402 1436.18 128.638 1440 129.093V180.274H1440Z" fill="#D6FCFF"/>
</svg>
