<svg width="194" height="114" viewBox="0 0 194 114" fill="none" xmlns="http://www.w3.org/2000/svg">
<path d="M171.767 99.018C177.206 91.061 180.85 79.0854 172.384 71.7178C165.284 65.5291 155.773 68.1011 148.566 72.7359C150.844 66.8419 147.843 59.3135 141.815 56.6344C134.662 53.4463 126.812 56.5541 121.99 62.1802C128.928 33.4869 108.54 4.76683 78.4004 0.507043C63.1295 -1.63625 46.7333 2.94505 37.1689 15.5904C26.2917 29.9773 30.7926 47.3647 37.5172 62.4749C27.8724 53.5802 12.1728 53.5267 3.89434 64.8325C-6.33986 78.8175 5.31427 95.4816 19.0045 101.188C27.7384 104.805 37.4904 105.18 46.8137 105.448C60.3164 105.85 73.8191 105.823 87.3218 105.582C114.836 105.046 142.592 103.733 169.919 100.143C170.374 100.224 170.83 100.09 171.232 99.7413C171.499 99.5538 171.687 99.3127 171.821 99.018H171.767ZM68.0858 102.206C52.2255 102.206 32.0786 104.43 17.5578 96.9015C7.75226 91.8111 -0.392233 80.1571 5.04636 68.9852C11.8245 55.0806 28.3814 57.599 38.1602 65.797C38.4817 66.0649 38.8299 66.0917 39.0978 65.9578C39.7408 66.8151 41.4555 66.0649 41.0268 64.9397C35.5882 50.66 29.3191 34.3174 38.3745 20.011C47.2691 5.97242 65.4603 1.55196 80.9724 4.84727C110.094 11.0628 127.401 40.8277 115.881 68.744C115.077 70.6729 118.453 72.1197 119.284 70.1907C119.284 70.1371 119.31 70.0836 119.337 70.03C119.391 69.9764 119.444 69.9228 119.498 69.8424C123.275 63.225 129.464 56.9827 137.903 58.7241C144.976 60.1709 148.781 68.878 143.663 74.4773C142.297 75.9776 144.414 78.1209 145.887 76.701C145.887 76.701 145.914 76.6474 145.941 76.6474C146.128 76.6474 146.316 76.6474 146.503 76.567C153.469 72.6287 163.703 67.8063 170.615 74.6916C176.938 80.9875 173.321 90.3109 169.356 96.8479C135.974 101.215 101.655 102.233 68.0322 102.26L68.0858 102.206Z" fill="#C2F2FF"/>
<path d="M193.951 86.1043C193.844 84.5504 191.406 84.5504 191.513 86.1043C192.156 95.0525 187.896 103.786 179.939 108.287C172.277 112.601 163.195 110.189 154.97 112.279C154.247 112.467 154.568 113.485 155.265 113.378C165.713 111.663 175.653 114.717 184.521 107.564C191.058 102.313 194.46 94.4363 193.951 86.1043Z" fill="#C2F2FF"/>
<path d="M19.1915 7.33876C11.7704 15.9119 10.538 28.5841 16.1106 38.4432C16.566 39.2201 17.6377 38.5504 17.2894 37.7467C12.9492 27.9143 14.3156 17.5461 20.9866 9.13372C21.9778 7.87454 20.29 6.07958 19.1915 7.33876Z" fill="#C2F2FF"/>
</svg>
