<svg width="116" height="82" viewBox="0 0 116 82" fill="none" xmlns="http://www.w3.org/2000/svg">
<path d="M110.328 53.1654C107.486 49.3645 102.575 48.1602 98.3792 49.7408C104.796 41.0665 110.027 29.5696 107.411 18.8443C105.04 9.09739 95.839 1.81545 86.1298 0.366586C61.3674 -3.35906 47.575 22.0431 47.9137 43.4185C43.6611 36.3435 36.097 29.946 27.5355 33.2576C19.7643 36.2683 20.4417 43.8889 23.7534 49.929C19.1434 48.4237 13.7807 49.4962 10.6572 53.8428C5.91546 60.4473 9.0578 69.404 16.1328 72.5839C27.9495 77.8713 44.1692 76.1778 56.7009 75.7451C73.3346 75.1806 89.893 73.6376 106.357 71.3232C106.771 71.5302 107.336 71.4926 107.693 71.0033C111.4 65.81 114.693 59.0361 110.328 53.1842V53.1654ZM48.0077 73.3178C39.1828 73.4495 29.6241 73.6 21.025 71.3985C15.0414 69.8555 9.20833 65.1891 11.3534 58.1706C13.3479 51.6413 20.5734 50.3994 25.8985 53.1654C26.3501 53.7299 26.8017 54.2756 27.2721 54.7648C27.5543 55.0659 27.9683 54.9906 28.2317 54.7648C28.2882 54.8212 28.3634 54.8589 28.4199 54.9153C29.1725 55.6115 30.1698 54.5766 29.53 53.8052C28.7021 52.8079 27.7237 51.98 26.6699 51.3026C25.4092 49.2704 24.2614 47.1441 23.791 44.7921C22.6997 39.4106 26.3689 35.1205 31.7127 34.8759C39.7662 34.5183 43.774 41.8379 47.6126 47.5957C47.9325 48.085 48.4217 48.1979 48.8357 48.085C49.3061 48.1979 49.8517 47.9533 49.8329 47.3135C49.2496 27.7444 58.4885 3.22668 81.595 2.69982C91.0597 2.49284 101.145 8.40119 104.288 17.6212C108.164 28.9675 101.465 41.9132 94.4466 50.5311C93.3741 51.8482 95.2369 53.7487 96.3283 52.4127C96.4035 52.4127 96.4976 52.3751 96.5917 52.3375C101.634 49.5903 108.201 51.0203 110.083 56.9851C111.438 61.2564 109.048 65.2643 106.771 68.783C106.546 68.6889 106.301 68.6325 106.019 68.6701C86.8072 71.3985 67.4263 73.0731 48.0077 73.3366V73.3178Z" fill="#C2F2FF"/>
<path d="M17.9016 80.2233C9.71651 79.8281 2.9426 74.5219 1.28676 66.3556C1.13623 65.6406 -0.105654 65.7911 0.00724391 66.525C1.13623 75.0676 9.07675 82.3307 17.9016 81.7474C18.8801 81.691 18.8801 80.2797 17.9016 80.2233Z" fill="#C2F2FF"/>
<path d="M102.217 1.34516C101.672 1.10054 101.258 1.79675 101.747 2.15426C108.747 7.27232 113.056 13.35 114.316 22.0432C114.448 22.984 116.066 22.777 115.991 21.8174C115.314 13.4629 110.026 4.78856 102.198 1.36397L102.217 1.34516Z" fill="#C2F2FF"/>
</svg>
