<svg width="1444" height="520" viewBox="0 0 1444 520" fill="none" xmlns="http://www.w3.org/2000/svg">
<path fill-rule="evenodd" clip-rule="evenodd" d="M1444 -89.4974H0V370.777H0.00195855V412.819C3.82855 413.194 7.7113 413.388 11.6358 413.388C19.1558 413.388 26.509 412.673 33.6359 411.322V411.324C53.9257 446.344 92.206 469.905 135.244 469.905C178.281 469.905 215.897 446.75 236.314 412.234C247.399 415.705 259.193 417.577 271.424 417.577C302.25 417.577 330.292 405.692 351.23 386.269C368.658 429.176 410.778 459.439 459.979 459.439C491.776 459.439 520.613 446.796 541.744 426.273C562.654 445.557 590.596 457.346 621.3 457.346C663.803 457.346 701.025 434.764 721.608 400.957C743.364 398.094 763.24 389.274 779.544 376.194C801.031 403.37 834.304 420.81 871.657 420.81C898.546 420.81 923.315 411.766 943.103 396.565C959.061 442.363 1002.65 475.232 1053.93 475.232C1080.83 475.232 1105.61 466.18 1125.4 450.966C1143.97 491.233 1182.66 519.188 1232.01 519.188C1281.35 519.188 1323.58 488.741 1340.91 445.628C1349.06 445.056 1356.98 443.645 1364.58 441.495C1382.36 468.307 1410.87 487.394 1444 492.626V262.479H1444V-89.4974Z" fill="url(#paint0_linear_7_11)"/>
<mask id="mask0_7_11" style="mask-type:alpha" maskUnits="userSpaceOnUse" x="0" y="-271" width="1444" height="791">
<path fill-rule="evenodd" clip-rule="evenodd" d="M1444 -271H0V370.777H0.00195855V412.819C3.82855 413.194 7.7113 413.388 11.6358 413.388C19.1558 413.388 26.509 412.673 33.6359 411.322V411.324C53.9257 446.344 92.206 469.905 135.244 469.905C178.281 469.905 215.897 446.75 236.314 412.234C247.399 415.705 259.193 417.577 271.424 417.577C302.25 417.577 330.292 405.692 351.23 386.269C368.658 429.176 410.778 459.439 459.979 459.439C491.776 459.439 520.613 446.796 541.744 426.273C562.654 445.557 590.596 457.346 621.3 457.346C663.803 457.346 701.025 434.764 721.608 400.957C743.364 398.094 763.24 389.274 779.544 376.194C801.031 403.369 834.304 420.81 871.657 420.81C898.546 420.81 923.315 411.766 943.103 396.565C959.061 442.362 1002.65 475.232 1053.93 475.232C1080.83 475.232 1105.61 466.18 1125.4 450.966C1143.97 491.233 1182.66 519.188 1232.01 519.188C1281.35 519.188 1323.58 488.74 1340.91 445.628C1349.06 445.055 1356.98 443.645 1364.58 441.495C1382.36 468.307 1410.87 487.394 1444 492.626V262.479H1444V-271Z" fill="#C2F2FF"/>
</mask>
<g mask="url(#mask0_7_11)">
<path d="M295.265 290.77C297.928 290.793 300.54 289.945 302.691 288.333C303.102 288.031 303.646 287.983 304.094 288.205C304.54 288.425 304.831 288.896 304.838 289.402C304.857 295.637 309.751 300.886 315.964 301.357C320.125 301.671 324.088 299.838 326.58 296.464L326.581 296.463C326.861 296.08 327.318 295.881 327.762 295.915C327.972 295.931 328.182 295.999 328.386 296.125C329.406 296.772 330.532 297.142 331.736 297.234C334.231 297.422 336.62 296.331 338.125 294.332C338.418 293.945 338.871 293.742 339.356 293.805L339.362 293.806C339.832 293.859 340.248 294.17 340.429 294.601L340.43 294.605L340.43 294.605C342.815 300.092 347.997 303.78 353.945 304.23C361.388 304.793 368.18 300.219 370.443 293.094L370.443 293.092C370.561 292.717 370.845 292.406 371.216 292.254C371.586 292.103 372.004 292.126 372.355 292.322L372.359 292.325L372.359 292.325C373.731 293.066 375.193 293.561 376.688 293.79L376.689 293.79C380.204 294.323 383.734 293.463 386.603 291.345C389.469 289.24 391.355 286.14 391.889 282.615C392.422 279.09 391.561 275.574 389.442 272.707C387.335 269.842 384.234 267.957 380.706 267.423M295.265 290.77L359.741 256.198C359.318 256.404 358.841 256.424 358.401 256.255M295.265 290.77L295.301 290.812L294.458 290.748C287.716 290.238 282.64 284.335 283.15 277.596C283.66 270.858 289.566 265.786 296.308 266.296C296.452 266.307 296.586 266.328 296.719 266.361L296.947 266.378L296.96 266.379L296.973 266.381C297.315 266.433 297.703 266.322 297.993 266.081C298.279 265.844 298.446 265.502 298.457 265.129L298.457 265.121L298.458 265.113L298.473 264.91C298.956 258.521 304.511 253.75 310.871 254.231C311.748 254.297 312.61 254.492 313.435 254.751L314.07 254.95L313.546 255.361C307.56 260.041 307.65 267.661 308.74 271.479M295.265 290.77L308.74 271.479M380.706 267.423C380.706 267.423 380.706 267.423 380.706 267.423L380.653 267.769L380.707 267.423C380.707 267.423 380.707 267.423 380.706 267.423ZM380.706 267.423C379.553 267.242 378.357 267.234 377.132 267.372C376.749 267.416 376.362 267.295 376.077 267.042C375.793 266.789 375.632 266.417 375.633 266.04L375.633 266.04C375.655 260.191 371.099 255.259 365.267 254.818C363.327 254.671 361.36 255.036 359.59 255.883L359.588 255.884C359.253 256.047 358.877 256.063 358.528 255.929M358.528 255.929C358.528 255.929 358.529 255.929 358.529 255.93L358.401 256.255M358.528 255.929C358.186 255.795 357.909 255.531 357.765 255.188M358.528 255.929C358.528 255.929 358.527 255.929 358.527 255.929L358.401 256.255M358.401 256.255L357.765 255.188M357.765 255.188C357.765 255.188 357.765 255.189 357.765 255.189L357.442 255.323L357.764 255.187C357.764 255.187 357.765 255.188 357.765 255.188ZM357.765 255.188C354.442 247.15 347 241.751 338.361 241.097C329.717 240.443 320.956 245.085 316.659 252.803L316.16 253.699L317.103 253.295C321.411 251.449 325.305 251.924 328.447 253.306C331.599 254.693 333.991 256.993 335.258 258.778M357.765 255.188L335.258 258.778M335.258 258.778C335.689 259.385 335.545 260.218 334.946 260.648C334.352 261.076 333.509 260.934 333.077 260.336M335.258 258.778L333.077 260.336M333.077 260.336C332.936 260.136 331.351 257.983 328.671 256.407C325.973 254.82 322.153 253.816 317.614 255.987L317.758 256.287L317.614 255.987C313.087 258.154 311.477 261.75 311.024 264.844C310.573 267.915 311.257 270.502 311.328 270.754M333.077 260.336L310.409 272.405C310.409 272.405 310.408 272.405 310.408 272.405M311.328 270.754C311.328 270.754 311.328 270.755 311.329 270.755L311.665 270.659L311.328 270.753C311.328 270.753 311.328 270.753 311.328 270.754ZM311.328 270.754C311.526 271.474 311.117 272.21 310.408 272.405M310.408 272.405C310.25 272.448 310.085 272.462 309.934 272.451C309.392 272.41 308.906 272.033 308.74 271.479M310.408 272.405L308.74 271.479M295.957 263.284L295.906 263.578L295.607 263.573C287.76 263.444 281.084 269.16 280.462 277.382C279.84 285.602 286.02 292.79 294.245 293.412C296.905 293.613 299.555 293.085 301.934 291.926L302.342 291.727L302.43 292.173C303.685 298.534 309.102 303.529 315.761 304.033C320.378 304.382 324.793 302.573 327.837 299.168L328.007 298.978L328.24 299.081C329.276 299.542 330.392 299.823 331.534 299.91C334.1 300.104 336.587 299.309 338.544 297.73L338.857 297.477L339.064 297.823C342.17 303.033 347.6 306.442 353.743 306.906C361.808 307.517 369.195 302.968 372.336 295.678L372.47 295.365L372.786 295.491C373.927 295.943 375.088 296.263 376.28 296.441L376.28 296.441C380.519 297.083 384.739 296.041 388.188 293.512C391.638 290.971 393.9 287.258 394.542 283.023L394.542 283.023C395.183 278.798 394.141 274.569 391.61 271.123C389.067 267.675 385.353 265.414 381.116 264.772C380.28 264.653 379.433 264.589 378.57 264.601L378.257 264.606L378.218 264.294C377.415 257.834 372.11 252.644 365.47 252.141C363.626 252.002 361.753 252.235 359.998 252.831L359.706 252.929L359.571 252.653C355.576 244.506 347.678 239.11 338.563 238.421C328.506 237.66 318.866 243.012 314.123 251.837L313.992 252.081L313.725 252.01C312.846 251.777 311.962 251.622 311.062 251.554C303.703 250.997 297.203 256.158 295.957 263.284Z" fill="#91E0FF" stroke="#C2F2FF" stroke-width="0.7"/>
<path d="M368.138 279.291C361.049 266.906 346.041 262.108 334.46 268.366L334.007 268.625C333.372 268.988 333.146 269.804 333.511 270.454C333.874 271.088 334.691 271.314 335.341 270.949C345.74 265.018 359.393 269.401 365.813 280.623L365.813 280.623C366.043 281.026 366.446 281.263 366.875 281.295C367.127 281.314 367.393 281.256 367.644 281.118C368.277 280.755 368.503 279.939 368.138 279.291Z" fill="#91E0FF" stroke="#C2F2FF" stroke-width="0.7"/>
<path d="M276.042 221.81L276.815 221.147L276.827 221.137L277.554 220.513L277.027 220.517C278.322 215.201 283.327 211.438 288.961 211.864C289.582 211.911 290.201 212.012 290.807 212.157L291.066 212.219L291.195 211.987C294.993 205.158 302.527 201.036 310.391 201.631C317.493 202.168 323.664 206.326 326.872 212.607L327.006 212.869L327.287 212.782C328.601 212.378 329.995 212.22 331.37 212.324C336.573 212.718 340.76 216.709 341.532 221.735L341.577 222.026L341.871 222.031C342.456 222.043 343.027 222.086 343.584 222.161C350.552 223.229 355.356 229.758 354.3 236.723L354.3 236.724C354.19 237.461 353.507 237.963 352.772 237.845L352.768 237.844C352.035 237.735 351.537 237.055 351.647 236.315C352.485 230.812 348.69 225.652 343.185 224.813C342.31 224.676 341.396 224.678 340.484 224.771L340.481 224.771C340.098 224.815 339.711 224.694 339.426 224.441C339.141 224.187 338.98 223.826 338.982 223.44L338.982 223.439C338.997 219.038 335.571 215.322 331.168 214.989C329.7 214.878 328.226 215.156 326.891 215.798L326.889 215.799C326.554 215.962 326.178 215.978 325.829 215.844C325.487 215.71 325.211 215.446 325.066 215.103C322.518 208.945 316.814 204.808 310.189 204.307C303.562 203.806 297.569 206.99 294.129 212.336L293.593 213.169L294.533 212.858C300.939 210.736 306.086 214.887 308.028 217.625C308.458 218.232 308.315 219.063 307.707 219.493C307.1 219.922 306.268 219.78 305.838 219.173C305.729 219.018 304.542 217.39 302.526 216.198C300.492 214.995 297.604 214.235 294.164 215.878L294.164 215.878C290.747 217.512 289.531 220.237 289.19 222.577C288.85 224.902 289.369 226.858 289.418 227.038L289.418 227.039C289.616 227.756 289.199 228.494 288.498 228.692C288.34 228.734 288.175 228.748 288.024 228.737C287.482 228.696 286.997 228.319 286.83 227.765C285.991 224.826 285.914 219.082 290.173 215.322L290.692 214.864L290.016 214.718C289.602 214.628 289.184 214.561 288.748 214.528C283.953 214.165 279.766 217.761 279.403 222.554L279.403 222.554L279.403 222.554L279.403 222.554L279.403 222.554L279.403 222.554L279.403 222.555L279.403 222.555L279.403 222.555L279.403 222.555L279.403 222.555L279.403 222.555L279.403 222.555L279.403 222.556L279.403 222.556L279.403 222.556L279.403 222.556L279.403 222.556L279.403 222.556L279.403 222.557L279.403 222.557L279.403 222.557L279.403 222.557L279.403 222.557L279.403 222.558L279.403 222.558L279.403 222.558L279.403 222.558L279.403 222.558L279.403 222.559L279.403 222.559L279.403 222.559L279.403 222.559L279.403 222.559L279.403 222.56L279.403 222.56L279.403 222.56L279.403 222.56L279.403 222.56L279.403 222.561L279.403 222.561L279.403 222.561L279.403 222.561L279.403 222.561L279.403 222.562L279.403 222.562L279.403 222.562L279.403 222.562L279.403 222.563L279.403 222.563L279.403 222.563L279.402 222.563L279.402 222.564L279.402 222.564L279.402 222.564L279.402 222.564L279.402 222.565L279.402 222.565L279.402 222.565L279.402 222.565L279.402 222.566L279.402 222.566L279.402 222.566L279.402 222.566L279.402 222.567L279.402 222.567L279.402 222.567L279.402 222.567L279.402 222.568L279.402 222.568L279.402 222.568L279.402 222.568L279.402 222.569L279.402 222.569L279.402 222.569L279.402 222.57L279.402 222.57L279.402 222.57L279.402 222.57L279.402 222.571L279.402 222.571L279.402 222.571L279.402 222.572L279.402 222.572L279.402 222.572L279.402 222.572L279.402 222.573L279.402 222.573L279.402 222.573L279.402 222.574L279.402 222.574L279.402 222.574L279.402 222.575L279.402 222.575L279.402 222.575L279.402 222.575L279.402 222.576L279.402 222.576L279.402 222.576L279.401 222.577L279.401 222.577L279.401 222.577L279.401 222.578L279.401 222.578L279.401 222.578L279.401 222.579L279.401 222.579L279.401 222.579L279.401 222.58L279.401 222.58L279.401 222.58L279.401 222.581L279.401 222.581L279.401 222.581L279.401 222.582L279.401 222.582L279.401 222.582L279.401 222.583L279.401 222.583L279.401 222.583L279.401 222.584L279.401 222.584L279.401 222.584L279.401 222.585L279.401 222.585L279.401 222.585L279.401 222.586L279.401 222.586L279.401 222.586L279.401 222.587L279.401 222.587L279.401 222.588L279.401 222.588L279.401 222.588L279.401 222.589L279.401 222.589L279.401 222.589L279.4 222.59L279.4 222.59L279.4 222.59L279.4 222.591L279.4 222.591L279.4 222.592L279.4 222.592L279.4 222.592L279.4 222.593L279.4 222.593L279.4 222.593L279.4 222.594L279.4 222.594L279.4 222.594L279.4 222.595L279.4 222.595L279.4 222.596L279.4 222.596L279.4 222.596L279.4 222.597L279.4 222.597L279.4 222.598L279.4 222.598L279.4 222.598L279.4 222.599L279.4 222.599L279.4 222.599L279.4 222.6L279.4 222.6L279.4 222.601L279.4 222.601L279.4 222.601L279.4 222.602L279.4 222.602L279.4 222.603L279.399 222.603L279.399 222.603L279.399 222.604L279.399 222.604L279.399 222.605L279.399 222.605L279.399 222.605L279.399 222.606L279.399 222.606L279.399 222.607L279.399 222.607L279.399 222.607L279.399 222.608L279.399 222.608L279.399 222.609L279.399 222.609L279.399 222.609L279.399 222.61L279.399 222.61L279.399 222.611L279.399 222.611L279.399 222.611L279.399 222.612L279.399 222.612L279.399 222.613L279.399 222.613L279.399 222.614L279.399 222.614L279.399 222.614L279.399 222.615L279.399 222.615L279.399 222.616L279.399 222.616L279.398 222.616L279.398 222.617L279.398 222.617L279.398 222.618L279.398 222.618L279.398 222.619L279.398 222.619L279.398 222.619L279.398 222.62L279.398 222.62L279.398 222.621L279.398 222.621L279.398 222.621L279.398 222.622L279.398 222.622L279.398 222.623L279.398 222.623L279.398 222.624L279.398 222.624L279.398 222.624L279.398 222.625L279.398 222.625L279.398 222.626L279.398 222.626L279.398 222.627L279.398 222.627L279.398 222.627L279.398 222.628L279.398 222.628L279.398 222.629L279.398 222.629L279.397 222.63L279.397 222.63L279.397 222.63L279.397 222.631L279.397 222.631L279.397 222.632L279.397 222.632L279.397 222.633L279.397 222.633L279.397 222.633L279.397 222.634L279.397 222.634L279.397 222.635L279.397 222.635L279.397 222.636L279.397 222.636L279.397 222.636L279.397 222.637L279.397 222.637L279.397 222.638L279.397 222.638L279.397 222.639L279.397 222.639L279.397 222.639L279.397 222.64L279.397 222.64L279.397 222.641L279.397 222.641L279.397 222.642L279.397 222.642L279.397 222.642L279.396 222.643L279.396 222.643L279.396 222.644L279.396 222.644L279.396 222.645L279.396 222.645L279.396 222.645L279.396 222.646L279.396 222.646L279.396 222.647L279.396 222.647L279.396 222.648L279.396 222.648L279.396 222.648L279.396 222.649L279.396 222.649L279.396 222.65L279.396 222.65L279.396 222.65L279.396 222.651L279.396 222.651L279.396 222.652L279.396 222.652L279.396 222.653L279.396 222.653L279.396 222.653L279.396 222.654L279.396 222.654L279.396 222.655L279.396 222.655L279.396 222.656L279.395 222.656L279.395 222.656L279.395 222.657L279.395 222.657L279.395 222.658L279.395 222.658L279.395 222.658L279.395 222.659L279.395 222.659L279.395 222.66L279.395 222.66L279.395 222.661L279.395 222.661L279.395 222.661L279.395 222.662L279.395 222.662L279.395 222.663L279.395 222.663L279.395 222.663L279.395 222.664L279.395 222.664L279.395 222.665L279.395 222.665L279.395 222.666L279.395 222.666L279.395 222.666L279.395 222.667L279.395 222.667L279.395 222.668L279.395 222.668L279.395 222.668L279.395 222.669L279.394 222.669L279.394 222.67L279.394 222.67L279.394 222.67L279.394 222.671L279.394 222.671L279.394 222.672L279.394 222.672L279.394 222.672L279.394 222.673L279.394 222.673L279.394 222.674L279.394 222.674L279.394 222.674L279.394 222.675L279.394 222.675L279.394 222.676L279.394 222.676L279.394 222.676L279.394 222.677L279.394 222.677L279.394 222.678L279.394 222.678L279.394 222.678L279.394 222.679L279.394 222.679L279.394 222.679L279.394 222.68L279.394 222.68L279.394 222.681L279.394 222.681L279.394 222.681L279.394 222.682L279.394 222.682L279.393 222.682L279.393 222.683L279.393 222.683L279.393 222.684L279.393 222.684L279.393 222.684L279.393 222.685L279.393 222.685L279.393 222.685L279.393 222.686L279.393 222.686L279.393 222.687L279.393 222.687L279.393 222.687L279.393 222.688L279.393 222.688L279.393 222.688L279.393 222.689L279.393 222.689L279.393 222.689L279.393 222.69L279.393 222.69L279.393 222.69L279.393 222.691L279.393 222.691L279.393 222.692L279.393 222.692L279.393 222.692L279.393 222.693L279.393 222.693L279.393 222.693L279.393 222.694L279.393 222.694L279.393 222.694L279.393 222.695L279.393 222.695L279.393 222.695L279.392 222.696L279.392 222.696L279.392 222.696L279.392 222.697L279.392 222.697L279.392 222.697L279.392 222.698L279.392 222.698L279.392 222.698L279.392 222.699L279.392 222.699L279.392 222.699L279.392 222.7L279.392 222.7L279.392 222.7L279.392 222.7L279.392 222.701L279.392 222.701L279.392 222.701L279.392 222.702L279.392 222.702L279.392 222.702L279.392 222.703L279.392 222.703L279.392 222.703L279.392 222.704L279.392 222.704L279.392 222.704L279.392 222.704L279.392 222.705L279.392 222.705L279.392 222.705L279.392 222.706L279.392 222.706L279.392 222.706L279.392 222.706L279.392 222.707L279.392 222.707L279.392 222.707L279.392 222.708L279.392 222.708L279.392 222.708L279.392 222.708L279.391 222.709L279.391 222.709L279.391 222.709L279.391 222.709L279.391 222.71L279.391 222.71L279.391 222.71L279.391 222.71L279.391 222.711L279.391 222.711L279.391 222.711L279.391 222.711L279.391 222.712L279.391 222.712L279.391 222.712L279.391 222.712L279.391 222.713L279.391 222.713L279.391 222.713L279.391 222.713L279.391 222.714L279.391 222.714L279.391 222.714L279.391 222.714L279.391 222.715L279.391 222.715L279.391 222.715L279.391 222.715L279.391 222.715L279.391 222.716L279.391 222.716L279.391 222.716L279.391 222.716L279.391 222.716L279.391 222.717L279.391 222.717L279.391 222.717L279.391 222.717L279.391 222.717L279.391 222.718L279.391 222.718L279.391 222.718L279.391 222.718L279.391 222.718L279.391 222.719L279.391 222.719L279.391 222.719L279.391 222.719L279.391 222.719L279.391 222.72L279.391 222.72L279.391 222.72L279.391 222.72L279.391 222.72L279.391 222.72L279.391 222.721L279.391 222.721L279.391 222.721L279.391 222.721L279.391 222.721L279.391 222.721L279.391 222.721L279.391 222.722L279.391 222.722L279.39 222.722L279.39 222.722L279.39 222.722L279.39 222.722L279.39 222.722C279.361 223.112 279.196 223.457 278.915 223.69C278.628 223.927 278.251 224.034 277.886 223.989L277.877 223.988L277.869 223.987L277.704 223.975C277.591 223.943 277.483 223.935 277.409 223.93L277.398 223.929C272.299 223.543 267.845 227.367 267.46 232.464C267.074 237.561 270.901 242.012 276 242.397C278.223 242.565 280.435 241.922 282.23 240.589C282.641 240.286 283.184 240.239 283.633 240.461C284.078 240.681 284.369 241.151 284.376 241.658C284.398 246.366 288.087 250.325 292.781 250.68C295.918 250.918 298.919 249.532 300.794 246.982M276.042 221.81L300.513 246.774M276.042 221.81L276.159 221.233M276.042 221.81L276.159 221.233M300.794 246.982C300.794 246.982 300.795 246.982 300.795 246.981L300.513 246.774M300.794 246.982C300.794 246.982 300.794 246.982 300.794 246.982L300.513 246.774M300.794 246.982C301.235 246.386 302.071 246.252 302.676 246.693M300.513 246.774C301.068 246.024 302.122 245.855 302.883 246.41C303.633 246.965 303.803 248.018 303.247 248.78C300.749 252.176 296.75 254.023 292.564 253.706C287.363 253.313 283.083 249.599 281.776 244.755C281.794 244.747 281.812 244.739 281.83 244.731L281.688 244.411L281.348 244.492C281.352 244.511 281.357 244.53 281.362 244.549C279.611 245.262 277.701 245.568 275.794 245.424C269.031 244.912 263.944 238.996 264.455 232.237C264.931 225.951 270.073 221.116 276.23 220.88L276.159 221.233M302.676 246.693C302.676 246.692 302.675 246.692 302.675 246.692L302.883 246.411L302.677 246.693C302.677 246.693 302.676 246.693 302.676 246.693ZM302.676 246.693C303.272 247.134 303.405 247.969 302.965 248.573M302.965 248.573C302.965 248.573 302.965 248.572 302.965 248.572L303.247 248.779L302.964 248.573C302.965 248.573 302.965 248.573 302.965 248.573ZM302.965 248.573C300.538 251.873 296.655 253.665 292.59 253.357C287.423 252.966 283.189 249.197 282.029 244.33L281.931 243.921L281.547 244.091C279.761 244.879 277.788 245.224 275.821 245.075C269.25 244.578 264.307 238.83 264.804 232.263C265.264 226.186 270.215 221.504 276.159 221.233M289.942 215.06C289.799 215.029 289.656 215.001 289.512 214.976C289.577 214.916 289.643 214.856 289.71 214.797L289.942 215.06ZM289.942 215.06L289.868 215.402C289.786 215.384 289.705 215.367 289.623 215.352C289.727 215.253 289.833 215.156 289.942 215.06ZM294.423 212.526C294.599 212.467 294.775 212.413 294.949 212.364C294.871 212.48 294.793 212.597 294.717 212.715L294.423 212.526ZM294.423 212.526L294.313 212.193C294.453 212.147 294.592 212.103 294.731 212.063C294.626 212.215 294.524 212.369 294.423 212.526Z" fill="#91E0FF" stroke="#C2F2FF" stroke-width="0.7"/>
<path d="M321.576 223.734C316.6 222.17 311.479 222.628 307.078 224.991L306.687 225.214C306.052 225.577 305.826 226.393 306.191 227.043C306.554 227.677 307.371 227.903 308.021 227.538C311.848 225.35 316.385 224.91 320.773 226.292L320.773 226.292C325.205 227.689 328.961 230.777 331.362 234.964L331.363 234.965C331.593 235.368 331.995 235.604 332.424 235.637C332.677 235.656 332.943 235.598 333.194 235.46C333.827 235.096 334.053 234.281 333.688 233.632C330.951 228.847 326.651 225.329 321.576 223.734Z" fill="#91E0FF" stroke="#C2F2FF" stroke-width="0.7"/>
<g clip-path="url(#clip0_7_11)">
<path d="M1210.2 239.938C1201.07 235.53 1189.94 233.738 1179.16 232.581C1179.11 232.486 1179.05 232.375 1178.95 232.28C1166.42 220.119 1151.6 208.893 1135.4 202.122C1132.65 200.981 1129.15 200.426 1129.37 204.485C1129.54 207.815 1133.48 212.111 1135.13 214.981C1138.01 219.976 1140.77 225.081 1144.04 229.822C1134.29 229.457 1124.5 229.505 1114.75 229.965C1114.77 225.287 1112.52 216.25 1106.73 216.805C1100.07 217.439 1101.26 228.395 1101.54 233.168C1097.29 233.405 1093.17 234.23 1089.18 235.736C1086.7 236.672 1083.71 237.607 1084.06 240.699C1084.09 241.032 1084.42 241.317 1084.72 241.413C1091.3 243.426 1098.18 245.281 1105.06 245.9C1102.78 249.261 1100.86 253.399 1104.64 254.43C1107.13 255.112 1110.74 252.971 1112.83 251.83C1114.29 251.053 1115.67 250.149 1116.99 249.15C1125.23 250.91 1133.52 252.48 1141.8 254.065C1135.97 261.835 1131.19 270.381 1126.26 278.768C1125.11 280.75 1113.83 295.448 1122 295.464C1123.57 295.464 1125.31 293.879 1126.58 293.149C1129.62 291.405 1132.65 289.629 1135.65 287.806C1141.64 284.159 1147.54 280.354 1153.33 276.374C1160.84 271.205 1169.99 265.894 1175.51 258.235C1175.57 258.521 1175.78 258.774 1176.14 258.806C1185.44 259.615 1194.73 260.36 1204.03 260.994C1208.68 261.311 1216.45 263.373 1220.83 260.709C1230.21 255.001 1215.31 242.348 1210.22 239.89L1210.2 239.938ZM1208.19 241.936C1208.43 241.888 1208.54 241.714 1208.55 241.524C1209.09 241.777 1209.63 241.999 1210.15 242.285C1212.2 243.379 1215.78 246.058 1218.29 249.055C1215.58 249.626 1212.8 249.975 1210.06 249.277C1208.43 248.865 1206.54 247.913 1205.95 246.233C1205.32 244.441 1206.22 242.316 1208.2 241.936H1208.19ZM1145.31 229.537C1142.4 223.052 1138.66 216.916 1135.17 210.716C1133.56 207.846 1129.96 203.137 1135.62 204.675C1138.92 205.579 1142.48 208.068 1145.45 209.733C1156.47 215.933 1166.57 223.559 1175.75 232.232C1172.02 231.868 1168.38 231.566 1164.9 231.233C1158.4 230.599 1151.89 230.155 1145.37 229.886C1145.37 229.775 1145.37 229.664 1145.32 229.537H1145.31ZM1154.26 273.251C1145.91 278.99 1137.36 284.429 1128.59 289.518C1127.83 289.962 1123.33 293.118 1122.49 292.991C1119.32 292.483 1123.19 288.25 1123.96 286.886C1126.63 282.241 1129.37 277.643 1132.08 273.044C1137.39 263.991 1142.8 255.112 1150.09 247.501C1150.19 247.533 1150.28 247.565 1150.38 247.565C1159.84 247.374 1168.66 248.548 1177.52 251.909C1172.51 261.454 1162.87 267.336 1154.23 273.282L1154.26 273.251ZM1215.81 259.662C1213.28 260.344 1209.25 259.282 1206.63 259.123C1203.26 258.901 1199.86 258.679 1196.49 258.473C1189.72 258.061 1182.95 257.744 1176.19 257.427C1176.14 257.427 1176.11 257.427 1176.08 257.443C1177.16 255.841 1178.08 254.16 1178.79 252.353C1178.84 252.226 1178.84 252.099 1178.79 251.988C1179.49 251.592 1179.62 250.292 1178.62 249.879C1169.8 246.248 1160.19 244.631 1150.7 245.805C1150.39 245.234 1149.67 244.885 1149.08 245.472C1146.94 247.66 1144.97 249.975 1143.09 252.353C1134.89 250.831 1126.67 249.309 1118.45 247.945C1119.43 247.121 1120.38 246.248 1121.25 245.313C1122.08 244.425 1120.84 243.03 1119.97 243.902C1118.68 245.218 1117.32 246.423 1115.88 247.517C1115.64 247.485 1115.39 247.438 1115.15 247.39C1114.56 247.295 1114.31 248.056 1114.58 248.468C1112.85 249.657 1111.03 250.704 1109.06 251.528C1108.33 251.83 1106.7 252.876 1105.9 252.638C1103.49 251.861 1104.73 249.943 1105.38 248.738C1106.6 246.486 1108.11 244.393 1109.31 242.142C1109.65 241.508 1108.82 240.984 1108.38 241.539C1107.98 242.047 1107.06 243.125 1106.06 244.457C1105.97 244.346 1105.84 244.251 1105.67 244.219C1102.51 243.569 1099.32 243.109 1096.18 242.427C1094.2 241.999 1089.02 241.587 1087.61 240.239C1086.5 240.192 1086.43 239.637 1087.42 238.559C1087.86 238.368 1088.3 238.178 1088.73 237.988C1090.02 237.195 1092.41 236.64 1093.93 236.212C1096.63 235.451 1099.34 234.928 1102.1 234.5C1102.65 234.753 1103.43 234.531 1103.38 233.754C1103.29 231.661 1103.26 229.584 1103.3 227.491C1103.34 226.255 1103.35 224.97 1103.49 223.749C1103.64 223.02 1103.78 222.291 1103.92 221.561C1104.3 219.595 1105.4 218.945 1107.19 219.595C1109.65 219.675 1109.61 219.786 1110.85 221.878C1111.37 222.782 1111.79 223.702 1112.15 224.685C1112.83 226.508 1113.17 228.348 1113.39 230.25C1112.67 230.853 1112.82 232.248 1113.99 232.216C1138.47 231.17 1162.92 232.359 1187.12 236.275C1193.81 237.354 1201.02 238.273 1207.38 240.937C1204.19 241.428 1203.32 245.757 1205.22 248.199C1208.27 252.099 1214.93 251.798 1219.3 250.355C1221.86 254.049 1222.25 257.902 1215.8 259.615L1215.81 259.662Z" fill="#91E0FF"/>
<path d="M1072.19 238.146C1051.28 212.873 1010.12 201.916 980.233 217.312C972.02 211.43 961.84 207.513 952.882 204.58C931.683 197.667 907.44 193.878 887.034 205.183C881.659 208.163 875.856 213.095 871.416 218.945C862.902 216.155 853.452 215.108 846.713 214.744C825.07 213.602 802.619 219.484 788.206 236.497C787.54 237.29 788.682 238.432 789.348 237.639C808.549 214.997 842.828 211.985 869.799 220.356C869.957 220.404 870.116 220.467 870.274 220.515C864.233 229.204 861.364 239.684 867.119 248.944C875.174 261.898 891.521 255.128 891.822 241.127C892.076 229.854 883.545 223.321 873.176 219.564C877.314 214.014 882.927 209.559 889.031 206.372C905.68 197.683 924.96 199.015 942.607 203.597C954.436 206.673 968.151 210.637 978.6 218.168C975.381 219.96 972.289 222.053 969.387 224.495C958.225 233.913 952.105 254.303 966.946 263.864C981.247 273.076 996.802 257.046 995.819 242.713C995.105 232.296 989.587 224.558 982.056 218.66C1012.26 204.501 1049.84 214.204 1071.53 238.812C1071.94 239.272 1072.58 238.606 1072.19 238.146ZM889.475 235.911C892.758 246.756 882.42 260.645 871.305 251.1C862.886 243.87 866.326 230.456 871.257 222.37C871.511 221.942 871.812 221.546 872.082 221.133C879.344 223.718 887.129 228.189 889.46 235.911H889.475ZM988.906 228.585C994.043 236.291 996.358 246.835 991.268 255.159C985.846 264.038 973.114 268.415 965.138 260.027C951.058 245.218 966.422 226.651 980.36 219.484C983.657 222.085 986.575 225.081 988.906 228.585Z" fill="#91E0FF"/>
<path d="M840.308 208.116C832.126 206.673 823.881 208.1 816.382 211.588C815.969 211.779 816.271 212.508 816.699 212.333C824.325 209.131 831.984 208.37 840.149 209.257C840.799 209.321 840.958 208.227 840.308 208.1V208.116Z" fill="#91E0FF"/>
<path d="M1003.29 256.634C1001.19 262.389 996.707 266.734 990.809 268.446C990.396 268.573 990.571 269.207 990.983 269.096C997.183 267.495 1002.24 262.992 1004.38 256.935C1004.62 256.237 1003.54 255.952 1003.29 256.634Z" fill="#91E0FF"/>
<path d="M1223 239.748C1222.6 239.526 1222.28 240.097 1222.65 240.35C1227.36 243.648 1229.96 247.897 1231.46 253.399C1231.64 254.034 1232.53 253.748 1232.43 253.13C1231.59 247.628 1227.74 242.538 1223 239.764V239.748Z" fill="#91E0FF"/>
</g>
<path d="M1427.7 184.373L1427.38 184.51C1427.04 183.722 1426.13 183.349 1425.33 183.686C1424.54 184.024 1424.17 184.932 1424.51 185.73C1425.87 188.922 1429.94 194.13 1436.49 194.268C1437.58 194.291 1438.74 194.166 1439.98 193.88C1439.98 193.88 1439.99 193.878 1440 193.872C1440.02 193.864 1440.07 193.845 1440.12 193.832L1440.68 193.704L1440.54 194.26C1439.18 199.563 1434.28 203.427 1428.67 203.309C1424.5 203.221 1420.75 201.027 1418.61 197.437C1418.18 196.731 1417.29 196.472 1416.55 196.842C1415.5 197.383 1414.35 197.64 1413.16 197.615C1410.69 197.563 1408.46 196.282 1407.17 194.166L1407.17 194.163C1406.9 193.713 1406.4 193.431 1405.87 193.42L1405.87 193.42L1405.87 193.42L1405.87 193.42L1405.87 193.42L1405.87 193.42L1405.87 193.42L1405.87 193.42L1405.87 193.42L1405.87 193.42L1405.87 193.42L1405.87 193.42L1405.87 193.42L1405.87 193.42L1405.87 193.42L1405.87 193.42L1405.87 193.42L1405.87 193.42L1405.87 193.42L1405.87 193.42L1405.87 193.42L1405.87 193.42L1405.87 193.42L1405.87 193.42L1405.87 193.42L1405.87 193.42L1405.87 193.42L1405.87 193.42L1405.87 193.42L1405.87 193.42L1405.87 193.42L1405.87 193.42L1405.87 193.42L1405.87 193.42L1405.87 193.42L1405.87 193.42L1405.87 193.42L1405.87 193.42L1405.87 193.42L1405.87 193.42L1405.87 193.42L1405.87 193.42L1405.87 193.42L1405.87 193.42L1405.86 193.42L1405.86 193.42L1405.86 193.42L1405.86 193.42L1405.86 193.42L1405.86 193.42L1405.86 193.42L1405.86 193.42L1405.86 193.42L1405.86 193.42L1405.86 193.42L1405.86 193.42L1405.86 193.42L1405.86 193.42L1405.86 193.42L1405.86 193.42L1405.86 193.42L1405.86 193.42L1405.86 193.42L1405.86 193.42L1405.86 193.42L1405.86 193.42L1405.86 193.42L1405.86 193.42L1405.86 193.42L1405.86 193.42L1405.86 193.42L1405.86 193.42L1405.86 193.42L1405.86 193.42L1405.86 193.42L1405.86 193.42L1405.86 193.42L1405.86 193.42L1405.86 193.42L1405.86 193.42L1405.86 193.42L1405.86 193.419L1405.86 193.419L1405.86 193.419L1405.86 193.419L1405.86 193.419L1405.86 193.419L1405.86 193.419L1405.86 193.419L1405.86 193.419L1405.86 193.419L1405.86 193.419L1405.86 193.419L1405.86 193.419L1405.86 193.419L1405.86 193.419L1405.86 193.419L1405.86 193.419L1405.86 193.419L1405.86 193.419L1405.86 193.419L1405.86 193.419L1405.86 193.419L1405.86 193.419L1405.86 193.419L1405.86 193.419L1405.86 193.419L1405.86 193.419L1405.86 193.419L1405.86 193.419L1405.86 193.419L1405.85 193.419L1405.85 193.419L1405.85 193.419L1405.85 193.419L1405.85 193.419L1405.85 193.419L1405.85 193.419L1405.85 193.419L1405.85 193.419L1405.85 193.419L1405.85 193.419L1405.85 193.419L1405.85 193.419L1405.85 193.419L1405.85 193.419L1405.85 193.419L1405.85 193.419L1405.85 193.419L1405.85 193.419L1405.85 193.419L1405.85 193.419L1405.85 193.419L1405.85 193.419L1405.85 193.419L1405.85 193.419L1405.85 193.419L1405.85 193.419L1405.85 193.419L1405.85 193.419L1405.85 193.419L1405.85 193.419L1405.85 193.419L1405.85 193.419L1405.85 193.419L1405.85 193.419L1405.85 193.419L1405.85 193.419L1405.85 193.419L1405.85 193.419L1405.85 193.419L1405.85 193.419L1405.85 193.419L1405.85 193.419L1405.85 193.419L1405.85 193.419L1405.85 193.419L1405.85 193.419L1405.85 193.419L1405.85 193.419L1405.85 193.419L1405.85 193.419L1405.85 193.419L1405.85 193.419L1405.85 193.419L1405.85 193.419L1405.85 193.419L1405.85 193.419L1405.85 193.419L1405.85 193.419L1405.85 193.419L1405.85 193.419L1405.85 193.419L1405.85 193.419L1405.85 193.419L1405.85 193.419L1405.85 193.419L1405.85 193.419L1405.84 193.419L1405.84 193.419L1405.84 193.419L1405.84 193.419L1405.84 193.419L1405.84 193.419L1405.84 193.419L1405.84 193.419L1405.84 193.419L1405.84 193.419L1405.84 193.419L1405.84 193.419L1405.84 193.419L1405.84 193.419L1405.84 193.419L1405.84 193.419L1405.84 193.419L1405.84 193.419L1405.84 193.419L1405.84 193.419L1405.84 193.419L1405.84 193.419L1405.84 193.419L1405.84 193.419L1405.84 193.419L1405.84 193.419L1405.84 193.419L1405.84 193.419L1405.84 193.419L1405.84 193.419L1405.84 193.419L1405.84 193.419L1405.84 193.419L1405.84 193.419L1405.84 193.419L1405.84 193.419L1405.84 193.419L1405.84 193.419L1405.84 193.419L1405.84 193.419L1405.84 193.419L1405.84 193.419L1405.84 193.419L1405.84 193.419L1405.84 193.419L1405.84 193.419L1405.84 193.419L1405.84 193.419L1405.84 193.419L1405.84 193.419L1405.84 193.419L1405.84 193.419L1405.84 193.419L1405.84 193.419L1405.84 193.419L1405.84 193.419L1405.84 193.419L1405.84 193.419L1405.84 193.419L1405.84 193.419L1405.84 193.419L1405.84 193.419L1405.84 193.419L1405.84 193.419L1405.84 193.419L1405.84 193.419L1405.84 193.419L1405.83 193.419L1405.83 193.419L1405.83 193.419L1405.83 193.419L1405.83 193.419L1405.83 193.419L1405.83 193.419L1405.83 193.419L1405.83 193.419L1405.83 193.419L1405.83 193.419L1405.83 193.419L1405.83 193.419L1405.83 193.419L1405.83 193.419L1405.83 193.419L1405.83 193.419L1405.83 193.419L1405.83 193.419L1405.83 193.419L1405.83 193.419L1405.83 193.419L1405.83 193.419L1405.83 193.419L1405.83 193.419L1405.83 193.419L1405.83 193.419L1405.83 193.419L1405.83 193.419L1405.83 193.419L1405.83 193.419L1405.83 193.419L1405.83 193.419L1405.83 193.419L1405.83 193.419L1405.83 193.419L1405.83 193.419L1405.83 193.419L1405.83 193.419L1405.83 193.419L1405.83 193.419L1405.83 193.419L1405.83 193.419L1405.83 193.419L1405.83 193.419L1405.83 193.419L1405.83 193.419L1405.83 193.419L1405.83 193.419L1405.83 193.419L1405.83 193.419L1405.83 193.419L1405.83 193.419L1405.83 193.419L1405.83 193.419L1405.83 193.419L1405.83 193.419L1405.83 193.419L1405.83 193.419L1405.83 193.419L1405.83 193.419L1405.83 193.419L1405.83 193.419L1405.83 193.419L1405.83 193.419L1405.83 193.419L1405.83 193.419L1405.82 193.419L1405.82 193.419L1405.82 193.419L1405.82 193.419L1405.82 193.419L1405.82 193.419L1405.82 193.419L1405.82 193.419L1405.82 193.419L1405.82 193.419L1405.82 193.419L1405.82 193.419L1405.82 193.419L1405.82 193.419L1405.82 193.419L1405.82 193.419L1405.82 193.419L1405.82 193.419L1405.82 193.419L1405.82 193.419L1405.82 193.419L1405.82 193.419L1405.82 193.419L1405.82 193.419L1405.82 193.419L1405.82 193.419L1405.82 193.419L1405.82 193.419L1405.82 193.419L1405.82 193.419L1405.82 193.419L1405.82 193.419L1405.82 193.419L1405.82 193.419L1405.82 193.419L1405.82 193.419L1405.82 193.419L1405.82 193.419L1405.82 193.419L1405.82 193.419L1405.82 193.419L1405.82 193.419L1405.82 193.419L1405.82 193.419L1405.82 193.419L1405.82 193.419L1405.82 193.419L1405.82 193.419L1405.82 193.419L1405.82 193.419L1405.82 193.419L1405.82 193.419L1405.82 193.419L1405.82 193.419L1405.82 193.419L1405.82 193.419L1405.82 193.419L1405.82 193.419L1405.82 193.419L1405.82 193.419L1405.82 193.419L1405.82 193.419L1405.82 193.419L1405.82 193.419L1405.82 193.419L1405.82 193.419L1405.82 193.419L1405.81 193.419L1405.81 193.419L1405.81 193.419L1405.81 193.419L1405.81 193.419L1405.81 193.419L1405.81 193.419L1405.81 193.419L1405.81 193.419L1405.81 193.419L1405.81 193.419L1405.81 193.419L1405.81 193.419L1405.81 193.419L1405.81 193.419L1405.81 193.419L1405.81 193.419L1405.81 193.419L1405.81 193.419L1405.81 193.419L1405.81 193.418L1405.81 193.418L1405.81 193.418L1405.81 193.418L1405.81 193.418L1405.81 193.418L1405.81 193.418L1405.81 193.418L1405.81 193.418L1405.81 193.418L1405.81 193.418L1405.81 193.418L1405.81 193.418L1405.81 193.418L1405.81 193.418L1405.81 193.418L1405.81 193.418L1405.81 193.418L1405.81 193.418L1405.81 193.418L1405.81 193.418L1405.81 193.418L1405.81 193.418L1405.81 193.418L1405.81 193.418L1405.81 193.418L1405.81 193.418L1405.81 193.418L1405.81 193.418L1405.81 193.418L1405.81 193.418L1405.81 193.418L1405.81 193.418L1405.81 193.418L1405.81 193.418L1405.81 193.418L1405.81 193.418L1405.81 193.418L1405.81 193.418L1405.81 193.418L1405.81 193.418L1405.81 193.418L1405.81 193.418L1405.81 193.418L1405.81 193.418L1405.81 193.418L1405.81 193.418L1405.8 193.418L1405.8 193.418L1405.8 193.418L1405.8 193.418L1405.8 193.418L1405.8 193.418L1405.8 193.418L1405.8 193.418L1405.8 193.418L1405.8 193.418L1405.8 193.418L1405.8 193.418L1405.8 193.418L1405.8 193.418L1405.8 193.418L1405.8 193.418L1405.8 193.418L1405.8 193.418L1405.8 193.418L1405.8 193.418L1405.8 193.418C1405.26 193.43 1404.75 193.739 1404.48 194.224C1401.58 199.468 1396.06 202.637 1390.09 202.512C1383.51 202.373 1377.84 198.317 1375.5 192.363L1375.26 191.769L1375.89 191.891C1376.46 192.003 1377.01 192.076 1377.54 192.086C1381.75 192.175 1385.02 189.358 1386.4 187.403L1386.4 187.402C1386.9 186.706 1386.73 185.723 1386.02 185.23L1386.02 185.228C1385.32 184.736 1384.34 184.903 1383.85 185.61L1383.84 185.611C1383.65 185.883 1382.69 187.15 1381.12 188.046C1379.53 188.952 1377.32 189.479 1374.69 188.233L1374.83 187.946L1374.69 188.233C1371.99 186.951 1371.03 184.81 1370.77 182.973C1370.51 181.165 1370.91 179.644 1370.96 179.486C1371.18 178.656 1370.7 177.792 1369.87 177.555C1369.03 177.319 1368.18 177.809 1367.94 178.641C1367.27 181.061 1367.18 185.653 1370.31 188.9L1370.75 189.351L1370.13 189.485C1369.47 189.628 1368.82 189.719 1368.15 189.758L1368.14 189.758C1360.83 190.154 1354.51 184.523 1354.11 177.192L1354.11 177.032L1354.12 177.019C1353.81 169.759 1359.42 163.563 1366.7 163.157C1367.87 163.09 1369.06 163.194 1370.26 163.454C1370.69 163.546 1371.16 163.451 1371.51 163.189C1371.87 162.926 1372.1 162.526 1372.14 162.078L1372.14 162.077C1372.68 156.282 1377.68 151.834 1383.5 151.956C1384.7 151.981 1385.87 152.23 1386.97 152.62L1387.55 152.824L1387.08 153.218C1384.38 155.482 1383.15 159.249 1384.28 162.819L1384.28 162.821C1384.48 163.479 1385.07 163.899 1385.73 163.912C1385.89 163.916 1386.06 163.89 1386.24 163.838C1387.05 163.583 1387.52 162.697 1387.26 161.884L1387.25 161.881C1386.29 158.783 1388.01 155.485 1391.1 154.506L1391.1 154.505C1392.6 154.036 1394.19 154.178 1395.58 154.897L1395.58 154.899C1396.9 155.591 1397.88 156.738 1398.38 158.129L1398.49 158.438L1398.19 158.569C1394.68 160.087 1391.6 162.569 1389.3 165.822L1389.3 165.824C1388.79 166.519 1388.96 167.501 1389.67 167.994L1389.67 167.998C1389.94 168.189 1390.24 168.279 1390.54 168.285C1391.04 168.296 1391.53 168.067 1391.85 167.625L1391.85 167.625C1394.48 163.9 1398.3 161.338 1402.61 160.425C1406.85 159.524 1411.07 160.354 1414.47 162.752L1414.47 162.754C1415.17 163.257 1416.15 163.091 1416.64 162.384L1416.64 162.384L1416.65 162.379C1417.15 161.684 1416.98 160.703 1416.28 160.209L1416.27 160.208C1412.16 157.297 1407.07 156.287 1401.95 157.37L1401.94 157.372L1401.93 157.374C1401.91 157.376 1401.89 157.381 1401.86 157.389L1401.85 157.392C1401.82 157.399 1401.78 157.411 1401.73 157.418L1401.44 157.471L1401.34 157.187C1400.59 154.986 1399.05 153.2 1396.99 152.125L1396.99 152.124C1395.73 151.46 1394.35 151.124 1392.95 151.107L1392.28 151.099L1392.66 150.557C1397.03 144.291 1404.2 140.583 1411.95 140.746C1421.46 140.945 1429.97 147.119 1433.14 156.119C1433.41 156.898 1434.24 157.33 1435.04 157.108L1435.04 157.108C1436.13 156.802 1437.27 156.655 1438.4 156.679C1444.75 156.812 1449.8 162.086 1449.67 168.423L1449.67 168.505L1449.65 168.527C1449.65 168.532 1449.65 168.537 1449.65 168.543C1449.65 168.584 1449.65 168.627 1449.65 168.639L1449.65 168.639L1449.65 168.648C1449.63 169.09 1449.79 169.52 1450.09 169.825C1450.4 170.136 1450.82 170.307 1451.25 170.275L1451.26 170.274L1451.28 170.274L1451.52 170.279C1451.66 170.269 1451.79 170.272 1451.91 170.275L1451.92 170.275C1458.65 170.416 1464.03 176.016 1463.89 182.748C1463.74 189.48 1458.14 194.849 1451.41 194.707C1448.95 194.656 1446.56 193.844 1444.57 192.411L1444.17 192.123L1444.57 191.84C1449.24 188.568 1450.36 182.857 1450.16 179.684C1450.11 178.828 1449.36 178.167 1448.5 178.221C1447.65 178.276 1446.98 179.014 1447.04 179.878L1447.04 179.882C1447.05 180.074 1447.15 182.316 1446.23 184.757C1445.3 187.213 1443.34 189.881 1439.25 190.845C1435.13 191.821 1432.18 190.314 1430.26 188.527C1428.35 186.752 1427.45 184.696 1427.38 184.502L1427.7 184.373ZM1427.7 184.373C1427.29 183.407 1426.17 182.951 1425.2 183.364C1424.23 183.777 1423.77 184.889 1424.19 185.867C1425.57 189.122 1429.73 194.476 1436.48 194.618C1437.53 194.64 1438.64 194.529 1439.81 194.276M1427.7 184.373C1427.83 184.707 1431.21 192.39 1439.17 190.504C1447.07 188.643 1446.71 180.245 1446.69 179.9C1446.62 178.84 1447.43 177.939 1448.48 177.872C1449.53 177.805 1450.44 178.615 1450.51 179.662L1439.81 194.276M1439.81 194.276C1439.83 194.213 1439.85 194.15 1439.86 194.086L1440.04 194.131L1440.04 194.131L1440.2 194.173L1440.28 194.514C1440.28 194.514 1440.28 194.513 1440.28 194.513C1440.28 194.514 1440.28 194.515 1440.26 194.522L1440.26 194.523C1440.24 194.532 1440.19 194.55 1440.14 194.562C1440.14 194.562 1440.14 194.562 1440.14 194.562L1440.12 194.478C1440.11 194.51 1440.1 194.541 1440.09 194.573L1439.81 194.276ZM1375.98 192.62C1378.36 198.234 1383.8 202.029 1390.1 202.162C1395.94 202.284 1401.34 199.184 1404.17 194.054C1404.51 193.462 1405.13 193.08 1405.8 193.068L1405.88 193.07C1406.53 193.083 1407.13 193.428 1407.47 193.983C1408.7 195.998 1410.82 197.216 1413.17 197.265C1414.3 197.289 1415.39 197.044 1416.4 196.529C1417.3 196.077 1418.39 196.393 1418.91 197.258L1375.98 192.62ZM1375.98 192.62C1375.91 192.607 1375.83 192.593 1375.76 192.578L1375.82 192.235L1376.15 192.107C1376.18 192.174 1376.2 192.241 1376.23 192.308C1376.67 192.381 1377.11 192.428 1377.53 192.436C1381.9 192.528 1385.27 189.615 1386.69 187.605C1387.29 186.75 1387.09 185.547 1386.22 184.943C1385.37 184.338 1384.16 184.542 1383.56 185.41C1383.2 185.912 1379.85 190.292 1374.84 187.917C1369.7 185.476 1371.22 179.821 1371.29 179.58C1371.57 178.565 1370.98 177.507 1369.96 177.218L1375.98 192.62ZM1366.51 160.051L1366.28 160.064L1366.26 160.04C1357.32 160.656 1350.49 168.37 1350.98 177.342C1351.48 186.391 1359.27 193.347 1368.31 192.85L1368.31 192.85C1369.47 192.787 1370.64 192.587 1371.78 192.273L1372.1 192.186L1372.21 192.501C1374.74 200.143 1381.78 205.437 1390 205.609C1396.22 205.74 1402.04 202.869 1405.72 197.975L1405.96 197.662L1406.24 197.931C1408.07 199.659 1410.49 200.671 1413.08 200.726C1414.21 200.75 1415.34 200.576 1416.42 200.24L1416.66 200.167L1416.81 200.364C1419.6 204.088 1423.89 206.321 1428.59 206.42C1435.37 206.562 1441.34 202.113 1443.33 195.861L1443.46 195.441L1443.84 195.666C1446.11 197.011 1448.69 197.763 1451.34 197.818C1459.8 197.996 1466.84 190.897 1467.01 182.801C1467.18 174.701 1461.02 167.927 1453.07 167.199L1452.78 167.172L1452.75 166.881C1452.11 159.545 1446 153.7 1438.48 153.542C1437.61 153.524 1436.73 153.593 1435.87 153.725L1435.6 153.766L1435.49 153.516C1431.5 144.159 1422.26 137.837 1412.02 137.622C1402.74 137.427 1394.22 142.079 1389.35 149.879L1389.19 150.136L1388.91 150.014C1387.22 149.27 1385.39 148.87 1383.54 148.831C1376.75 148.689 1370.86 153.395 1369.33 159.835L1369.26 160.132L1368.96 160.102C1368.13 160.023 1367.31 160.006 1366.51 160.051Z" fill="#91E0FF" stroke="#C2F2FF" stroke-width="0.7"/>
<path d="M-77.3152 326.831L-77.3065 326.991C-76.6868 338.446 -66.8171 347.247 -55.378 346.628L-55.3769 346.628C-54.3301 346.568 -53.3023 346.426 -52.2735 346.201L-51.6611 346.068L-52.0959 345.617C-57.0994 340.422 -56.9584 333.089 -55.8883 329.234C-55.4838 327.815 -54.0234 326.977 -52.5917 327.38C-51.1772 327.783 -50.3522 329.259 -50.7378 330.676C-50.8033 330.906 -51.437 333.278 -51.0286 336.095C-50.6159 338.942 -49.1339 342.254 -44.9477 344.242L-44.8212 343.975L-44.9477 344.242C-40.8769 346.174 -37.4568 345.357 -34.9972 343.954C-32.5527 342.559 -31.0526 340.587 -30.7581 340.17L-30.757 340.169C-29.9137 338.96 -28.234 338.675 -27.0428 339.518L-27.0409 339.519C-25.8317 340.362 -25.5466 342.04 -26.3891 343.23L-26.3893 343.231C-28.5917 346.348 -33.8063 350.849 -40.5509 350.707C-41.3901 350.689 -42.2726 350.573 -43.1823 350.395L-43.8086 350.273L-43.5752 350.867C-39.9119 360.188 -31.0399 366.537 -20.7343 366.753C-11.3879 366.95 -2.74917 361.989 1.79247 353.781C2.2556 352.953 3.11978 352.422 4.0559 352.404L4.056 352.404L4.05624 352.404L4.05647 352.404L4.05671 352.404L4.05695 352.404L4.05718 352.404L4.05741 352.404L4.05765 352.404L4.05789 352.404L4.05812 352.404L4.05836 352.404L4.0586 352.404L4.05883 352.404L4.05907 352.404L4.0593 352.404L4.05954 352.404L4.05978 352.404L4.06001 352.404L4.06024 352.404L4.06048 352.404L4.06072 352.404L4.06095 352.404L4.06119 352.404L4.06143 352.404L4.06166 352.404L4.0619 352.404L4.06213 352.404L4.06237 352.404L4.06261 352.404L4.06284 352.404L4.06307 352.404L4.06331 352.404L4.06355 352.404L4.06378 352.404L4.06402 352.404L4.06426 352.404L4.06449 352.404L4.06473 352.404L4.06496 352.404L4.0652 352.404L4.06544 352.404L4.06567 352.404L4.0659 352.404L4.06614 352.404L4.06638 352.404L4.06661 352.404L4.06685 352.404L4.06709 352.404L4.06732 352.404L4.06756 352.404L4.06779 352.404L4.06803 352.404L4.06827 352.404L4.0685 352.404L4.06873 352.404L4.06897 352.404L4.06921 352.404L4.06944 352.404L4.06968 352.404L4.06991 352.404L4.07015 352.404L4.07039 352.404L4.07062 352.404L4.07086 352.404L4.0711 352.404L4.07133 352.404L4.07156 352.404L4.0718 352.404L4.07204 352.404L4.07227 352.404L4.07251 352.404L4.07274 352.404L4.07298 352.404L4.07322 352.404L4.07345 352.404L4.07369 352.404L4.07393 352.404L4.07416 352.404L4.07439 352.404L4.07463 352.404L4.07487 352.404L4.0751 352.404L4.07534 352.404L4.07557 352.404L4.07581 352.404L4.07605 352.404L4.07628 352.404L4.07652 352.404L4.07676 352.404L4.07699 352.404L4.07722 352.404L4.07746 352.404L4.0777 352.404L4.07793 352.404L4.07817 352.404L4.0784 352.404L4.07864 352.404L4.07888 352.404L4.07911 352.404L4.07935 352.405L4.07959 352.405L4.07982 352.405L4.08005 352.405L4.08029 352.405L4.08053 352.405L4.08076 352.405L4.081 352.405L4.08123 352.405L4.08147 352.405L4.08171 352.405L4.08194 352.405L4.08218 352.405L4.08242 352.405L4.08265 352.405L4.08288 352.405L4.08312 352.405L4.08335 352.405L4.08359 352.405L4.08383 352.405L4.08406 352.405L4.0843 352.405L4.08454 352.405L4.08477 352.405L4.08501 352.405L4.08525 352.405L4.08548 352.405L4.08571 352.405L4.08595 352.405L4.08618 352.405L4.08642 352.405L4.08666 352.405L4.08689 352.405L4.08713 352.405L4.08737 352.405L4.0876 352.405L4.08784 352.405L4.08808 352.405L4.08831 352.405L4.08854 352.405L4.08878 352.405L4.08901 352.405L4.08925 352.405L4.08949 352.405L4.08972 352.405L4.08996 352.405L4.0902 352.405L4.09043 352.405L4.09067 352.405L4.09091 352.405L4.09114 352.405L4.09137 352.405L4.09161 352.405L4.09184 352.405L4.09208 352.405L4.09232 352.405L4.09255 352.405L4.09279 352.405L4.09303 352.405L4.09326 352.405L4.0935 352.405L4.09374 352.405L4.09397 352.405L4.0942 352.405L4.09444 352.405L4.09467 352.405L4.09491 352.405L4.09515 352.405L4.09538 352.405L4.09562 352.405L4.09586 352.405L4.09609 352.405L4.09633 352.405L4.09657 352.405L4.0968 352.405L4.09703 352.405L4.09727 352.405L4.0975 352.405L4.09774 352.405L4.09798 352.405L4.09821 352.405L4.09845 352.405L4.09869 352.405L4.09892 352.405L4.09916 352.405L4.0994 352.405L4.09963 352.405L4.09986 352.405L4.1001 352.405L4.10033 352.405L4.10057 352.405L4.10081 352.405L4.10104 352.405L4.10128 352.405L4.10152 352.405L4.10175 352.405L4.10199 352.405L4.10223 352.405L4.10246 352.405L4.10269 352.405L4.10293 352.405L4.10316 352.405L4.1034 352.405L4.10364 352.405L4.10387 352.405L4.10411 352.405L4.10435 352.405L4.10458 352.405L4.10482 352.405L4.10506 352.405L4.10529 352.405L4.10552 352.405L4.10576 352.405L4.10599 352.405L4.10623 352.405L4.10647 352.405L4.1067 352.405L4.10694 352.405L4.10718 352.405L4.10741 352.405L4.10765 352.405L4.10789 352.405L4.10812 352.405L4.10835 352.405L4.10859 352.405L4.10882 352.405L4.10906 352.405L4.1093 352.405L4.10953 352.405L4.10977 352.405L4.11001 352.405L4.11024 352.405L4.11048 352.405L4.11072 352.405L4.11095 352.405L4.11118 352.405L4.11142 352.405L4.11165 352.405L4.11189 352.405L4.11213 352.405L4.11236 352.405L4.1126 352.405L4.11284 352.405L4.11307 352.405L4.11331 352.405L4.11355 352.405L4.11378 352.405L4.11401 352.405L4.11425 352.405L4.11448 352.405L4.11472 352.405L4.11496 352.405L4.11519 352.405L4.11543 352.405L4.11567 352.405L4.1159 352.405L4.11614 352.405L4.11638 352.405L4.11661 352.405L4.11684 352.405L4.11708 352.405L4.11731 352.405L4.11755 352.405L4.11779 352.405L4.11802 352.405L4.11826 352.405L4.1185 352.405L4.11873 352.405L4.11897 352.405L4.11921 352.405L4.11944 352.405L4.11967 352.405L4.11991 352.405L4.12014 352.405L4.12038 352.405L4.12062 352.405L4.12085 352.405L4.12109 352.405L4.12133 352.405L4.12156 352.405L4.1218 352.405L4.12204 352.405L4.12227 352.405L4.1225 352.405L4.12274 352.405L4.12297 352.405L4.12321 352.405L4.12345 352.405L4.12368 352.405L4.12392 352.405L4.12416 352.405L4.12439 352.405L4.12463 352.405L4.12486 352.405L4.12509 352.405L4.12533 352.405L4.12557 352.405L4.1258 352.405L4.12604 352.405L4.12628 352.405L4.12651 352.405L4.12675 352.405L4.12699 352.406L4.12722 352.406L4.12746 352.406L4.12769 352.406L4.12792 352.406L4.12816 352.406L4.1284 352.406L4.12863 352.406L4.12887 352.406L4.12911 352.406L4.12934 352.406L4.12958 352.406L4.12982 352.406L4.13005 352.406L4.13029 352.406L4.13052 352.406L4.13075 352.406L4.13099 352.406L4.13123 352.406L4.13146 352.406L4.1317 352.406L4.13194 352.406L4.13217 352.406L4.13241 352.406L4.13265 352.406L4.13288 352.406L4.13312 352.406L4.13335 352.406L4.13358 352.406L4.13382 352.406L4.13406 352.406L4.13429 352.406L4.13453 352.406L4.13477 352.406L4.135 352.406L4.13524 352.406L4.13548 352.406L4.13571 352.406L4.13595 352.406L4.13618 352.406L4.13641 352.406L4.13665 352.406L4.13689 352.406L4.13712 352.406L4.13736 352.406L4.1376 352.406L4.13783 352.406L4.13807 352.406L4.13831 352.406L4.13854 352.406L4.13878 352.406L4.13901 352.406L4.13924 352.406L4.13948 352.406L4.13972 352.406L4.13995 352.406L4.14019 352.406L4.14043 352.406L4.14066 352.406L4.1409 352.406L4.14113 352.406L4.14137 352.406L4.14161 352.406L4.14184 352.406L4.14207 352.406L4.14231 352.406L4.14255 352.406L4.14278 352.406L4.14302 352.406L4.14326 352.406L4.14349 352.406L4.14373 352.406L4.14396 352.406L4.1442 352.406L4.14444 352.406L4.14467 352.406L4.1449 352.406L4.14514 352.406L4.14538 352.406L4.14561 352.406L4.14585 352.406L4.14609 352.406L4.14632 352.406L4.14656 352.406L4.14679 352.406L4.14703 352.406L4.14727 352.406L4.1475 352.406L4.14773 352.406L4.14797 352.406L4.14821 352.406L4.14844 352.406L4.14868 352.406L4.14892 352.406L4.14915 352.406L4.14939 352.406L4.14962 352.406L4.14986 352.406L4.1501 352.406L4.15033 352.406L4.15056 352.406L4.1508 352.406L4.15104 352.406L4.15127 352.406L4.15151 352.406L4.15175 352.406L4.15198 352.406L4.15222 352.406L4.15245 352.406L4.15269 352.406L4.15293 352.406L4.15316 352.406L4.15339 352.406L4.15363 352.406L4.15387 352.406L4.1541 352.406L4.15434 352.406L4.15457 352.406L4.15481 352.406L4.15505 352.406L4.15528 352.406L4.15552 352.406L4.15576 352.406L4.15599 352.406L4.15622 352.406L4.15646 352.406L4.1567 352.406L4.15693 352.406L4.15717 352.406L4.1574 352.406L4.15764 352.406L4.15788 352.406L4.15811 352.406L4.15835 352.406L4.15859 352.406L4.15882 352.406L4.15906 352.406L4.15929 352.406L4.15953 352.406L4.15976 352.406L4.16 352.406L4.16023 352.406L4.16047 352.406L4.16071 352.406L4.16094 352.406L4.16118 352.406L4.16142 352.406L4.16165 352.406L4.16189 352.406L4.16212 352.406L4.16236 352.406L4.16259 352.406L4.16283 352.406L4.16306 352.406L4.1633 352.406L4.16354 352.406L4.16377 352.406L4.16401 352.406L4.16425 352.406L4.16448 352.406L4.16472 352.406L4.16495 352.406L4.16519 352.406L4.16542 352.406L4.16566 352.406L4.16589 352.406L4.16613 352.406L4.16637 352.406L4.1666 352.406L4.16684 352.406L4.16708 352.406L4.16731 352.406L4.16755 352.406L4.16778 352.406L4.16801 352.406L4.16825 352.406L4.16849 352.406L4.16872 352.406L4.16896 352.406L4.1692 352.406L4.16943 352.406L4.16967 352.406L4.16991 352.406C5.07879 352.425 5.92171 352.907 6.38355 353.677L6.38523 353.68C8.39377 356.961 11.8453 358.946 15.668 359.026C17.5153 359.065 19.2918 358.666 20.9317 357.828M-77.3152 326.831L33.388 340.554C35.5487 345.628 42.0234 353.93 52.4735 354.149C54.2124 354.185 56.0601 353.987 58.0381 353.532L58.039 353.532C58.0481 353.53 58.0588 353.526 58.0971 353.511C58.1298 353.497 58.1902 353.472 58.262 353.456L58.8211 353.329L58.6787 353.884C56.5561 362.163 48.9023 368.195 40.1427 368.011C33.6418 367.875 27.7836 364.449 24.4353 358.845M-77.3152 326.831L-77.2941 326.81M-77.3152 326.831L-77.2941 326.81M20.9317 357.828C20.932 357.828 20.9323 357.828 20.9327 357.827L20.7733 357.516L20.9303 357.829C20.9307 357.828 20.9312 357.828 20.9317 357.828ZM20.9317 357.828C22.1925 357.196 23.713 357.638 24.4353 358.845M24.4353 358.845C24.4352 358.845 24.4352 358.845 24.4351 358.845L24.733 358.667L24.4353 358.845ZM-77.2941 326.81C-77.8232 315.426 -69.0457 305.692 -57.6393 305.056C-55.8111 304.95 -53.9506 305.113 -52.0788 305.52M-77.2941 326.81L-52.0788 305.52M-52.0788 305.52C-52.0791 305.52 -52.0795 305.52 -52.0799 305.52L-52.1525 305.862L-52.0782 305.52C-52.0784 305.52 -52.0786 305.52 -52.0788 305.52ZM-52.0788 305.52C-51.3323 305.678 -50.545 305.515 -49.9324 305.067C-49.3186 304.618 -48.931 303.934 -48.8615 303.17L-48.8614 303.169C-48.0141 294.13 -40.2263 287.19 -31.1479 287.381C-29.273 287.42 -27.4521 287.808 -25.7249 288.417L-25.1461 288.622L-25.6165 289.016C-29.9388 292.638 -31.9121 298.668 -30.1063 304.381L-30.1057 304.383C-29.7562 305.509 -28.7415 306.225 -27.6181 306.248C-27.3407 306.254 -27.0544 306.208 -26.7563 306.122C-25.3619 305.688 -24.5676 304.175 -25.0172 302.783L-25.0182 302.78C-26.5092 297.998 -23.848 292.907 -19.0838 291.395L-19.0826 291.395C-16.7647 290.669 -14.3183 290.888 -12.1655 292L-12.1631 292.001C-10.1324 293.07 -8.61993 294.84 -7.84922 296.988L-7.73841 297.297L-8.03958 297.428C-13.6083 299.839 -18.4935 303.779 -22.1501 308.942L-22.1521 308.944C-23.0116 310.133 -22.7275 311.81 -21.5184 312.653L-21.5134 312.656C-21.0595 312.985 -20.5494 313.137 -20.0317 313.148C-19.1773 313.166 -18.3337 312.775 -17.8017 312.021L-17.8013 312.021C-13.6656 306.183 -7.68956 302.17 -0.945894 300.741C5.69759 299.33 12.294 300.63 17.6149 304.38L17.6181 304.383C18.8079 305.242 20.4858 304.958 21.329 303.749L21.3324 303.745C22.192 302.556 21.9078 300.879 20.6987 300.036L20.6967 300.035C14.1534 295.407 6.07328 293.804 -2.06614 295.523L-2.07712 295.526L-2.08823 295.527C-2.12797 295.533 -2.16749 295.543 -2.21888 295.556C-2.26463 295.568 -2.33267 295.587 -2.40078 295.599L-2.69629 295.652L-2.79336 295.368C-3.99725 291.845 -6.45214 288.986 -9.75789 287.266L-9.75934 287.265C-11.7798 286.202 -13.9886 285.665 -16.2297 285.637L-16.8905 285.629L-16.5126 285.087C-9.65821 275.255 1.58581 269.435 13.7584 269.691C28.6758 270.004 42.0314 279.691 47.0008 293.815C47.4721 295.143 48.8809 295.883 50.2411 295.503L50.2415 295.503C51.9544 295.026 53.7246 294.796 55.4905 294.833C65.4039 295.042 73.2801 303.272 73.0725 313.159L73.0708 313.242L73.0559 313.27C73.0541 313.289 73.0524 313.314 73.0509 313.341C73.0471 313.41 73.0456 313.481 73.0452 313.501L73.0453 313.501L73.0449 313.509C73.0112 314.261 73.2829 314.995 73.802 315.518C74.328 316.048 75.0485 316.343 75.7845 316.288L75.8011 316.287L75.8177 316.287L76.2033 316.295C76.4162 316.28 76.6256 316.284 76.8166 316.288L76.8244 316.288C87.3413 316.509 95.7304 325.253 95.5097 335.764C95.2891 346.275 86.5404 354.659 76.0235 354.438C72.188 354.358 68.4613 353.09 65.3505 350.852L64.9503 350.565L65.354 350.282C72.7987 345.063 74.5666 335.968 74.2557 330.92C74.1615 329.46 72.8838 328.33 71.4251 328.424C69.9619 328.518 68.8331 329.776 68.9265 331.253L68.9267 331.256M-52.0788 305.52L68.9267 331.256M68.9267 331.256C68.9422 331.548 69.0931 335.053 67.6557 338.867C66.2126 342.696 63.1616 346.847 56.7899 348.349C50.3685 349.87 45.7813 347.525 42.789 344.74C39.8241 341.98 38.4158 338.783 38.2882 338.466C37.7099 337.122 36.1599 336.487 34.7962 337.062M68.9267 331.256L34.7962 337.062M34.7962 337.062C33.4487 337.639 32.8117 339.19 33.3876 340.553L34.7962 337.062ZM-57.9564 299.751L-58.1916 299.764L-58.2106 299.724C-72.4966 300.634 -83.44 312.935 -82.6538 327.248C-81.8633 341.64 -69.4795 352.702 -55.0988 351.912L-55.0985 351.912C-53.2512 351.812 -51.3967 351.493 -49.5755 350.995L-49.2553 350.907L-49.1509 351.222C-45.1263 363.362 -33.9382 371.772 -20.8857 372.046C-10.9972 372.254 -1.76552 367.694 4.09059 359.919L4.32617 359.606L4.61065 359.875C7.52876 362.635 11.3975 364.253 15.5363 364.34C17.3472 364.378 19.1478 364.101 20.878 363.564L21.1137 363.491L21.2617 363.689C25.7022 369.614 32.5326 373.168 40.011 373.325C50.8 373.551 60.2974 366.472 63.4633 356.522L63.5967 356.103L63.9753 356.327C67.5835 358.466 71.6869 359.663 75.9119 359.752C89.3781 360.035 100.577 348.741 100.848 335.856C101.118 322.968 91.321 312.188 78.6618 311.03L78.3706 311.003L78.345 310.712C77.3208 299.035 67.5978 289.731 55.623 289.48C54.2375 289.451 52.8461 289.56 51.469 289.77L51.201 289.811L51.0945 289.561C44.7577 274.723 30.1129 264.698 13.8704 264.357C-0.837446 264.048 -14.3476 271.426 -22.0743 283.794L-22.2349 284.051L-22.5123 283.929C-25.2022 282.744 -28.1228 282.108 -31.0763 282.046C-41.8761 281.819 -51.2553 289.311 -53.6915 299.565L-53.762 299.862L-54.0657 299.832C-55.3745 299.706 -56.6848 299.678 -57.9564 299.751Z" fill="#91E0FF" stroke="#C2F2FF" stroke-width="0.7"/>
</g>
<defs>
<linearGradient id="paint0_linear_7_11" x1="722" y1="-89.4974" x2="722" y2="519.188" gradientUnits="userSpaceOnUse">
<stop stop-color="#D756ED"/>
<stop offset="1" stop-color="#56FFFF"/>
</linearGradient>
<clipPath id="clip0_7_11">
<rect width="444.447" height="97.48" fill="white" transform="translate(788 198)"/>
</clipPath>
</defs>
</svg>
