<svg width="367" height="318" viewBox="0 0 367 318" fill="none" xmlns="http://www.w3.org/2000/svg">
<g clip-path="url(#clip0_5070_36990)">
<path d="M283.59 111.321C283.59 111.321 257.319 97.2982 246.311 93.8646C235.303 90.431 222.534 85.5727 222.534 85.5727L200.652 79.1817C200.652 79.1817 170.093 56.4483 161.821 56.7858L147.069 71.2702L150.719 78.9969L140.231 77.7491L127.985 93.6931C127.985 93.6931 150.666 96.2538 165.291 96.6982C179.916 97.1427 206.809 95.8176 206.809 95.8176L219.61 93.8985L213.03 87.4382L231.318 93.5028L255.75 101.903C255.75 101.903 282.687 111.494 283.584 111.317L283.59 111.321Z" fill="white"/>
<path d="M210.022 117.552C210.022 117.552 154.468 108.938 142.785 109.216C131.101 109.494 88.3252 107.881 88.3252 107.881L142.789 112.732L210.02 117.549L210.022 117.552Z" fill="white"/>
<path d="M300.582 210.854C299.49 210.272 264.847 196.215 264.847 196.215L285.65 190.063L257.502 193.858L224.849 185.896L218.694 201.044C218.694 201.044 176.461 210.29 172.574 211.454C168.688 212.618 134.46 221.671 128.599 223.635C122.74 225.598 111.675 229.348 111.675 229.348C111.675 229.348 122.141 228.031 123.341 227.867C124.541 227.703 143.392 224.034 147.862 223.13C152.331 222.227 185.778 215.222 188.099 214.729C190.421 214.236 216.099 208.28 216.099 208.28L214.302 215.291L217.866 223.83L212.419 224.774L214.136 254.186C214.136 254.186 268.258 232.577 281.499 223.574C294.739 214.571 300.577 210.852 300.577 210.852L300.582 210.854Z" fill="white"/>
<path d="M93.6438 225.032C93.6438 225.032 124.212 209.795 129.248 206.944C134.284 204.094 162.766 190.838 162.766 190.838L192.743 177.89L189.041 178.647L176.998 179.524L172.085 158.377L140.556 152.255L128.932 149.723L169.218 134.697L195.195 139.408L199.441 131.331L274.036 132.486L350.769 162.183L209.773 174.406L207.982 174.773L166.063 196.536C166.063 196.536 142.133 207.907 135.251 212.112C128.37 216.317 96.4071 227.726 96.4071 227.726L56.3408 244.222L93.6453 225.035L93.6438 225.032Z" fill="white"/>
<path d="M151.442 177.445L68.9964 188.637C68.9964 188.637 62.3466 194.75 62.1809 195.284C62.0182 195.816 133.859 182.067 133.859 182.067L151.731 178.056L151.443 177.448L151.442 177.445Z" fill="white"/>
<path d="M138.37 167.19L93.66 166.859L54.7278 168.835L28.4756 171.621C28.4756 171.621 32.1837 172.638 32.2828 172.743C32.3819 172.848 63.001 172.684 63.001 172.684L104.199 170.594L129.755 168.894L137.596 168.312L139.572 167.378L138.373 167.189L138.37 167.19Z" fill="white"/>
<path d="M168.258 135.438C169.504 141.106 171.039 149.095 172.572 157.12C157.929 152.532 141.122 149.547 125.748 150.847C125.418 150.874 125.438 151.343 125.764 151.364C133.426 151.884 141.03 152.015 148.653 153.112C156.612 154.259 164.365 156.154 172.085 158.372C172.358 158.452 172.602 158.382 172.787 158.249C174.296 166.133 175.791 173.948 176.998 179.52C177.072 179.853 177.657 179.813 177.599 179.449C175.824 167.823 171.501 146.887 169.755 135.259C169.627 134.408 168.06 134.552 168.252 135.433L168.258 135.438Z" fill="#C2F2FF"/>
<path d="M168.872 134.818C154.356 139.682 139.491 144.442 125.374 150.367C125.133 150.47 125.319 150.75 125.534 150.69C140.322 146.572 154.974 141.104 169.422 135.918C170.251 135.622 169.618 134.564 168.87 134.815L168.872 134.818Z" fill="#C2F2FF"/>
<path d="M198.748 129.01C189.929 145.239 182.559 162.298 177.169 179.968C177 180.519 177.9 180.838 178.079 180.309C184.085 162.736 191.355 145.868 200.375 129.621C200.878 128.714 199.215 128.14 198.744 129.009L198.748 129.01Z" fill="#C2F2FF"/>
<path d="M177.827 179.839C179.872 179.234 181.934 178.666 184 178.116C184.006 178.033 184.055 177.942 184.144 177.922C188.089 176.97 191.993 175.787 196.01 175.165C196.463 175.095 196.399 175.756 196.033 175.857C194.529 176.279 193.001 176.609 191.469 176.915C191.539 177.072 191.517 177.291 191.368 177.385C188.11 179.429 184.482 180.536 180.64 180.273C179.796 180.41 178.955 180.552 178.108 180.683C177.599 180.764 177.27 180.004 177.824 179.841L177.827 179.839Z" fill="#C2F2FF"/>
<path d="M125.986 149.709C126.061 149.651 126.12 149.582 126.212 149.534C133.638 145.782 141.284 142.47 149.04 139.463C155.834 136.826 163.075 133.614 170.409 133.165C170.631 133.151 170.77 133.237 170.85 133.359C174.608 133.483 178.442 134.494 182.111 135.203C185.708 135.897 189.948 136.237 193.253 137.939C194.892 134.794 196.702 131.754 198.741 128.877C199.092 128.38 199.595 128.488 199.871 128.829C212.585 129.059 225.45 129.31 238.291 129.833C249.956 129.91 262.5 129.047 273.912 131.09C274.283 130.903 274.715 130.843 275.174 131.01C288.437 135.878 301.585 141.081 314.752 146.211C327.57 151.205 340.948 155.753 353.22 161.989C354.056 162.069 354.892 162.134 355.723 162.235C356.571 162.34 356.324 163.627 355.594 163.74C343.161 165.633 330.217 165.279 317.662 165.935C305.468 166.572 293.285 167.386 281.117 168.409C256.293 170.5 231.753 174.239 207.032 177.118C206.153 177.221 205.674 176.722 205.538 176.087C205.235 176.139 204.933 176.191 204.63 176.243C204.738 176.116 204.819 175.975 204.921 175.843C205.119 175.708 205.316 175.569 205.513 175.431C205.61 174.704 206.091 173.984 206.914 173.826C207.318 173.749 207.729 173.685 208.135 173.611C208.695 173.22 209.264 172.838 209.821 172.441C227.2 169.324 244.891 167.367 262.184 165.711C280.362 163.971 298.569 163.115 316.791 162.513C317.943 162.459 319.098 162.392 320.249 162.342C326.298 162.071 332.499 161.671 338.688 161.543C316.745 157.444 294.908 152.373 273.067 147.888C248.337 142.808 223.35 138.382 198.815 132.428C193.417 144.665 186.47 156.134 181.78 168.736C181.61 169.189 181.02 168.898 181.177 168.451C184.597 158.793 187.886 148.624 192.558 139.308C188.956 139.658 185.014 138.667 181.505 138.152C177.477 137.56 173.117 137.287 169.292 135.869C169.2 135.837 169.143 135.772 169.074 135.722C173.174 149.717 176.188 164.601 178.15 179.037C178.367 180.621 175.751 181.633 175.322 179.849C173.693 173.047 172.277 166.058 171.093 159.023C163.903 158.135 156.762 155.879 149.611 154.711C141.986 153.466 134.321 153.229 126.677 152.338C126.344 152.412 126.062 152.371 125.847 152.214C124.674 151.921 124.899 150.007 125.985 149.714L125.986 149.709ZM274.631 146.781C297.745 151.458 321.111 155.526 344.115 160.783C342.787 160.225 341.461 159.67 340.133 159.113C331.561 156.177 323.093 152.777 314.679 149.668C300.977 144.605 287.237 139.605 273.64 134.265C273.431 134.185 273.274 134.069 273.14 133.939C271.3 133.938 269.455 133.902 267.612 133.88C257.972 134.389 247.945 133.402 238.469 133.195C226.762 132.941 214.979 132.992 203.276 132.424C227.156 136.542 250.893 141.981 274.633 146.784L274.631 146.781ZM150.224 151.736C156.932 152.851 164.382 154.072 170.744 156.894C169.597 149.766 168.699 142.604 168.096 135.542C161.915 138.592 154.988 140.425 148.604 142.917C143.25 145.006 137.99 147.293 132.753 149.646C138.614 149.901 144.511 150.78 150.222 151.733L150.224 151.736Z" fill="#C2F2FF"/>
<path d="M193.496 138.663C185.711 136.701 177.214 135.34 169.215 134.694C168.625 134.645 168.282 135.48 168.939 135.663C176.655 137.792 185.083 139.451 193.042 140.268C194.025 140.37 194.582 138.933 193.495 138.66L193.496 138.663Z" fill="#C2F2FF"/>
<path d="M152.647 202.297C176.572 189.374 200.915 176.923 225.545 165.403C225.94 165.217 226.04 165.831 225.722 166.011C201.933 179.287 177.57 191.809 153.055 203.7C152.155 204.136 151.893 202.706 152.651 202.299L152.647 202.297Z" fill="#C2F2FF"/>
<path d="M53.897 245.007C82.0496 230.137 110.474 215.537 139.116 201.605C139.135 201.596 139.144 201.576 139.163 201.567C166.94 187.809 195.418 174.817 224.734 164.669C225.167 164.518 225.302 165.164 224.923 165.321C196.232 177.346 167.535 189.116 139.433 202.5C139.231 202.595 139.081 202.544 138.982 202.432C114.392 215.566 89.4911 228.251 64.5105 240.646C78.9145 234.596 93.4688 228.833 108.018 223.186C108.233 223.103 108.301 223.432 108.112 223.514C90.3497 231.218 72.4668 238.836 54.4176 245.852C54.264 245.913 54.1511 245.875 54.062 245.807C53.6098 245.952 53.477 245.229 53.8908 245.01L53.897 245.007Z" fill="#C2F2FF"/>
<path d="M61.9802 194.714C91.8826 189.991 121.405 184.142 151.017 177.912C123.753 182.322 96.2311 185.855 68.8079 189.026C68.0758 189.11 68.1122 187.972 68.7693 187.874C97.1449 183.573 125.73 179.602 154.279 176.666C154.735 176.618 154.712 177.317 154.303 177.384C153.732 177.479 153.157 177.565 152.586 177.66C152.831 177.776 152.761 178.265 152.435 178.355C122.9 186.334 92.3611 191.953 62.02 195.812C61.3216 195.903 61.3555 194.808 61.9818 194.709L61.9802 194.714Z" fill="#C2F2FF"/>
<path d="M23.7513 172.102C25.1388 172.062 26.5216 172.028 27.9092 171.988C27.517 171.721 27.6429 170.909 28.2228 170.825C64.8663 165.558 102.653 164.457 139.567 166.971C140.059 167.005 139.859 167.79 139.403 167.774C102.56 166.439 66.2403 168.031 29.6181 171.944C65.8488 170.944 101.924 170.067 138.139 167.866C138.553 167.841 138.537 168.476 138.161 168.517C100.461 172.65 61.5661 174.89 23.6396 173.443C22.9084 173.416 23.082 172.126 23.7527 172.105L23.7513 172.102Z" fill="#C2F2FF"/>
<path d="M69.0256 106.723C72.9532 106.87 76.8829 107.125 80.8134 107.414C124.311 106.016 168.011 108.853 210.807 116.809C211.261 116.894 211.143 117.561 210.76 117.636C210.946 117.658 211.128 117.675 211.314 117.697C211.641 117.737 211.503 118.235 211.205 118.223C187.466 117.42 163.676 114.844 139.99 113.078C128.244 112.2 116.497 111.323 104.755 110.447C96.0298 109.794 87.2482 109.343 78.508 108.617C75.9996 108.667 73.4941 108.722 70.9849 108.802C70.4419 108.82 70.3798 108.093 70.7415 107.869C70.1051 107.801 69.4666 107.753 68.8318 107.681C68.2415 107.614 68.4894 106.707 69.027 106.726L69.0256 106.723ZM104.268 109.336C116.246 110.252 128.219 111.167 140.197 112.083C163.427 113.86 186.871 114.883 210.021 117.552C171.523 111.798 132.832 108.555 93.9641 108.479C97.4009 108.778 100.839 109.071 104.271 109.334L104.268 109.336Z" fill="#C2F2FF"/>
<path d="M88.9667 229.657C100.713 225.756 112.339 221.581 123.709 216.673C135.069 211.768 145.864 205.844 157.009 200.517C157.205 200.424 157.309 200.732 157.148 200.835C147.023 207.477 135.73 212.66 124.657 217.497C113.126 222.531 101.305 227.015 89.2276 230.564C88.624 230.742 88.4229 229.842 88.9682 229.66L88.9667 229.657Z" fill="#C2F2FF"/>
<path d="M103.42 231.075C149.4 215.63 196.606 203.761 244.409 195.554C258.224 193.182 272.114 190.927 286.064 189.525C286.198 189.511 286.259 189.593 286.285 189.687C286.976 189.493 287.672 189.309 288.364 189.115C288.834 188.984 288.815 189.772 288.392 189.892C241.923 203.103 194.893 214.36 147.496 223.709C134.097 226.351 120.668 228.944 107.178 231.096C106.035 231.469 104.89 231.836 103.75 232.215C102.991 232.467 102.74 231.309 103.422 231.078L103.42 231.075ZM248.394 199.901C260.119 196.88 271.806 193.713 283.474 190.464C260.383 194.122 237.324 197.625 214.416 202.378C190.91 207.258 167.576 213.002 144.494 219.616C134.025 222.617 123.61 225.79 113.243 229.12C158.586 220.597 203.688 211.42 248.394 199.901Z" fill="#C2F2FF"/>
<path d="M186.014 77.4324C202.599 83.2152 219.212 88.9125 235.818 94.6359C251.362 99.9947 267.183 104.965 282.528 110.908C252.115 95.1677 219.819 83.8011 186.377 76.4062C185.889 76.2987 186.078 75.4915 186.545 75.5862C220.986 82.6912 254.325 95.0964 285.348 111.597C285.521 111.69 285.535 111.888 285.462 112.04C285.48 112.047 285.499 112.053 285.518 112.063C285.701 112.136 285.583 112.481 285.398 112.428C268.78 107.557 252.438 101.386 236.062 95.763C219.226 89.9808 202.403 84.159 185.546 78.4286C184.953 78.2265 185.418 77.2241 186.014 77.4324Z" fill="#C2F2FF"/>
<path d="M127.428 92.934C127.889 92.9519 128.346 92.9788 128.807 92.9966C132.077 87.8239 135.826 82.926 139.445 78.0022C139.616 77.7694 139.865 78.0468 139.728 78.2636C136.593 83.221 133.524 88.2952 130.074 93.0552C144.52 93.6678 158.909 94.7709 173.389 94.9232C187.306 95.0677 201.174 94.5136 215.069 94.0492C203.018 91.1996 191.065 88.0111 178.926 85.5069C166.158 82.8706 153.312 80.7841 140.403 78.9591C139.592 78.8445 139.909 77.5207 140.679 77.6206C166.243 80.927 192.506 85.7424 216.978 93.9867C217.555 93.9686 218.134 93.946 218.711 93.9279C207.782 91.186 196.994 87.6067 186.204 84.4007C173.647 80.6657 161.102 76.8832 148.516 73.2567C148.728 73.73 148.933 74.2109 149.142 74.6857C149.586 75.6912 150.12 76.7003 150.37 77.7676C150.49 78.2881 149.758 78.9419 149.41 78.335C148.864 77.381 148.572 76.2729 148.221 75.231C147.908 74.3036 147.594 73.3809 147.338 72.4379C147.296 72.4769 147.255 72.519 147.213 72.5581C146.746 72.9873 146.204 72.2178 146.59 71.796C151.357 66.5732 156.604 61.5715 161.823 56.7843C161.818 56.6198 161.956 56.4446 162.133 56.4977C162.181 56.4557 162.225 56.4121 162.273 56.367C162.483 56.1765 162.714 56.4966 162.573 56.6963C176.591 63.3954 190.422 71.1783 203.389 80.0609C202.323 79.7932 201.248 79.5759 200.159 79.429C199.844 79.3238 199.536 79.1956 199.22 79.0903C187.378 71.0361 175.16 63.6344 162.202 57.1184C157.721 62.0771 153.051 67.0377 148.176 71.6281C148.289 71.609 148.408 71.6132 148.538 71.6545C160.711 75.4533 172.935 79.0949 185.143 82.7823C196.251 86.1382 207.574 89.1684 218.544 92.9885C214.752 90.1191 210.93 87.3245 207.083 84.58C207.15 84.6014 207.214 84.6243 207.281 84.6458C208.792 85.2691 210.301 85.9046 211.805 86.5462C212.063 86.6563 212.3 86.6508 212.517 86.6049C215.681 88.9886 218.8 91.4205 221.814 93.9547C222.336 94.3918 221.63 95.3182 221.064 94.8863C220.927 94.7803 220.791 94.6774 220.652 94.576C205.415 96.0467 189.988 96.2392 174.692 96.1612C159.627 96.0882 144.214 95.9322 129.205 94.2562C129.129 94.3606 129.057 94.4665 128.978 94.5724C128.624 95.0394 127.94 94.6295 128.091 94.1365C127.794 94.1023 127.488 94.0756 127.191 94.0414C126.501 93.9571 126.791 92.9047 127.419 92.9308L127.428 92.934Z" fill="#C2F2FF"/>
<path d="M213.63 255.102C213.264 246.716 211.632 234.001 212.141 225.616C211.887 225.417 212.087 224.851 212.424 224.775C213.496 224.535 214.643 224.555 215.736 224.495C216.713 224.439 217.683 224.369 218.663 224.415C218.912 224.426 218.807 224.784 218.626 224.827C216.995 225.229 215.087 225.584 213.329 225.662C216.315 227.845 219.387 229.946 222.35 232.17C219.918 227.176 217.548 221.879 215.809 216.661C215.521 216.493 215.425 216.121 215.51 215.795C215.434 215.554 215.334 215.309 215.259 215.071C215.193 214.859 215.501 214.618 215.639 214.846C215.731 215 215.818 215.16 215.907 215.316C215.975 215.283 216.044 215.259 216.128 215.253C230.555 214.457 245 213.851 259.432 213.148C272.895 212.493 286.429 211.504 299.914 211.443C288.186 206.598 276.678 201.479 264.581 197.518C264.082 197.355 263.573 197.22 263.074 197.057C263.326 197.059 263.571 197.046 263.826 197.055C264.454 197.073 264.767 196.682 264.847 196.215C277.5 200.41 290.406 205.173 302.055 211.662C302.365 211.835 302.124 212.355 301.791 212.22C301.592 212.139 301.398 212.056 301.201 211.978C301.185 211.985 301.167 211.994 301.154 212.008C301.208 212.146 301.168 212.351 301.02 212.417C299.358 213.122 297.678 213.791 295.986 214.442C270.809 231.216 242.922 244.928 214.719 255.677C214.459 255.778 214.261 255.704 214.127 255.566C213.885 255.601 213.651 255.476 213.634 255.111L213.63 255.102ZM292.475 215.74C282.802 219.243 272.787 222.087 263.082 225.274C250.412 229.434 237.787 233.841 225.017 237.687C224.089 237.966 223.777 236.59 224.614 236.293C237.458 231.778 250.521 227.813 263.469 223.614C274.763 219.953 286.137 215.665 297.673 212.71C297.893 212.58 298.116 212.456 298.335 212.325C298.499 212.229 298.623 212.33 298.657 212.458C299.062 212.358 299.464 212.244 299.871 212.147C286.191 213.463 272.367 213.829 258.651 214.543C244.675 215.273 230.702 216.086 216.722 216.727C219.716 222.098 222.203 228.094 224.417 233.769C224.624 233.933 224.837 234.087 225.041 234.253C225.504 234.63 224.888 235.426 224.384 235.068C224.344 235.038 224.301 235.005 224.26 234.975C224.039 235.094 223.781 235.087 223.645 234.814C223.567 234.657 223.487 234.489 223.409 234.332C219.74 231.61 216.261 228.585 212.682 225.748C213.278 233.831 214.832 246.02 214.676 254.315C241.773 243.446 267.323 230.371 292.477 215.743L292.475 215.74Z" fill="#C2F2FF"/>
<path d="M224.472 187.199C223.092 192.026 221.498 196.802 219.837 201.557C219.777 201.615 219.708 201.663 219.665 201.733C219.326 201.771 218.987 201.81 218.647 201.846C218.566 201.853 218.489 201.859 218.409 201.866C220.161 196.845 221.982 191.848 224.024 186.958C224.049 186.897 224.094 186.865 224.142 186.838C224.017 186.403 224.321 185.808 224.855 185.901C236.171 187.829 247.385 190.71 258.363 194.127C257.399 194.332 256.435 194.529 255.47 194.73C245.287 191.788 234.989 189.406 224.579 187.247C224.538 187.24 224.512 187.218 224.478 187.203L224.472 187.199Z" fill="#C2F2FF"/>
<path d="M213.499 216.1C214.355 213.663 215.191 211.217 216.032 208.764C216.486 208.679 216.937 208.588 217.385 208.475C216.419 211.176 215.451 213.875 214.509 216.573C214.245 217.332 213.239 216.846 213.502 216.099L213.499 216.1Z" fill="#C2F2FF"/>
<path d="M145.951 71.7943C145.921 71.6108 146.031 71.4718 146.174 71.4042C146.208 71.3159 146.239 71.229 146.298 71.1442C148.817 67.6176 151.724 64.3639 154.79 61.3042C156.728 59.3707 158.754 56.9658 161.372 56.0445C161.623 55.5875 162.112 55.2617 162.661 55.4997C176.676 61.5625 192.025 68.9777 203.199 79.6188C203.511 79.9161 203.144 80.621 202.721 80.3843C195.92 76.5391 189.597 71.8609 182.797 67.9927C175.965 64.1054 168.94 60.6057 161.723 57.489C161.627 57.4469 161.563 57.3825 161.497 57.3227C159.877 59.7518 157.228 61.6037 155.236 63.6805C152.563 66.4707 150.154 69.4588 147.718 72.4524C147.701 72.472 147.685 72.4793 147.666 72.4958C148.191 73.1481 148.643 73.888 149.08 74.5553C149.837 75.7136 150.624 76.8727 151.164 78.1446C151.447 78.8162 150.386 79.8455 149.833 79.1725C148.896 78.0348 148.187 76.6946 147.482 75.4053C146.856 74.2575 146.157 73.0988 145.953 71.7974L145.951 71.7943Z" fill="#C2F2FF"/>
<path d="M127.222 93.1646C142.765 95.1997 158.44 96.2311 174.117 96.2238C182.121 96.2184 190.125 95.9503 198.113 95.4206C205.002 94.965 212.058 93.7817 218.985 93.768C216.535 91.8487 213.934 89.8446 212.134 87.4662C211.928 87.1912 212.285 86.7488 212.596 86.8909C216.054 88.482 219.205 91.5939 222.174 93.9441C222.968 94.5717 222.036 95.7682 221.198 95.507L220.615 95.3267C220.325 95.2358 220.211 95.0427 220.197 94.8211C213.164 96.7502 205.424 97.0488 198.192 97.5521C190.535 98.0891 182.867 98.3693 175.189 98.4033C158.992 98.4775 142.834 97.4124 126.771 95.3644C125.432 95.1952 125.956 92.9954 127.223 93.16L127.222 93.1646Z" fill="#C2F2FF"/>
<path d="M127.069 92.7279C129.192 89.7797 131.496 86.9475 133.74 84.0865C135.323 82.0698 136.871 79.9556 138.727 78.1709C138.179 77.6548 138.602 76.5054 139.489 76.5649C142.834 76.7813 146.179 77.4572 149.496 78.1694C149.365 77.9575 149.229 77.7486 149.081 77.5487C149.03 77.4815 149.051 77.3959 149.095 77.3216C149.06 77.2701 149.011 77.2321 148.974 77.1775C148.845 76.9842 149.111 76.6873 149.307 76.853C150.452 77.8431 151.605 78.5062 152.954 78.8985C153.448 79.0031 153.945 79.1139 154.436 79.2123C155.074 79.34 154.829 80.3335 154.219 80.2724C149.492 79.7859 144.585 79.5551 139.924 78.5398C137.142 84.0936 132.353 89.3236 128.47 94.0111C127.577 95.0902 126.317 93.7747 127.072 92.7265L127.069 92.7279Z" fill="#C2F2FF"/>
<path d="M264.783 194.881C271.482 196.871 278.069 199.332 284.479 202.108C290.397 204.672 296.652 207.331 301.861 211.18C302.241 211.46 301.797 212.073 301.394 211.929C295.081 209.631 289.105 206.3 282.877 203.754C276.618 201.191 270.255 198.997 263.825 196.918C262.595 196.519 263.567 194.521 264.784 194.885L264.783 194.881Z" fill="#C2F2FF"/>
<path d="M217.929 200.213C219.579 195 221.736 189.59 224.361 184.79C224.436 184.652 224.556 184.584 224.683 184.546C224.888 184.32 225.156 184.171 225.466 184.241C231.176 185.487 236.827 187.125 242.48 188.621C247.637 189.987 253.027 191.121 257.97 193.166C258.543 193.404 258.165 194.335 257.601 194.267C251.831 193.578 246.118 191.768 240.503 190.319C235.306 188.975 230.05 187.755 224.909 186.199C223.64 191.125 221.778 196.153 219.677 200.736C219.22 201.731 217.563 201.37 217.927 200.218L217.929 200.213Z" fill="#C2F2FF"/>
<path d="M212.296 254.186C211.66 244.586 210.894 234.524 211.574 224.918C211.592 224.674 211.732 224.494 211.9 224.407C211.997 224.179 212.173 223.989 212.444 223.911C213.552 223.585 214.692 223.415 215.836 223.277C216.289 223.222 216.753 223.159 217.22 223.117C216.653 222.078 216.201 220.943 215.733 219.873C215.332 218.952 214.9 218.021 214.69 217.045C214.607 216.83 214.544 216.616 214.47 216.404C213.947 216.689 213.228 216.543 213.25 215.769C213.288 214.361 213.832 212.922 214.244 211.58C214.629 210.327 214.977 209.004 215.76 207.935C215.997 207.614 216.406 207.797 216.455 208.142C216.637 209.435 216.273 210.781 215.998 212.043C215.755 213.176 215.538 214.441 215.082 215.534C216.815 217.61 218.211 220.426 219.362 222.774C219.46 222.982 219.432 223.196 219.355 223.396C219.428 223.566 219.403 223.787 219.229 223.9C219.149 223.949 219.048 223.985 218.967 224.031C218.829 224.157 218.668 224.234 218.495 224.27C216.784 225.131 214.512 225.631 212.746 225.812C212.72 225.813 212.7 225.803 212.677 225.803C214.004 234.977 214.049 244.662 214.19 253.898C214.208 255.121 212.389 255.543 212.299 254.177L212.296 254.186Z" fill="#C2F2FF"/>
<path d="M214.434 252.853C221.801 249.57 229.568 247.093 237.005 243.94C244.2 240.89 251.305 237.624 258.317 234.167C269.99 228.412 281.011 221.559 292.345 215.239C292.209 215.266 292.076 215.313 291.94 215.332C291.067 215.463 290.815 214.173 291.484 213.754C292.993 212.813 294.779 212.384 296.462 211.836C297.833 211.389 299.405 210.605 300.857 210.88C301.036 210.913 301.087 211.14 300.97 211.271C300.793 211.468 300.581 211.622 300.376 211.783C300.343 211.852 300.322 211.927 300.261 211.974C287.876 221.807 273.043 229.306 258.936 236.305C251.692 239.899 244.333 243.262 236.881 246.399C229.677 249.431 222.298 252.761 214.743 254.8C213.583 255.113 213.549 253.241 214.435 252.845L214.434 252.853Z" fill="#C2F2FF"/>
</g>
<defs>
<clipPath id="clip0_5070_36990">
<rect width="309" height="205" fill="white" transform="matrix(-0.904157 0.427201 0.427201 0.904157 279.385 0)"/>
</clipPath>
</defs>
</svg>
