<svg width="292" height="536" viewBox="0 0 292 536" fill="none" xmlns="http://www.w3.org/2000/svg">
<g clip-path="url(#clip0_5142_1135)">
<path d="M15.767 180.234C16.5337 180.175 17.3244 180.175 18.1151 180.234C19.4569 174.004 25.0276 169.355 31.5568 169.355C33.3419 169.355 35.115 169.702 36.7562 170.385C41.2368 162.86 49.2516 158.259 58.081 158.259C67.8328 158.259 76.7461 164.095 80.7355 172.925C81.5621 172.782 82.4007 172.698 83.2393 172.698C90.4754 172.698 96.4654 178.197 97.2322 185.243C104.888 185.782 110.938 192.169 110.938 199.957C110.938 207.745 104.324 214.707 96.1899 214.707C93.6381 214.707 91.1463 214.036 88.9419 212.79C87.1569 218.841 81.5142 223.238 74.997 223.238C70.4804 223.238 66.3114 221.177 63.5559 217.654C62.5136 218.002 61.4234 218.194 60.3213 218.194C57.8054 218.194 55.4333 217.259 53.6243 215.618C50.198 220.374 44.6991 223.238 38.7449 223.238C30.886 223.238 24.0453 218.313 21.4696 211.052C20.3794 211.376 19.2652 211.592 18.151 211.675C9.48936 212.334 1.88197 205.816 1.22307 197.141C0.564156 188.466 7.08134 180.869 15.755 180.21L15.767 180.234ZM4.81712 196.89C5.32028 203.588 11.2025 208.62 17.8875 208.117C18.4984 208.069 19.0975 207.973 19.6965 207.829C16.5816 204.726 16.5816 200.268 17.1806 197.92C17.4322 196.961 18.4026 196.374 19.373 196.626C20.3314 196.878 20.9065 197.86 20.6669 198.819C20.607 199.046 19.2892 204.39 24.1651 206.583C28.9092 208.716 31.9761 204.534 32.2996 204.055C32.8507 203.228 33.9769 203.012 34.7915 203.564C35.6181 204.115 35.8338 205.241 35.2827 206.056C33.9888 207.973 30.886 210.777 26.7768 210.777C26.2616 210.777 25.7225 210.717 25.1714 210.621C27.4357 216.049 32.7189 219.667 38.7689 219.667C44.2559 219.667 49.2636 216.648 51.8273 211.771C52.1268 211.208 52.7019 210.837 53.3368 210.813C53.3608 210.813 53.3847 210.813 53.4087 210.813C54.0197 210.813 54.5947 211.124 54.9182 211.639C56.1162 213.509 58.1289 214.611 60.3332 214.611C61.3995 214.611 62.4178 214.359 63.3522 213.856C64.1909 213.413 65.2212 213.688 65.7243 214.491C67.749 217.726 71.2112 219.655 75.009 219.655C80.1245 219.655 84.5212 216.037 85.6593 211.172C85.6114 211.184 85.5755 211.208 85.5276 211.22C84.3415 211.52 83.2273 211.663 82.1731 211.663C75.8356 211.663 71.8222 206.715 70.4565 203.683C70.0491 202.773 70.4565 201.718 71.355 201.311C72.2655 200.903 73.3198 201.311 73.7271 202.21C73.8589 202.521 77.1774 209.674 84.6171 207.745C91.9968 205.84 91.4937 197.956 91.4697 197.632C91.3859 196.638 92.1286 195.775 93.111 195.691C94.0934 195.607 94.9679 196.35 95.0518 197.333C95.3034 200.376 94.357 205.9 89.9123 209.159C91.7573 210.429 93.9496 211.124 96.1899 211.124C102.336 211.124 107.343 206.116 107.343 199.969C107.343 193.822 102.336 188.814 96.1899 188.814C96.0701 188.814 95.9503 188.814 95.8305 188.826H95.5909C95.0877 188.873 94.5965 188.682 94.2371 188.334C93.8777 187.987 93.686 187.496 93.698 186.992C93.698 186.968 93.698 186.813 93.71 186.789C93.71 181.013 89.0138 176.304 83.2273 176.304C82.1971 176.304 81.1668 176.46 80.1724 176.76C79.2619 177.035 78.3035 176.556 77.9681 175.669C74.8652 167.402 66.8744 161.854 58.081 161.854C50.9048 161.854 44.3517 165.425 40.4342 171.308C41.7999 171.296 43.1537 171.595 44.3996 172.218C46.4362 173.225 47.9697 174.938 48.7484 177.071C48.8083 177.059 48.8682 177.035 48.9401 177.023C53.816 175.885 58.7039 176.748 62.7053 179.456C63.5319 180.007 63.7476 181.133 63.1845 181.948C62.6334 182.775 61.5073 182.99 60.6926 182.427C57.5299 180.294 53.6483 179.611 49.7667 180.522C45.8252 181.445 42.363 183.877 40.0029 187.364C39.6555 187.879 39.0924 188.155 38.5173 188.155C38.1699 188.155 37.8225 188.059 37.511 187.843C36.6844 187.292 36.4687 186.166 37.0318 185.351C39.1643 182.199 42.0515 179.767 45.37 178.245C44.9028 177.023 44.0162 176.029 42.8422 175.442C41.5962 174.83 40.1946 174.735 38.8767 175.178C36.1692 176.101 34.7076 179.048 35.6181 181.768C35.9416 182.703 35.4265 183.733 34.492 184.045C34.3003 184.105 34.1086 184.141 33.9169 184.141C33.1622 184.141 32.4674 183.673 32.2158 182.918C31.0417 179.456 32.1678 175.753 34.7556 173.488C33.7373 173.153 32.671 172.949 31.5808 172.949C26.2856 172.949 21.8289 177.095 21.4456 182.379C21.4096 182.894 21.1581 183.362 20.7507 183.673C20.3434 183.985 19.8163 184.105 19.3131 184.009C18.2109 183.793 17.1207 183.721 16.0545 183.805C9.35757 184.32 4.3259 190.18 4.82907 196.878L4.81712 196.89Z" fill="#C1F0FA"/>
<path d="M126.666 489.073C127.54 489.013 128.427 489.013 129.325 489.085C130.715 482.315 136.753 477.246 143.821 477.246C145.786 477.246 147.727 477.642 149.536 478.409C154.364 470.213 163.061 465.192 172.658 465.192C183.248 465.192 192.904 471.543 197.193 481.165C198.115 480.985 199.062 480.901 200.008 480.901C207.843 480.901 214.313 486.88 215.079 494.525C223.382 495.04 229.971 501.953 229.971 510.377C229.971 518.8 222.842 526.253 214.097 526.253C211.282 526.253 208.538 525.498 206.13 524.096C204.273 530.71 198.151 535.539 191.071 535.539C186.171 535.539 181.643 533.287 178.696 529.44C177.557 529.836 176.347 530.051 175.125 530.051C172.37 530.051 169.782 529.009 167.818 527.176C164.128 532.388 158.15 535.539 151.668 535.539C143.138 535.539 135.723 530.171 132.979 522.251C131.757 522.634 130.511 522.874 129.253 522.97C119.909 523.677 111.726 516.655 111.02 507.309C110.313 497.963 117.333 489.78 126.678 489.073H126.666ZM114.59 507.034C114.865 510.604 116.506 513.852 119.226 516.188C121.945 518.525 125.42 519.663 128.966 519.387C130.475 519.28 131.973 518.884 133.411 518.249C133.902 518.033 134.465 518.045 134.944 518.273C135.423 518.513 135.771 518.944 135.89 519.471C137.628 526.816 144.109 531.945 151.644 531.945C157.67 531.945 163.169 528.626 165.985 523.282C166.284 522.718 166.859 522.347 167.494 522.323C167.518 522.323 167.542 522.323 167.566 522.323C168.177 522.323 168.752 522.634 169.075 523.15C170.405 525.223 172.646 526.457 175.09 526.457C176.276 526.457 177.402 526.169 178.444 525.618C179.283 525.175 180.313 525.45 180.816 526.253C183.044 529.812 186.866 531.945 191.035 531.945C197.277 531.945 202.548 527.068 203.039 520.849C203.087 520.166 203.518 519.579 204.153 519.327C204.776 519.064 205.507 519.196 206.01 519.639C208.251 521.592 211.114 522.658 214.061 522.658C220.83 522.658 226.341 517.147 226.341 510.377C226.341 503.607 220.83 498.095 214.061 498.095C213.929 498.095 213.797 498.095 213.678 498.119H213.414C212.899 498.155 212.432 497.975 212.072 497.64C211.713 497.292 211.521 496.813 211.521 496.322C211.521 496.238 211.521 496.166 211.533 496.07C211.533 489.696 206.346 484.519 199.984 484.519C199.134 484.519 198.295 484.639 197.469 484.831C203.375 490.295 202.656 498.323 201.206 502.241C200.943 502.972 200.248 503.415 199.517 503.415C199.313 503.415 199.11 503.379 198.906 503.307C197.972 502.972 197.492 501.941 197.828 501.007C197.972 500.587 201.398 490.786 192.676 485.766C183.943 480.745 177.186 488.617 176.911 488.953C176.276 489.72 175.149 489.828 174.383 489.192C173.616 488.557 173.508 487.431 174.143 486.664C177.102 483.094 184.901 477.774 193.695 482.267C189.897 474.167 181.655 468.835 172.634 468.835C163.613 468.835 155.861 473.736 151.872 481.644C151.644 482.087 151.261 482.411 150.782 482.554C150.315 482.698 149.799 482.638 149.368 482.387C147.667 481.404 145.738 480.889 143.797 480.889C137.951 480.889 133.051 485.454 132.62 491.289C132.584 491.805 132.332 492.272 131.925 492.583C131.518 492.895 131.002 493.015 130.487 492.919C129.277 492.679 128.067 492.607 126.905 492.691C123.335 492.967 120.089 494.608 117.752 497.328C115.416 500.048 114.29 503.511 114.554 507.07L114.59 507.034Z" fill="#C1F0FA"/>
<path d="M175.246 496.801C176.073 497.352 176.288 498.479 175.725 499.293C175.174 500.12 174.048 500.336 173.233 499.773C163.182 492.967 148.986 496.334 141.606 507.261C141.258 507.777 140.695 508.052 140.12 508.052C139.773 508.052 139.425 507.956 139.114 507.741C138.287 507.19 138.072 506.063 138.635 505.248C147.129 492.679 163.553 488.881 175.258 496.789L175.246 496.801Z" fill="#C1F0FA"/>
<path d="M42.0633 482.375L51.7193 463.467L50.653 462.089C49.9103 461.13 49.5868 459.944 49.7306 458.758C49.8743 457.548 50.4853 456.481 51.4317 455.75C52.3902 455.008 53.5762 454.696 54.7742 454.864C54.7862 454.864 54.8102 454.864 54.8222 454.876L54.5945 454.576C53.8518 453.618 53.5283 452.431 53.6721 451.245C53.8158 450.035 54.4268 448.969 55.3852 448.238C56.3436 447.495 57.5177 447.183 58.7277 447.351C59.0991 447.399 59.4465 447.507 59.7819 447.651L60.3091 446.608L52.6178 438.065C52.6178 438.065 52.5579 437.993 52.5339 437.957C49.8983 434.542 47.6101 425.915 51.899 422.608C53.8158 421.122 56.703 421.05 60.0215 422.404C62.6572 423.471 65.1611 425.28 66.5867 427.113C66.6107 427.149 66.6346 427.185 66.6705 427.221L72.9841 436.831L74.1222 436.579C74.0743 436.22 74.0623 435.848 74.1102 435.477C74.254 434.267 74.865 433.2 75.8234 432.469C77.7882 430.959 80.6275 431.331 82.1609 433.32L82.3885 433.62C82.3885 433.62 82.3885 433.584 82.3885 433.572C82.5323 432.361 83.1433 431.295 84.0897 430.564C85.0481 429.821 86.2342 429.51 87.4322 429.677C88.6182 429.845 89.6845 430.456 90.4272 431.415L91.4935 432.793L112.231 428.252C112.734 428.144 113.273 428.252 113.681 428.563L122.426 435.045C122.953 435.429 123.217 436.076 123.133 436.723C123.049 437.37 122.618 437.921 122.019 438.161L99.9994 446.944C99.9994 446.944 99.9515 446.968 99.9395 446.98L85.5633 456.014L94.7161 469.949L103.701 467.697C104.252 467.553 104.839 467.697 105.283 468.056L111.033 472.813C111.488 473.184 111.728 473.759 111.68 474.347C111.632 474.934 111.297 475.461 110.794 475.749L100.371 481.787L100.023 482.051L101.689 484.208C102.3 484.999 102.144 486.125 101.365 486.724C101.042 486.976 100.658 487.096 100.275 487.096C99.7358 487.096 99.2087 486.856 98.8493 486.401L97.184 484.244L96.8366 484.507L88.3547 493.063C88.0192 493.41 87.552 493.59 87.0728 493.59C86.9649 493.59 86.8691 493.59 86.7613 493.566C86.1863 493.47 85.6831 493.087 85.4435 492.547L82.3047 485.778C82.0651 485.262 82.089 484.663 82.3526 484.16L86.8092 476.036L75.6557 463.647L63.4479 475.101C63.376 475.185 63.2921 475.269 63.2083 475.341L49.1555 494.393C48.8081 494.86 48.281 495.124 47.7059 495.124C47.634 495.124 47.5502 495.124 47.4783 495.112C46.8314 495.028 46.2803 494.608 46.0407 493.997L41.9794 483.884C41.7877 483.405 41.8117 482.866 42.0513 482.399L42.0633 482.375ZM53.6361 458.59C53.3845 458.782 53.3246 459.046 53.3007 459.189C53.2647 459.441 53.3366 459.693 53.5043 459.896L53.5283 459.92L54.295 458.41C54.1632 458.398 53.8877 458.386 53.6361 458.578V458.59ZM57.5896 451.065C57.338 451.257 57.2781 451.521 57.2541 451.665C57.2302 451.892 57.29 452.108 57.4218 452.3L58.1406 450.886C57.9969 450.886 57.7932 450.922 57.5896 451.065ZM63.7114 429.234C63.4359 428.887 63.0885 428.527 62.6931 428.18C63.2442 428.719 63.4119 429.558 63.0525 430.277C62.6093 431.163 61.5191 431.511 60.6325 431.067C59.6502 430.576 58.3443 430.145 57.7813 430.193C57.6255 430.744 57.6734 432.086 57.913 433.176C58.1287 434.147 57.5057 435.105 56.5353 435.309C56.4035 435.333 56.2837 435.345 56.1519 435.345C55.3253 435.345 54.5825 434.77 54.4028 433.931C54.0794 432.445 53.5522 428.827 55.5529 427.293C57.5536 425.747 60.9201 427.173 62.2738 427.868C62.3577 427.904 62.4296 427.964 62.5015 428.012C61.4352 427.113 60.0695 426.275 58.7037 425.711C56.6791 424.885 54.9659 424.789 54.1273 425.436C52.2464 426.886 53.2887 432.937 55.3732 435.692L89.7084 473.819C89.7204 473.292 89.948 472.789 90.4033 472.441C90.8465 472.094 91.4096 471.998 91.9128 472.118L63.7354 429.234H63.7114ZM78.0277 435.297C77.8361 435.453 77.7522 435.633 77.7163 435.776L79.2617 435.441C78.9382 435.081 78.3991 435.009 78.0277 435.297ZM86.965 433.212C86.8332 433.2 86.5576 433.188 86.3061 433.38C86.0545 433.572 85.9946 433.835 85.9706 433.967L87.6239 433.608L87.5999 433.584C87.4442 433.38 87.2165 433.248 86.965 433.212ZM112.219 431.906L93.9374 435.908L99.5801 443.217L117.718 435.98L112.207 431.894L112.219 431.906ZM96.3814 444.955L90.0559 436.759L75.1166 440.03L83.6225 452.971L96.3814 444.955ZM103.725 471.375L96.8366 473.1L99.9634 477.857L106.78 473.903L103.725 471.375ZM85.9706 485.071L87.6358 488.665L93.1827 483.07L89.373 478.84L85.9586 485.071H85.9706ZM62.9088 449.448L55.9603 463.071L62.2858 471.267L73.2836 460.951L62.9208 449.436L62.9088 449.448ZM48.1971 489.648L59.7939 473.927L54.1513 466.618L45.6453 483.285L48.1971 489.648Z" fill="#C1F0FA"/>
<path d="M245.461 55.2973L249.726 44.0341L249.821 43.6027L247.174 42.9797C246.203 42.752 245.604 41.7815 245.832 40.8229C246.06 39.8523 247.018 39.2532 247.989 39.4809L250.636 40.104L250.732 39.6726L251.906 27.6786C251.966 27.0914 252.301 26.5762 252.817 26.2886C253.332 26.0011 253.955 25.9891 254.482 26.2407L261.191 29.4998C261.706 29.7515 262.065 30.2307 262.173 30.7939L263.85 39.9123L280.311 42.4644L282.539 25.8693C282.539 25.7494 282.551 25.6416 282.575 25.5218L281.437 1.88113C281.401 1.2341 281.725 0.611029 282.288 0.263549C282.839 -0.0839317 283.534 -0.0959138 284.109 0.21562L293.645 5.48774C294.1 5.73936 294.424 6.17071 294.532 6.68594L298.988 27.4509L300.677 27.8463C301.851 28.1219 302.858 28.8288 303.493 29.8473C304.14 30.8778 304.343 32.088 304.068 33.2622C303.792 34.4364 303.073 35.431 302.031 36.066C302.019 36.066 301.995 36.078 301.983 36.09L302.355 36.1738C304.799 36.749 306.32 39.1694 305.757 41.5897C305.386 43.1834 304.188 44.3696 302.714 44.8369L302.954 45.9752L314.311 47.7366C314.311 47.7366 314.395 47.7485 314.443 47.7605C318.636 48.7431 325.872 53.9792 324.638 59.2633C323.631 63.5409 317.653 65.3263 313.197 65.3263C312.154 65.3263 311.196 65.2304 310.405 65.0387C310.357 65.0387 310.321 65.0147 310.273 65.0027L299.312 61.5399L298.581 62.4625C299.695 63.5289 300.246 65.1226 299.875 66.7162C299.599 67.8904 298.88 68.8849 297.838 69.52C297.119 69.9633 296.305 70.191 295.478 70.191C295.131 70.191 294.771 70.155 294.424 70.0712L294.052 69.9873C294.699 70.9818 294.951 72.216 294.663 73.4381C294.388 74.6124 293.669 75.6069 292.627 76.2419C291.908 76.6853 291.093 76.9129 290.267 76.9129C289.919 76.9129 289.56 76.877 289.212 76.7931L287.523 76.3977L274.309 93.0168C273.986 93.4242 273.506 93.6759 272.979 93.6998L262.101 94.1911C262.101 94.1911 262.041 94.1911 262.017 94.1911C261.394 94.1911 260.819 93.8676 260.484 93.3404C260.136 92.7892 260.124 92.0942 260.436 91.5191L271.937 70.838C271.973 70.7182 272.009 70.6104 272.069 70.5025L277.424 54.6502L261.526 49.6297L255.979 57.0466C255.644 57.502 255.105 57.7656 254.542 57.7656H254.53L247.078 57.7176C246.491 57.7176 245.94 57.4181 245.604 56.9388C245.269 56.4475 245.197 55.8364 245.413 55.2853L245.461 55.2973ZM258.819 32.3396L255.249 30.6022L254.482 38.4504L260.1 39.3251L258.819 32.3396ZM291.213 8.24362L285.211 4.92458L286.145 24.4434L295.142 26.5522L291.213 8.2556V8.24362ZM300.486 31.7764C300.354 31.5607 300.138 31.417 299.887 31.3571H299.851L300.21 32.9986C300.33 32.9267 300.534 32.759 300.605 32.4474C300.677 32.1359 300.558 31.8962 300.486 31.7764ZM302.295 40.775C302.402 40.3196 302.115 39.8643 301.648 39.7086L301.971 41.2423C302.115 41.1224 302.235 40.9667 302.283 40.775H302.295ZM295.981 30.4344L285.894 28.074L283.881 43.0156L299.192 45.3881L295.981 30.4344ZM321.187 58.4605C321.427 57.4301 320.624 55.9203 319.043 54.4106C317.977 53.3921 316.635 52.5054 315.377 51.9063C315.449 51.9543 315.533 51.9902 315.605 52.0501C316.791 52.9967 319.486 55.465 318.911 57.9213C318.336 60.3777 314.826 61.3961 313.34 61.7196C313.233 61.7436 313.125 61.7556 313.017 61.7556C316.383 61.8395 320.744 60.4256 321.199 58.4605H321.187ZM311.328 61.5759C311.807 61.6837 312.334 61.7436 312.897 61.7556C312.094 61.7316 311.364 61.1685 311.184 60.3417C310.968 59.3712 311.591 58.4126 312.562 58.2089C313.628 57.9812 314.886 57.454 315.329 57.0826C315.101 56.5554 314.215 55.5489 313.34 54.8539C312.562 54.2308 312.442 53.1045 313.053 52.3257C313.556 51.7026 314.383 51.4989 315.101 51.7745C314.622 51.5588 314.155 51.3911 313.724 51.2833L263.024 43.411C263.347 43.8304 263.491 44.3696 263.359 44.9208C263.227 45.4719 262.844 45.8913 262.365 46.119L311.304 61.5759H311.328ZM296.005 66.4646C296.125 66.3927 296.341 66.2249 296.412 65.9134C296.46 65.7217 296.412 65.53 296.341 65.3502L295.37 66.5724C295.598 66.6083 295.825 66.5724 296.017 66.4526L296.005 66.4646ZM290.794 73.1745C290.914 73.1026 291.129 72.9349 291.201 72.6233C291.261 72.3837 291.201 72.156 291.081 71.9523L290.027 73.2704H290.063C290.314 73.3423 290.578 73.2943 290.794 73.1625V73.1745ZM272.045 90.1412L283.689 75.4871L274.692 73.3782L265.192 90.4527L272.045 90.1412ZM276.082 70.0232L286.169 72.3837L295.682 60.4016L280.91 55.7406L276.082 70.0232ZM253.703 54.1829L257.956 48.4914L252.529 46.778L249.738 54.147L253.703 54.1709V54.1829Z" fill="#C1F0FA"/>
<path d="M62.2025 347.385C61.5795 347.6 60.9565 347.852 60.3216 348.128C58.1292 349.098 56.1045 350.272 54.3315 351.638C54.008 351.89 53.6246 352.01 53.2413 352.01C52.7022 352.01 52.1631 351.77 51.8156 351.303C51.2166 350.512 51.3604 349.386 52.1511 348.787C54.1518 347.241 56.416 345.923 58.8839 344.833C59.6027 344.521 60.3096 344.233 61.0044 343.994C61.9389 343.658 62.9692 344.15 63.3046 345.084C63.6401 346.019 63.1489 347.049 62.2144 347.385H62.2025Z" fill="#C1F0FA"/>
<path d="M80.8426 346.426C81.6333 347.037 81.777 348.163 81.178 348.942C80.8186 349.397 80.2915 349.649 79.7524 349.649C79.369 349.649 78.9856 349.529 78.6622 349.278C76.362 347.504 73.7264 346.462 70.8152 346.174C69.8208 346.078 69.102 345.192 69.1979 344.209C69.2937 343.227 70.1922 342.508 71.1626 342.592C74.7447 342.951 78.0033 344.233 80.8426 346.414V346.426Z" fill="#C1F0FA"/>
<path d="M80.0381 108.678C81.0205 108.678 81.8112 109.456 81.8352 110.439C81.8831 113.458 82.2305 116.526 82.8774 119.581C83.0811 120.552 82.4582 121.51 81.4878 121.702C81.368 121.726 81.2361 121.738 81.1163 121.738C80.2897 121.738 79.535 121.151 79.3553 120.312C78.6724 117.041 78.301 113.746 78.2411 110.499C78.2291 109.504 79.0198 108.689 80.0022 108.666H80.0381V108.678Z" fill="#C1F0FA"/>
<path d="M76.9125 110.391C74.181 111.565 71.3896 112.991 68.6222 114.633C68.3346 114.8 68.0232 114.884 67.7117 114.884C67.1007 114.884 66.5017 114.573 66.1662 114.01C65.6631 113.159 65.9386 112.056 66.7892 111.541C69.6884 109.816 72.6236 108.318 75.4988 107.084C76.4093 106.688 77.4636 107.12 77.8589 108.03C78.2542 108.941 77.823 109.996 76.9125 110.391Z" fill="#C1F0FA"/>
<path d="M94.7285 106.185C91.7694 106.281 88.7264 106.7 85.6595 107.443C85.5157 107.479 85.3719 107.491 85.2401 107.491C84.4255 107.491 83.6947 106.94 83.491 106.113C83.2514 105.143 83.8505 104.172 84.8089 103.945C88.1034 103.142 91.398 102.686 94.6087 102.579C94.6326 102.579 94.6446 102.579 94.6686 102.579C95.639 102.579 96.4297 103.345 96.4656 104.316C96.5015 105.311 95.7228 106.137 94.7285 106.173V106.185Z" fill="#C1F0FA"/>
<path d="M89.2523 84.258C88.9169 84.8092 88.3179 85.1207 87.7188 85.1207C87.3954 85.1207 87.0719 85.0368 86.7844 84.8571C85.9338 84.3419 85.6702 83.2276 86.1974 82.3888C87.8626 79.6809 89.8034 77.0089 91.9598 74.4567C92.6068 73.7018 93.7329 73.6059 94.4876 74.253C95.2424 74.9 95.3382 76.0263 94.6913 76.7812C92.6427 79.2016 90.8098 81.7178 89.2403 84.27L89.2523 84.258Z" fill="#C1F0FA"/>
<path d="M82.5794 101.309C82.4237 102.171 81.6689 102.782 80.8183 102.782C80.7105 102.782 80.6027 102.782 80.4949 102.746C79.5125 102.567 78.8776 101.632 79.0453 100.65C79.6323 97.4503 80.5428 94.2631 81.7648 91.1717C82.1242 90.2491 83.1785 89.7938 84.1009 90.1532C85.0234 90.5127 85.4787 91.5551 85.1192 92.4897C83.9811 95.3654 83.1305 98.337 82.5914 101.309H82.5794Z" fill="#C1F0FA"/>
<path d="M8.38611 214.982C9.36848 215.102 10.0753 216.001 9.95551 216.983C9.58412 220.087 9.26067 223.262 8.99711 226.425C8.91325 227.36 8.13455 228.067 7.21208 228.067C7.16416 228.067 7.11623 228.067 7.05633 228.067C6.06197 227.983 5.33119 227.12 5.41505 226.126C5.67861 222.927 6.01406 219.715 6.38544 216.564C6.50524 215.582 7.40374 214.875 8.38611 214.994V214.982Z" fill="#C1F0FA"/>
<path d="M60.848 119.845C58.428 121.654 55.972 123.655 53.564 125.788C53.2166 126.087 52.7973 126.243 52.366 126.243C51.8748 126.243 51.3717 126.04 51.0242 125.644C50.3653 124.901 50.4372 123.763 51.168 123.104C53.6479 120.899 56.1757 118.826 58.6796 116.957C59.4823 116.358 60.5964 116.526 61.1954 117.329C61.7944 118.119 61.6267 119.246 60.824 119.845H60.848Z" fill="#C1F0FA"/>
<path d="M8.37482 235.891C8.21908 239.043 8.12322 242.23 8.08727 245.381C8.07529 246.364 7.27262 247.154 6.29025 247.154H6.2663C5.27195 247.142 4.48124 246.328 4.49322 245.333C4.52916 242.146 4.63701 238.911 4.78077 235.723C4.82869 234.729 5.67926 233.962 6.66163 234.01C7.65599 234.058 8.42274 234.897 8.37482 235.891Z" fill="#C1F0FA"/>
<path d="M20.1506 170.924C19.863 171.619 19.1922 172.027 18.4973 172.027C18.2697 172.027 18.0301 171.979 17.8025 171.883C16.892 171.5 16.4607 170.445 16.8321 169.535C17.9702 166.803 19.4078 163.855 21.109 160.764C21.5882 159.889 22.6784 159.577 23.5529 160.057C24.4275 160.536 24.739 161.626 24.2598 162.501C22.6305 165.473 21.2408 168.3 20.1506 170.924Z" fill="#C1F0FA"/>
<path d="M108.409 64.176C105.834 66.0572 103.39 68.0462 101.161 70.0832C100.814 70.3947 100.383 70.5505 99.9514 70.5505C99.4602 70.5505 98.981 70.3588 98.6216 69.9633C97.9507 69.2324 98.0106 68.0941 98.7414 67.4231C101.066 65.3023 103.605 63.2294 106.289 61.2763C107.092 60.6892 108.218 60.8689 108.805 61.6717C109.392 62.4745 109.212 63.6009 108.409 64.188V64.176Z" fill="#C1F0FA"/>
<path d="M160.212 42.5125C157.097 43.1835 154.006 43.9264 151.023 44.7412C150.868 44.7891 150.712 44.8011 150.556 44.8011C149.765 44.8011 149.035 44.2739 148.819 43.4711C148.555 42.5125 149.13 41.53 150.089 41.2664C153.132 40.4396 156.295 39.6848 159.457 39.0018C160.428 38.7981 161.386 39.4092 161.59 40.3797C161.793 41.3503 161.182 42.3088 160.212 42.5125Z" fill="#C1F0FA"/>
<path d="M124.521 54.5425C121.658 55.9444 118.867 57.4541 116.255 59.0118C115.968 59.1795 115.656 59.2634 115.333 59.2634C114.722 59.2634 114.123 58.9519 113.787 58.3887C113.284 57.538 113.56 56.4356 114.41 55.9204C117.118 54.3148 119.981 52.7571 122.94 51.3073C123.827 50.864 124.905 51.2354 125.348 52.1341C125.791 53.0207 125.42 54.0991 124.521 54.5425Z" fill="#C1F0FA"/>
<path d="M128.223 121.846C127.972 121.966 127.708 122.026 127.457 122.026C126.786 122.026 126.139 121.642 125.827 120.995C124.665 118.551 122.82 116.298 120.329 114.309C119.55 113.686 119.43 112.56 120.053 111.781C120.676 111.002 121.802 110.882 122.581 111.505C125.492 113.842 127.684 116.514 129.074 119.461C129.493 120.36 129.122 121.426 128.223 121.858V121.846Z" fill="#C1F0FA"/>
<path d="M130.752 129.73C130.381 132.977 129.183 136.32 127.29 139.388C126.954 139.939 126.367 140.238 125.756 140.238C125.433 140.238 125.109 140.154 124.81 139.975C123.971 139.447 123.708 138.345 124.223 137.506C125.84 134.882 126.858 132.066 127.17 129.335C127.278 128.352 128.164 127.645 129.159 127.753C130.141 127.861 130.848 128.759 130.74 129.742L130.752 129.73Z" fill="#C1F0FA"/>
<path d="M141.977 47.4491C138.946 48.4556 135.962 49.558 133.123 50.7083C132.908 50.7921 132.668 50.8401 132.452 50.8401C131.745 50.8401 131.063 50.4207 130.787 49.7137C130.416 48.7911 130.859 47.7487 131.781 47.3772C134.693 46.191 137.748 45.0767 140.85 44.0462C141.797 43.7347 142.815 44.2379 143.127 45.1845C143.438 46.1311 142.935 47.1496 141.989 47.4611L141.977 47.4491Z" fill="#C1F0FA"/>
<path d="M85.2027 364.447C85.2626 363.896 85.2985 363.321 85.2985 362.745C85.2985 360.529 84.7953 358.204 83.8609 356.047C83.4655 355.137 83.8848 354.082 84.7953 353.687C85.7058 353.292 86.7601 353.711 87.1554 354.622C88.2936 357.234 88.8926 360.049 88.8926 362.757C88.8926 363.476 88.8447 364.183 88.7728 364.878C88.6649 365.789 87.8862 366.46 86.9877 366.46C86.9159 366.46 86.8439 366.46 86.7721 366.448C85.7897 366.328 85.0829 365.441 85.2027 364.447Z" fill="#C1F0FA"/>
<path d="M87.9457 139.507C87.3227 139.507 86.7117 139.172 86.3763 138.585C84.735 135.661 83.3213 132.69 82.1712 129.742C81.8118 128.819 82.2671 127.777 83.1896 127.418C84.112 127.058 85.1543 127.513 85.5137 128.436C86.6039 131.228 87.9457 134.044 89.5031 136.823C89.9943 137.686 89.6828 138.789 88.8203 139.268C88.5447 139.424 88.2452 139.495 87.9457 139.495V139.507Z" fill="#C1F0FA"/>
<path d="M73.8086 374.476C77.0073 374.224 79.6189 373.242 81.5717 371.588C82.3264 370.941 83.4646 371.037 84.0995 371.792C84.7464 372.547 84.6506 373.685 83.8958 374.32C81.356 376.489 78.0615 377.747 74.0961 378.059C74.0481 378.059 74.0002 378.059 73.9523 378.059C73.0298 378.059 72.2392 377.34 72.1673 376.405C72.0834 375.411 72.8262 374.548 73.8205 374.476H73.8086Z" fill="#C1F0FA"/>
<path d="M110.984 151.705C110.206 151.705 109.487 151.19 109.259 150.411C108.984 149.453 109.535 148.458 110.481 148.182C113.177 147.404 115.884 145.99 118.292 144.097C119.071 143.485 120.197 143.617 120.82 144.408C121.431 145.187 121.299 146.325 120.509 146.936C117.741 149.105 114.614 150.735 111.488 151.645C111.32 151.693 111.152 151.717 110.984 151.717V151.705Z" fill="#C1F0FA"/>
<path d="M92.127 144.24C92.8339 143.545 93.972 143.545 94.6669 144.24C96.7993 146.397 99.2553 147.823 101.975 148.47C102.945 148.698 103.532 149.68 103.305 150.639C103.101 151.466 102.37 152.017 101.555 152.017C101.412 152.017 101.268 152.005 101.136 151.969C97.7697 151.154 94.7268 149.405 92.1151 146.769C91.4202 146.062 91.4202 144.923 92.1151 144.228L92.127 144.24Z" fill="#C1F0FA"/>
<path d="M107.835 484.196C110.459 485.862 113.19 487.515 115.946 489.097C116.808 489.588 117.096 490.69 116.605 491.553C116.269 492.128 115.67 492.452 115.047 492.452C114.748 492.452 114.436 492.38 114.149 492.212C111.345 490.606 108.578 488.929 105.906 487.227C105.068 486.7 104.816 485.586 105.355 484.747C105.882 483.908 106.996 483.657 107.835 484.196Z" fill="#C1F0FA"/>
<path d="M102.407 104.819C102.61 103.849 103.569 103.214 104.527 103.417C106.12 103.741 107.726 104.172 109.283 104.675C110.924 105.215 112.506 105.814 113.967 106.437C114.878 106.832 115.297 107.887 114.902 108.797C114.602 109.48 113.943 109.888 113.249 109.888C113.009 109.888 112.769 109.84 112.542 109.744C111.176 109.157 109.703 108.594 108.169 108.09C106.743 107.623 105.282 107.228 103.82 106.94C102.85 106.736 102.215 105.79 102.419 104.819H102.407Z" fill="#C1F0FA"/>
<path d="M48.7474 418.414C48.0525 416.701 47.3816 414.975 46.7587 413.286C46.4112 412.351 46.8905 411.321 47.8249 410.985C48.7594 410.638 49.7896 411.117 50.1251 412.052C50.7361 413.717 51.395 415.419 52.0898 417.12C50.8319 417.384 49.7177 417.827 48.7354 418.414H48.7474Z" fill="#C1F0FA"/>
<path d="M9.7041 291.141C10.6865 290.973 11.6089 291.62 11.7886 292.603C12.3397 295.742 12.9507 298.869 13.6096 301.901C13.8253 302.871 13.2023 303.83 12.2319 304.045C12.1001 304.069 11.9803 304.081 11.8486 304.081C11.0219 304.081 10.2791 303.506 10.0994 302.667C9.42854 299.588 8.80558 296.413 8.24252 293.226C8.07479 292.243 8.72172 291.32 9.7041 291.141Z" fill="#C1F0FA"/>
<path d="M13.6332 309.833C14.5916 309.569 15.574 310.144 15.8256 311.103C16.6402 314.182 17.5387 317.238 18.4852 320.185C18.7847 321.132 18.2695 322.138 17.3231 322.45C17.1434 322.51 16.9517 322.534 16.772 322.534C16.0173 322.534 15.3104 322.042 15.0589 321.288C14.1005 318.292 13.1899 315.177 12.3513 312.037C12.0998 311.079 12.6628 310.096 13.6212 309.833H13.6332Z" fill="#C1F0FA"/>
<path d="M19.2993 328.081C20.2218 327.734 21.2641 328.189 21.6235 329.112C22.7856 332.131 24.0195 335.055 25.2894 337.799C25.7087 338.697 25.3134 339.764 24.4149 340.183C24.1753 340.291 23.9117 340.351 23.6601 340.351C22.9772 340.351 22.3303 339.968 22.0308 339.309C20.725 336.481 19.4551 333.485 18.269 330.394C17.9096 329.471 18.3769 328.429 19.2993 328.069V328.081Z" fill="#C1F0FA"/>
<path d="M31.6514 144.54C32.2504 143.749 33.3766 143.581 34.1673 144.18C34.958 144.78 35.1257 145.906 34.5267 146.697C32.6338 149.237 30.8128 151.837 29.1116 154.437C28.7642 154.964 28.1891 155.252 27.6021 155.252C27.2667 155.252 26.9192 155.156 26.6197 154.964C25.7931 154.425 25.5535 153.311 26.0926 152.472C27.8297 149.812 29.6867 147.14 31.6394 144.54H31.6514Z" fill="#C1F0FA"/>
<path d="M6.28814 253.11C7.23457 253.062 8.09715 253.876 8.12111 254.871C8.19299 258.046 8.32478 261.233 8.50448 264.349C8.56438 265.343 7.80963 266.194 6.81527 266.254C6.77933 266.254 6.74339 266.254 6.70745 266.254C5.76102 266.254 4.97033 265.523 4.91043 264.564C4.71874 261.401 4.58698 258.166 4.5151 254.955C4.49114 253.96 5.28183 253.145 6.27618 253.122L6.28814 253.11Z" fill="#C1F0FA"/>
<path d="M41.6316 373.553C42.626 373.613 43.3807 374.452 43.3208 375.446C43.2609 376.465 43.237 377.507 43.237 378.574C43.237 380.539 43.3328 382.612 43.5365 384.721C43.6323 385.715 42.9016 386.59 41.9192 386.674C41.8593 386.674 41.8113 386.674 41.7514 386.674C40.829 386.674 40.0503 385.979 39.9664 385.044C39.7627 382.815 39.6549 380.635 39.6549 378.562C39.6549 377.436 39.6908 376.321 39.7507 375.231C39.8106 374.236 40.6612 373.517 41.6436 373.541L41.6316 373.553Z" fill="#C1F0FA"/>
<path d="M42.8059 392.569C43.7763 392.365 44.7228 393 44.9264 393.971C45.5254 396.907 46.2802 399.974 47.1907 403.101C47.4662 404.06 46.9151 405.054 45.9687 405.33C45.801 405.378 45.6333 405.402 45.4655 405.402C44.6868 405.402 43.968 404.887 43.7404 404.108C42.8059 400.885 42.0152 397.721 41.4042 394.69C41.2126 393.719 41.8356 392.773 42.8059 392.569Z" fill="#C1F0FA"/>
<path d="M53.7538 371.72C54.1372 370.809 55.1795 370.366 56.1019 370.75C59.2048 372.032 62.1639 373.014 64.8834 373.637C65.8538 373.865 66.4528 374.823 66.2252 375.794C66.0335 376.621 65.2907 377.184 64.4761 377.184C64.3443 377.184 64.2005 377.172 64.0687 377.136C61.1576 376.465 58.0187 375.423 54.7242 374.069C53.8017 373.685 53.3704 372.643 53.7538 371.72Z" fill="#C1F0FA"/>
<path d="M167.447 39.2653C167.291 38.2827 167.95 37.3601 168.932 37.2043C172.047 36.6891 175.258 36.2338 178.468 35.8623C179.463 35.7545 180.349 36.4495 180.469 37.432C180.589 38.4145 179.882 39.3132 178.9 39.433C175.737 39.8044 172.586 40.2478 169.519 40.751C169.423 40.763 169.328 40.775 169.22 40.775C168.357 40.775 167.59 40.1519 167.447 39.2653Z" fill="#C1F0FA"/>
<path d="M44.182 129.802C44.8768 129.095 46.015 129.071 46.7218 129.766C47.4286 130.461 47.4526 131.599 46.7577 132.306C44.6013 134.523 42.4688 136.883 40.4082 139.292C40.0488 139.711 39.5457 139.927 39.0425 139.927C38.6352 139.927 38.2159 139.783 37.8804 139.495C37.1257 138.848 37.0298 137.722 37.6768 136.967C39.7853 134.487 41.9657 132.078 44.182 129.802Z" fill="#C1F0FA"/>
<path d="M40.6141 361.092C41.1413 361.607 41.6684 362.11 42.1955 362.59C43.0341 360.301 44.0764 358.18 45.3104 356.251C45.8495 355.412 46.9517 355.173 47.7903 355.7C48.6289 356.239 48.8685 357.342 48.3414 358.18C47.0355 360.217 45.9813 362.506 45.1666 365.01C46.0172 365.633 46.8798 366.208 47.7423 366.7C48.5929 367.203 48.8805 368.305 48.3893 369.156C48.0538 369.731 47.4548 370.043 46.8438 370.043C46.5324 370.043 46.2209 369.959 45.9333 369.791C44.8791 369.18 43.8368 368.473 42.7945 367.706C42.7107 367.706 42.6268 367.682 42.5549 367.658C41.9919 367.502 41.5606 367.095 41.3569 366.58C40.2667 365.681 39.1765 364.699 38.0983 363.632C37.3915 362.937 37.3915 361.799 38.0983 361.092C38.7932 360.385 39.9433 360.385 40.6381 361.092H40.6141Z" fill="#C1F0FA"/>
<path d="M27.1352 345.491C27.9978 345 29.1 345.3 29.5912 346.162C31.2085 349.014 32.9097 351.662 34.6348 354.035C35.2219 354.837 35.0422 355.964 34.2395 356.539C33.9161 356.766 33.5566 356.886 33.1853 356.886C32.6342 356.886 32.0831 356.635 31.7357 356.143C29.9267 353.663 28.1536 350.895 26.4763 347.936C25.9852 347.073 26.2847 345.971 27.1472 345.479L27.1352 345.491Z" fill="#C1F0FA"/>
<path d="M7.29645 272.185C8.29081 272.077 9.16538 272.82 9.26122 273.803C9.56072 276.942 9.9321 280.117 10.3394 283.232C10.4712 284.215 9.77635 285.126 8.79398 285.257C8.71011 285.257 8.63825 285.269 8.55439 285.269C7.66786 285.269 6.90112 284.61 6.78131 283.712C6.36201 280.548 5.99064 277.337 5.67916 274.15C5.58332 273.168 6.31408 272.281 7.29645 272.185Z" fill="#C1F0FA"/>
<path d="M289.057 513.72C292.029 512.677 294.976 511.515 297.827 510.281C298.737 509.886 299.792 510.305 300.187 511.216C300.582 512.126 300.163 513.181 299.253 513.576C296.329 514.846 293.298 516.032 290.244 517.111C290.052 517.183 289.848 517.219 289.644 517.219C288.902 517.219 288.207 516.763 287.955 516.02C287.62 515.086 288.111 514.055 289.057 513.732V513.72Z" fill="#C1F0FA"/>
<path d="M233.313 522.359H233.337C236.524 522.395 239.711 522.359 242.802 522.227C243.832 522.167 244.635 522.958 244.671 523.952C244.707 524.947 243.94 525.786 242.946 525.822C240.502 525.918 237.998 525.965 235.482 525.965C234.751 525.965 234.032 525.965 233.301 525.965C232.307 525.965 231.516 525.139 231.528 524.144C231.528 523.162 232.343 522.371 233.325 522.371L233.313 522.359Z" fill="#C1F0FA"/>
<path d="M224.555 36.6531C224.627 35.6586 225.502 34.9397 226.484 34.9876C229.647 35.2273 232.869 35.5148 236.056 35.8623C237.038 35.9701 237.757 36.8568 237.649 37.8393C237.554 38.762 236.775 39.4449 235.864 39.4449C235.805 39.4449 235.733 39.4449 235.673 39.4449C232.522 39.1094 229.347 38.8099 226.22 38.5822C225.226 38.5103 224.483 37.6476 224.567 36.6531H224.555Z" fill="#C1F0FA"/>
<path d="M205.472 36.0421C205.472 35.0476 206.274 34.2448 207.269 34.2448C210.432 34.2448 213.666 34.3166 216.889 34.4484C217.883 34.4844 218.65 35.3231 218.614 36.3177C218.578 37.2882 217.775 38.0431 216.817 38.0431C216.793 38.0431 216.769 38.0431 216.745 38.0431C213.57 37.9233 210.384 37.8514 207.257 37.8394C206.262 37.8394 205.46 37.0246 205.46 36.0421H205.472Z" fill="#C1F0FA"/>
<path d="M186.386 36.8568C186.315 35.8623 187.057 34.9996 188.04 34.9277C191.19 34.6881 194.425 34.5083 197.648 34.4005C198.63 34.3526 199.469 35.1434 199.505 36.1379C199.541 37.1324 198.762 37.9592 197.768 37.9951C194.593 38.103 191.406 38.2827 188.303 38.5223C188.255 38.5223 188.207 38.5223 188.159 38.5223C187.225 38.5223 186.446 37.8034 186.374 36.8568H186.386Z" fill="#C1F0FA"/>
<path d="M270.895 518.8C273.974 518.153 277.065 517.398 280.06 516.559C281.018 516.296 282.012 516.847 282.276 517.806C282.54 518.764 281.988 519.747 281.03 520.022C277.963 520.873 274.8 521.652 271.65 522.323C271.53 522.347 271.398 522.359 271.278 522.359C270.452 522.359 269.697 521.784 269.517 520.933C269.313 519.962 269.936 519.004 270.907 518.8H270.895Z" fill="#C1F0FA"/>
<path d="M252.219 521.604C255.37 521.316 258.521 520.933 261.6 520.466C262.57 520.31 263.493 520.993 263.649 521.976C263.792 522.958 263.121 523.869 262.139 524.012C259 524.48 255.778 524.875 252.555 525.163C252.495 525.163 252.447 525.163 252.387 525.163C251.465 525.163 250.686 524.468 250.602 523.533C250.506 522.551 251.237 521.676 252.231 521.58L252.219 521.604Z" fill="#C1F0FA"/>
<path d="M50.3521 85.1087C54.4613 85.1087 57.8037 81.7657 57.8037 77.6558C57.8037 76.6613 58.6064 75.8585 59.6008 75.8585C60.5951 75.8585 61.3978 76.6613 61.3978 77.6558C61.3978 81.7657 64.7403 85.1087 68.8495 85.1087C69.8438 85.1087 70.6465 85.9115 70.6465 86.906C70.6465 87.9005 69.8438 88.7033 68.8495 88.7033C64.7403 88.7033 61.3978 92.0463 61.3978 96.1562C61.3978 97.1507 60.5951 97.9535 59.6008 97.9535C58.6064 97.9535 57.8037 97.1507 57.8037 96.1562C57.8037 92.0463 54.4613 88.7033 50.3521 88.7033C49.3577 88.7033 48.555 87.9005 48.555 86.906C48.555 85.9115 49.3577 85.1087 50.3521 85.1087ZM59.6008 90.1292C60.4394 88.8471 61.5416 87.7447 62.8354 86.906C61.5535 86.0673 60.4514 84.9649 59.6008 83.6828C58.7621 84.9649 57.66 86.0673 56.3781 86.906C57.66 87.7447 58.7621 88.8471 59.6008 90.1292Z" fill="#C1F0FA"/>
<path d="M58.4029 54.9138C65.5671 54.9138 71.4014 49.0786 71.4014 41.9133C71.4014 40.9188 72.2041 40.116 73.1985 40.116C74.1928 40.116 74.9955 40.9188 74.9955 41.9133C74.9955 49.0786 80.8298 54.9138 87.994 54.9138C88.9883 54.9138 89.791 55.7166 89.791 56.7112C89.791 57.7057 88.9883 58.5085 87.994 58.5085C80.8298 58.5085 74.9955 64.3437 74.9955 71.509C74.9955 72.5035 74.1928 73.3063 73.1985 73.3063C72.2041 73.3063 71.4014 72.5035 71.4014 71.509C71.4014 64.3437 65.5671 58.5085 58.4029 58.5085C57.4086 58.5085 56.6059 57.7057 56.6059 56.7112C56.6059 55.7166 57.4086 54.9138 58.4029 54.9138ZM73.1985 64.0322C74.7918 60.8809 77.3675 58.3048 80.5183 56.7112C77.3675 55.1175 74.7918 52.5414 73.1985 49.3901C71.6051 52.5414 69.0294 55.1175 65.8786 56.7112C69.0294 58.3048 71.6051 60.8809 73.1985 64.0322Z" fill="#C1F0FA"/>
<path d="M30.2506 296.521C37.4147 296.521 43.2491 290.685 43.2491 283.52C43.2491 282.525 44.0518 281.723 45.0461 281.723C46.0405 281.723 46.8431 282.525 46.8431 283.52C46.8431 290.685 52.6775 296.521 59.8416 296.521C60.836 296.521 61.6387 297.323 61.6387 298.318C61.6387 299.312 60.836 300.115 59.8416 300.115C52.6775 300.115 46.8431 305.95 46.8431 313.116C46.8431 314.11 46.0405 314.913 45.0461 314.913C44.0518 314.913 43.2491 314.11 43.2491 313.116C43.2491 305.95 37.4147 300.115 30.2506 300.115C29.2562 300.115 28.4536 299.312 28.4536 298.318C28.4536 297.323 29.2562 296.521 30.2506 296.521ZM45.0461 305.639C46.6395 302.488 49.2152 299.911 52.366 298.318C49.2152 296.724 46.6395 294.148 45.0461 290.997C43.4528 294.148 40.877 296.724 37.7262 298.318C40.877 299.911 43.4528 302.488 45.0461 305.639Z" fill="#C1F0FA"/>
<path d="M1.79747 445.649C8.96161 445.649 14.796 439.814 14.796 432.649C14.796 431.654 15.5986 430.852 16.593 430.852C17.5873 430.852 18.39 431.654 18.39 432.649C18.39 439.814 24.2244 445.649 31.3885 445.649C32.3829 445.649 33.1855 446.452 33.1855 447.447C33.1855 448.441 32.3829 449.244 31.3885 449.244C24.2244 449.244 18.39 455.079 18.39 462.245C18.39 463.239 17.5873 464.042 16.593 464.042C15.5986 464.042 14.796 463.239 14.796 462.245C14.796 455.079 8.96161 449.244 1.79747 449.244C0.803112 449.244 0.000442505 448.441 0.000442505 447.447C0.000442505 446.452 0.803112 445.649 1.79747 445.649ZM16.593 454.768C18.1864 451.617 20.7621 449.04 23.9129 447.447C20.7621 445.853 18.1864 443.277 16.593 440.126C14.9996 443.277 12.4239 445.853 9.27312 447.447C12.4239 449.04 14.9996 451.617 16.593 454.768Z" fill="#C1F0FA"/>
<path d="M145.596 438.257C152.76 438.257 158.595 432.421 158.595 425.256C158.595 424.262 159.397 423.459 160.392 423.459C161.386 423.459 162.189 424.262 162.189 425.256C162.189 432.421 168.023 438.257 175.187 438.257C176.182 438.257 176.984 439.059 176.984 440.054C176.984 441.048 176.182 441.851 175.187 441.851C168.023 441.851 162.189 447.686 162.189 454.852C162.189 455.846 161.386 456.649 160.392 456.649C159.397 456.649 158.595 455.846 158.595 454.852C158.595 447.686 152.76 441.851 145.596 441.851C144.602 441.851 143.799 441.048 143.799 440.054C143.799 439.059 144.602 438.257 145.596 438.257ZM160.392 447.375C161.985 444.224 164.561 441.648 167.712 440.054C164.561 438.46 161.985 435.884 160.392 432.733C158.798 435.884 156.223 438.46 153.072 440.054C156.223 441.648 158.798 444.224 160.392 447.375Z" fill="#C1F0FA"/>
<path d="M38.4909 253.721C42.7439 253.721 46.2062 250.258 46.2062 246.004C46.2062 245.01 47.0089 244.207 48.0032 244.207C48.9976 244.207 49.8002 245.01 49.8002 246.004C49.8002 250.258 53.2625 253.721 57.5155 253.721C58.5098 253.721 59.3125 254.523 59.3125 255.518C59.3125 256.512 58.5098 257.315 57.5155 257.315C53.2625 257.315 49.8002 260.778 49.8002 265.032C49.8002 266.026 48.9976 266.829 48.0032 266.829C47.0089 266.829 46.2062 266.026 46.2062 265.032C46.2062 260.778 42.7439 257.315 38.4909 257.315C37.4966 257.315 36.6939 256.512 36.6939 255.518C36.6939 254.523 37.4966 253.721 38.4909 253.721ZM48.0032 258.945C48.8897 257.579 50.0518 256.405 51.4176 255.53C50.0518 254.643 48.8778 253.481 48.0032 252.115C47.1167 253.481 45.9546 254.655 44.5889 255.53C45.9546 256.417 47.1287 257.579 48.0032 258.945Z" fill="#C1F0FA"/>
<path d="M100.405 396.319C104.658 396.319 108.12 392.857 108.12 388.603C108.12 387.608 108.923 386.806 109.917 386.806C110.912 386.806 111.714 387.608 111.714 388.603C111.714 392.857 115.177 396.319 119.43 396.319C120.424 396.319 121.227 397.122 121.227 398.117C121.227 399.111 120.424 399.914 119.43 399.914C115.177 399.914 111.714 403.377 111.714 407.631C111.714 408.625 110.912 409.428 109.917 409.428C108.923 409.428 108.12 408.625 108.12 407.631C108.12 403.377 104.658 399.914 100.405 399.914C99.4107 399.914 98.608 399.111 98.608 398.117C98.608 397.122 99.4107 396.319 100.405 396.319ZM109.905 401.532C110.792 400.166 111.954 398.991 113.32 398.117C111.954 397.23 110.78 396.068 109.905 394.702C109.019 396.068 107.857 397.242 106.491 398.117C107.857 399.003 109.031 400.166 109.905 401.532Z" fill="#C1F0FA"/>
<path d="M45.0453 74.6604C48.7352 74.6604 51.7422 71.6529 51.7422 67.9624C51.7422 64.2719 48.7352 61.2644 45.0453 61.2644C41.3554 61.2644 38.3484 64.2719 38.3484 67.9624C38.3484 71.6529 41.3554 74.6604 45.0453 74.6604ZM45.0453 64.859C46.7584 64.859 48.1481 66.249 48.1481 67.9624C48.1481 69.6758 46.7584 71.0657 45.0453 71.0657C43.3321 71.0657 41.9424 69.6758 41.9424 67.9624C41.9424 66.249 43.3321 64.859 45.0453 64.859Z" fill="#C1F0FA"/>
<path d="M139.737 34.5564C143.427 34.5564 146.434 31.5489 146.434 27.8584C146.434 24.1679 143.427 21.1604 139.737 21.1604C136.047 21.1604 133.04 24.1679 133.04 27.8584C133.04 31.5489 136.047 34.5564 139.737 34.5564ZM139.737 24.755C141.45 24.755 142.84 26.1449 142.84 27.8584C142.84 29.5718 141.45 30.9617 139.737 30.9617C138.024 30.9617 136.634 29.5718 136.634 27.8584C136.634 26.1449 138.024 24.755 139.737 24.755Z" fill="#C1F0FA"/>
<path d="M31.6995 281.879C35.3894 281.879 38.3965 278.871 38.3965 275.181C38.3965 271.49 35.3894 268.483 31.6995 268.483C28.0096 268.483 25.0026 271.49 25.0026 275.181C25.0026 278.871 28.0096 281.879 31.6995 281.879ZM31.6995 272.089C33.4127 272.089 34.8024 273.479 34.8024 275.192C34.8024 276.906 33.4127 278.296 31.6995 278.296C29.9864 278.296 28.5967 276.906 28.5967 275.192C28.5967 273.479 29.9864 272.089 31.6995 272.089Z" fill="#C1F0FA"/>
<path d="M144.637 463.311C148.327 463.311 151.334 460.304 151.334 456.613C151.334 452.923 148.327 449.915 144.637 449.915C140.947 449.915 137.94 452.923 137.94 456.613C137.94 460.304 140.947 463.311 144.637 463.311ZM144.637 453.51C146.35 453.51 147.74 454.9 147.74 456.613C147.74 458.327 146.35 459.717 144.637 459.717C142.924 459.717 141.534 458.327 141.534 456.613C141.534 454.9 142.924 453.51 144.637 453.51Z" fill="#C1F0FA"/>
<path d="M128.463 386.794C132.153 386.794 135.16 383.786 135.16 380.096C135.16 376.405 132.153 373.398 128.463 373.398C124.773 373.398 121.766 376.405 121.766 380.096C121.766 383.786 124.773 386.794 128.463 386.794ZM128.463 376.992C130.176 376.992 131.566 378.382 131.566 380.096C131.566 381.809 130.176 383.199 128.463 383.199C126.75 383.199 125.36 381.809 125.36 380.096C125.36 378.382 126.75 376.992 128.463 376.992Z" fill="#C1F0FA"/>
</g>
<defs>
<clipPath id="clip0_5142_1135">
<rect width="556" height="535.539" fill="white" transform="matrix(-1 0 0 1 556 0)"/>
</clipPath>
</defs>
</svg>
